<?xml version="1.0" encoding="UTF-8"?>
<!DOCTYPE svg PUBLIC "-//W3C//DTD SVG 1.1//EN" "http://www.w3.org/Graphics/SVG/1.1/DTD/svg11.dtd">
<!-- Creator: CorelDRAW 2019 (64-Bit) -->
<svg xmlns="http://www.w3.org/2000/svg" xml:space="preserve" width="500px" height="500px" version="1.1" style="shape-rendering:geometricPrecision; text-rendering:geometricPrecision; image-rendering:optimizeQuality; fill-rule:evenodd; clip-rule:evenodd"
viewBox="0 0 14.87 14.87"
 xmlns:xlink="http://www.w3.org/1999/xlink"
 xmlns:xodm="http://www.corel.com/coreldraw/odm/2003">
 <defs>
  <style type="text/css">
   <![CDATA[
    .fil2 {fill:none}
    .fil0 {fill:#BFE3F9;fill-rule:nonzero}
    .fil1 {fill:#3F476B;fill-rule:nonzero}
   ]]>
  </style>
 </defs>
 <g id="Warstwa_x0020_1">
  <metadata id="CorelCorpID_0Corel-Layer"/>
  <g id="_2241695659712">
   <path class="fil0" d="M9.35 9.44l0 -1.14c0,-0.15 -0.13,-0.28 -0.29,-0.28l-3.24 0c-0.15,0 -0.28,0.13 -0.28,0.28l0 1.14c0,0.16 0.13,0.28 0.28,0.28l3.24 0c0.16,0 0.29,-0.12 0.29,-0.28l0 0z"/>
   <polygon class="fil0" points="11.56,3.03 3.71,3.03 3.71,6.91 11.56,6.91 "/>
   <path class="fil1" d="M11.7 7.1l0 -3.97c0,-0.09 -0.04,-0.18 -0.1,-0.24 -0.06,-0.07 -0.15,-0.1 -0.24,-0.1l-7.83 0c-0.09,0 -0.18,0.03 -0.24,0.1 -0.07,0.06 -0.1,0.15 -0.1,0.24l0 3.97c0,0.08 0.03,0.17 0.1,0.23 0.06,0.07 0.15,0.1 0.24,0.1l7.83 0c0.09,0 0.18,-0.03 0.24,-0.1 0.06,-0.06 0.1,-0.15 0.1,-0.23l0 0zm-0.68 -0.34l-7.16 0 0 -3.3 7.16 0 0 3.3z"/>
   <path class="fil1" d="M9.02 10.57l-3.16 0c-0.18,0 -0.33,0.15 -0.33,0.34 0,0.19 0.15,0.34 0.33,0.34l3.16 0c0.19,0 0.34,-0.15 0.34,-0.34 0,-0.19 -0.15,-0.34 -0.34,-0.34l0 0z"/>
   <path class="fil1" d="M14.63 4.4c-0.09,-0.06 -0.19,-0.09 -0.3,-0.09l-0.1 0c-0.02,-0.19 -0.04,-0.4 -0.1,-0.63 -0.04,-0.18 -0.1,-0.36 -0.18,-0.54 -0.09,-0.17 -0.2,-0.35 -0.34,-0.51l0 0c-0.04,-0.04 -0.09,-0.08 -0.13,-0.12 -0.08,-0.07 -0.17,-0.12 -0.26,-0.17 -0.14,-0.07 -0.28,-0.13 -0.42,-0.18 -0.04,-0.01 -0.08,-0.02 -0.12,-0.03l0 -0.13c0,-0.13 -0.03,-0.27 -0.08,-0.39 -0.08,-0.18 -0.21,-0.33 -0.37,-0.44 -0.16,-0.11 -0.35,-0.17 -0.56,-0.17l-0.32 0c-0.19,0 -0.34,0.15 -0.34,0.34 0,0.18 0.15,0.33 0.34,0.33l0.32 0c0.05,0 0.09,0.01 0.13,0.03 0.06,0.02 0.11,0.07 0.15,0.12 0.03,0.05 0.05,0.11 0.05,0.18l0 9.39c0,0.05 -0.01,0.09 -0.02,0.13 -0.03,0.06 -0.07,0.11 -0.12,0.15 -0.06,0.03 -0.12,0.05 -0.19,0.05l-8.46 0c-0.04,0 -0.08,-0.01 -0.12,-0.02 -0.06,-0.03 -0.11,-0.07 -0.15,-0.12 -0.03,-0.05 -0.05,-0.12 -0.05,-0.19l0 -9.39c0,-0.04 0,-0.09 0.02,-0.12 0.03,-0.06 0.07,-0.11 0.12,-0.15 0.05,-0.04 0.12,-0.06 0.18,-0.06l5.89 0c0.19,0 0.34,-0.15 0.34,-0.33 0,-0.19 -0.15,-0.34 -0.34,-0.34l-5.89 0c-0.13,0 -0.27,0.03 -0.39,0.08 -0.18,0.07 -0.33,0.2 -0.44,0.36 -0.11,0.16 -0.17,0.36 -0.17,0.56l0 0.12c-0.01,0.01 -0.02,0.01 -0.03,0.01 -0.15,0.05 -0.31,0.11 -0.47,0.19 -0.08,0.04 -0.15,0.08 -0.23,0.13 -0.07,0.05 -0.14,0.11 -0.2,0.18l0 0c-0.14,0.16 -0.25,0.34 -0.34,0.51 -0.12,0.27 -0.2,0.55 -0.24,0.8 -0.02,0.13 -0.03,0.25 -0.04,0.37l-0.12 0c-0.07,0 -0.15,0.01 -0.21,0.04 -0.1,0.04 -0.18,0.11 -0.24,0.2 -0.06,0.08 -0.09,0.19 -0.09,0.3l0 1.92c0,0.07 0.02,0.14 0.04,0.21 0.04,0.09 0.11,0.18 0.2,0.23 0.08,0.06 0.19,0.1 0.3,0.1l0.82 0c0.07,0 0.14,-0.02 0.21,-0.05 0.09,-0.04 0.17,-0.11 0.23,-0.19 0.06,-0.09 0.1,-0.19 0.1,-0.3l0 -1.92c0,-0.08 -0.02,-0.15 -0.05,-0.21 -0.04,-0.1 -0.11,-0.18 -0.19,-0.24 -0.09,-0.06 -0.19,-0.09 -0.3,-0.09l-0.02 0c0.01,-0.15 0.03,-0.31 0.07,-0.47 0.03,-0.14 0.08,-0.28 0.14,-0.41 0.06,-0.12 0.14,-0.24 0.23,-0.35 0.01,-0.01 0.03,-0.03 0.05,-0.04 0.04,-0.03 0.09,-0.07 0.16,-0.1 0.06,-0.04 0.14,-0.07 0.22,-0.1l0 8.55c0,0.14 0.03,0.28 0.08,0.4 0.08,0.18 0.2,0.33 0.36,0.44 0.11,0.07 0.24,0.11 0.38,0.14l0 0.78c0,0.1 0.02,0.2 0.05,0.28 0.06,0.13 0.15,0.24 0.26,0.32 0.12,0.07 0.26,0.12 0.41,0.12l1.7 0c0.1,0 0.19,-0.02 0.28,-0.06 0.13,-0.05 0.24,-0.14 0.31,-0.26 0.08,-0.11 0.13,-0.25 0.13,-0.4l0 -0.75 2.62 0 0 0.75c0,0.1 0.02,0.2 0.06,0.28 0.06,0.13 0.15,0.24 0.26,0.32 0.11,0.07 0.25,0.12 0.4,0.12l1.7 0c0.1,0 0.2,-0.02 0.28,-0.06 0.13,-0.05 0.24,-0.14 0.32,-0.26 0.08,-0.11 0.12,-0.25 0.12,-0.4l0 -0.8c0.05,-0.01 0.09,-0.01 0.13,-0.03 0.18,-0.08 0.34,-0.2 0.45,-0.36 0.1,-0.16 0.17,-0.36 0.17,-0.57l0 -8.54c0.06,0.02 0.14,0.05 0.19,0.07 0.06,0.03 0.11,0.06 0.15,0.09 0.04,0.03 0.07,0.05 0.09,0.07 0.09,0.11 0.16,0.23 0.23,0.35 0.09,0.2 0.15,0.41 0.18,0.62 0.02,0.09 0.02,0.17 0.03,0.26l-0.04 0c-0.07,0 -0.14,0.01 -0.21,0.04 -0.1,0.04 -0.18,0.11 -0.24,0.2 -0.05,0.08 -0.09,0.19 -0.09,0.3l0 1.92c0,0.07 0.02,0.14 0.04,0.21 0.05,0.09 0.11,0.18 0.2,0.23 0.09,0.06 0.19,0.1 0.3,0.1l0.82 0c0.07,0 0.14,-0.02 0.21,-0.05 0.1,-0.04 0.18,-0.11 0.24,-0.19 0.05,-0.09 0.09,-0.19 0.09,-0.3l0 -1.92c0,-0.08 -0.02,-0.15 -0.04,-0.21 -0.05,-0.1 -0.11,-0.18 -0.2,-0.24l0 0zm-13.95 0.58c0.05,0 0.1,-0.02 0.15,-0.04 0.05,0.02 0.1,0.04 0.16,0.04 0.04,0 0.08,-0.01 0.12,-0.02 0.03,0.01 0.07,0.02 0.11,0.02l0 1.65 -0.54 0 0 -1.65zm4.81 8.17c0,0.01 0,0.01 0,0.02 -0.01,0.01 -0.01,0.01 -0.02,0.02 -0.01,0 -0.01,0 -0.02,0l-1.7 0c-0.01,0 -0.02,0 -0.02,0 -0.01,0 -0.02,-0.01 -0.02,-0.01 0,-0.01 -0.01,-0.02 -0.01,-0.03l0 -0.75 1.79 0 0 0.75zm5.76 0.02c0,0.01 0,0.01 -0.01,0.02 -0.01,0 -0.02,0 -0.03,0l-1.7 0c-0.01,0 -0.01,0 -0.01,0 -0.01,0 -0.02,-0.01 -0.02,-0.01 -0.01,-0.01 -0.01,-0.02 -0.01,-0.03l0 -0.75 1.79 0 0 0.75c0,0.01 0,0.01 -0.01,0.02l0 0zm2.4 -8.19l0.01 0c0.04,0 0.08,-0.01 0.12,-0.02 0.04,0.01 0.08,0.02 0.12,0.02 0.06,0 0.11,-0.02 0.16,-0.04 0.04,0.02 0.09,0.03 0.13,0.04l0 1.65 -0.54 0 0 -1.65z"/>
   <path class="fil1" d="M9.68 9.44l0 -1.14c0,-0.08 -0.01,-0.16 -0.05,-0.24 -0.04,-0.11 -0.12,-0.2 -0.22,-0.27 -0.1,-0.07 -0.22,-0.11 -0.35,-0.11l-3.24 0c-0.08,0 -0.16,0.02 -0.24,0.05 -0.11,0.05 -0.2,0.13 -0.27,0.23 -0.07,0.09 -0.11,0.22 -0.11,0.34l0 1.14c0,0.09 0.02,0.17 0.05,0.24 0.05,0.11 0.13,0.21 0.23,0.28 0.1,0.06 0.22,0.1 0.34,0.1l3.24 0c0.09,0 0.17,-0.02 0.24,-0.05 0.12,-0.04 0.21,-0.12 0.28,-0.22 0.06,-0.1 0.1,-0.22 0.1,-0.35l0 0zm-0.67 -0.05l-3.13 0 0 -1.03 3.13 0 0 1.03z"/>
   <path class="fil1" d="M8.28 2.55c0.18,0 0.33,-0.16 0.33,-0.34 0,-0.19 -0.15,-0.34 -0.33,-0.34l-1.67 0c-0.19,0 -0.34,0.15 -0.34,0.34 0,0.18 0.15,0.34 0.34,0.34l1.67 0 0 0z"/>
   <path class="fil1" d="M10.23 8.87c0,0.37 0.29,0.67 0.66,0.67 0.37,0 0.67,-0.3 0.67,-0.67 0,-0.37 -0.3,-0.66 -0.67,-0.66 -0.37,0 -0.66,0.29 -0.66,0.66l0 0z"/>
   <path class="fil1" d="M3.33 8.87c0,0.37 0.3,0.67 0.67,0.67 0.36,0 0.66,-0.3 0.66,-0.67 0,-0.37 -0.3,-0.66 -0.66,-0.66 -0.37,0 -0.67,0.29 -0.67,0.66l0 0z"/>
  </g>
  <rect class="fil2" width="14.87" height="14.87"/>
 </g>
</svg>
