<?xml version="1.0" encoding="UTF-8"?>
<!DOCTYPE svg PUBLIC "-//W3C//DTD SVG 1.1//EN" "http://www.w3.org/Graphics/SVG/1.1/DTD/svg11.dtd">
<!-- Creator: CorelDRAW 2019 (64-Bit) -->
<svg xmlns="http://www.w3.org/2000/svg" xml:space="preserve" width="500px" height="500px" version="1.1" style="shape-rendering:geometricPrecision; text-rendering:geometricPrecision; image-rendering:optimizeQuality; fill-rule:evenodd; clip-rule:evenodd"
viewBox="0 0 82.09 82.09"
 xmlns:xlink="http://www.w3.org/1999/xlink"
 xmlns:xodm="http://www.corel.com/coreldraw/odm/2003">
 <defs>
  <style type="text/css">
   <![CDATA[
    .fil0 {fill:none}
    .fil2 {fill:#3F476C;fill-rule:nonzero}
    .fil1 {fill:#85C9F0;fill-rule:nonzero}
   ]]>
  </style>
 </defs>
 <g id="Warstwa_x0020_1">
  <metadata id="CorelCorpID_0Corel-Layer"/>
  <rect class="fil0" width="82.09" height="82.09"/>
  <g id="_2994453894032">
   <path class="fil1" d="M77.3 24.34l-4.67 0 0 29.99c0,1.89 -1.53,3.42 -3.42,3.42l-59.75 0 0 9.14 41.94 0 0 -0.13 25.9 0c1.89,0 3.42,-1.53 3.42,-3.42l0 -35.57c0,-1.89 -1.53,-3.43 -3.42,-3.43l0 0z"/>
   <path class="fil2" d="M79.17 67.75c0.86,-0.36 1.59,-0.97 2.1,-1.73 0.52,-0.77 0.82,-1.69 0.82,-2.68l0 -35.57c0,-0.66 -0.13,-1.29 -0.38,-1.87 -0.36,-0.86 -0.97,-1.59 -1.73,-2.11 -0.76,-0.51 -1.69,-0.82 -2.68,-0.82l-3.3 0 0 -4.22c0,-0.66 -0.13,-1.29 -0.38,-1.86 -0.36,-0.86 -0.97,-1.59 -1.73,-2.11 -0.76,-0.52 -1.69,-0.82 -2.68,-0.82l-64.42 0c-0.66,0 -1.29,0.14 -1.86,0.38 -0.86,0.37 -1.59,0.97 -2.11,1.74 -0.52,0.76 -0.82,1.69 -0.82,2.67l0 7.63c0,1.03 0.34,2.01 0.91,2.8 0.58,0.79 1.4,1.41 2.37,1.74l0 0c1.17,0.4 2.18,1.15 2.89,2.13 0.36,0.49 0.64,1.04 0.83,1.62 0.2,0.59 0.3,1.22 0.3,1.87 0,0.65 -0.1,1.28 -0.3,1.86 -0.58,1.76 -1.97,3.16 -3.72,3.76l0 0c-0.97,0.33 -1.79,0.94 -2.37,1.74 -0.57,0.79 -0.91,1.77 -0.91,2.8l0 7.63c0,0.65 0.14,1.29 0.38,1.86 0.36,0.86 0.97,1.59 1.73,2.11 0.76,0.51 1.69,0.82 2.68,0.82l3.3 0 0 4.22c0,0.66 0.13,1.29 0.38,1.86 0.36,0.87 0.97,1.6 1.73,2.11 0.77,0.52 1.69,0.82 2.68,0.82l13.45 0c0.75,0 1.37,-0.61 1.37,-1.37 0,-0.76 -0.62,-1.37 -1.37,-1.37l-13.45 0c-0.28,0 -0.55,-0.06 -0.8,-0.16 -0.36,-0.15 -0.68,-0.42 -0.9,-0.75 -0.22,-0.32 -0.35,-0.71 -0.35,-1.14l0 -4.22 58.38 0c0.66,0 1.29,-0.14 1.86,-0.38 0.87,-0.37 1.59,-0.97 2.11,-1.74 0.52,-0.76 0.82,-1.69 0.82,-2.67l0 -28.62 3.3 0c0.29,0 0.55,0.06 0.8,0.17 0.36,0.15 0.68,0.41 0.9,0.74 0.22,0.33 0.35,0.72 0.35,1.15l0 35.57c0,0.28 -0.05,0.55 -0.16,0.79 -0.15,0.38 -0.41,0.69 -0.74,0.91 -0.33,0.22 -0.72,0.35 -1.15,0.35l-41.84 0c-0.76,0 -1.37,0.61 -1.37,1.37 0,0.76 0.61,1.37 1.37,1.37l41.84 0c0.66,0 1.29,-0.14 1.87,-0.38l0 0zm-8.07 -12.63c-0.15,0.37 -0.41,0.69 -0.74,0.91 -0.33,0.22 -0.72,0.35 -1.15,0.35l-49.34 0 0 -1.08c0,-0.76 -0.62,-1.37 -1.37,-1.37 -0.76,0 -1.37,0.61 -1.37,1.37l0 1.08 -12.34 0c-0.29,0 -0.55,-0.06 -0.8,-0.16 -0.36,-0.16 -0.68,-0.42 -0.9,-0.75 -0.22,-0.33 -0.35,-0.72 -0.35,-1.14l0 -7.63c0,-0.44 0.14,-0.85 0.39,-1.19 0.25,-0.34 0.6,-0.61 1.03,-0.76l0 0c1.71,-0.58 3.18,-1.68 4.22,-3.11 1.04,-1.43 1.66,-3.2 1.66,-5.1 0,-1.9 -0.62,-3.67 -1.66,-5.1 -1.04,-1.43 -2.51,-2.53 -4.22,-3.11l0 0c-0.43,-0.15 -0.78,-0.42 -1.03,-0.76 -0.25,-0.35 -0.39,-0.75 -0.39,-1.19l0 -7.63c0,-0.29 0.06,-0.55 0.16,-0.8 0.15,-0.36 0.42,-0.68 0.74,-0.9 0.33,-0.22 0.72,-0.35 1.15,-0.35l12.34 0 0 1.08c0,0.76 0.61,1.37 1.37,1.37 0.75,0 1.37,-0.61 1.37,-1.37l0 -1.08 49.34 0c0.29,0 0.55,0.06 0.8,0.16 0.37,0.16 0.68,0.42 0.9,0.75 0.22,0.33 0.35,0.71 0.35,1.14l0 5.59 0 0c0,0.01 0,0.01 0,0.01l0 29.98c0,0.28 -0.05,0.55 -0.16,0.79l0 0z"/>
   <polygon class="fil2" points="24.86,37.33 24.86,37.33 24.86,37.33 "/>
   <polygon class="fil2" points="25.83,34.34 25.83,34.34 25.83,34.34 "/>
   <polygon class="fil2" points="31.29,38.31 31.29,38.31 31.29,38.31 31.29,38.31 "/>
   <polygon class="fil2" points="30.64,34.34 30.64,34.34 30.64,34.34 "/>
   <path class="fil2" d="M24.75 34.78c-0.18,0.16 -0.32,0.36 -0.41,0.56 -0.09,0.21 -0.14,0.44 -0.14,0.67 0,0.24 0.05,0.49 0.17,0.72 0.11,0.23 0.28,0.44 0.49,0.6l0.49 0.38 -0.17 0.6 -0.01 0.01c-0.04,0.15 -0.06,0.31 -0.06,0.47 0,0.23 0.05,0.47 0.14,0.67 0.14,0.31 0.35,0.55 0.61,0.72 0.26,0.17 0.57,0.27 0.91,0.27 0.16,0 0.33,-0.02 0.49,-0.07 0.16,-0.05 0.32,-0.13 0.45,-0.22l0.01 0 0.51 -0.36 0.52 0.36 0 0c0.14,0.09 0.29,0.17 0.45,0.22 0.16,0.05 0.33,0.07 0.49,0.07 0.23,0 0.45,-0.04 0.64,-0.12 0.29,-0.12 0.54,-0.32 0.72,-0.59 0.1,-0.12 0.17,-0.27 0.23,-0.43 0.05,-0.16 0.08,-0.34 0.08,-0.52 0,-0.16 -0.03,-0.33 -0.07,-0.48l-0.18 -0.6 0.5 -0.38c0.2,-0.16 0.38,-0.37 0.49,-0.6 0.11,-0.23 0.16,-0.48 0.16,-0.72 0,-0.21 -0.04,-0.41 -0.11,-0.59 -0.11,-0.29 -0.29,-0.55 -0.56,-0.75 -0.13,-0.1 -0.28,-0.18 -0.45,-0.23 -0.16,-0.06 -0.33,-0.09 -0.5,-0.1l-0.63 -0.01 -0.21 -0.59 0 -0.01c-0.06,-0.16 -0.15,-0.33 -0.26,-0.47 -0.16,-0.21 -0.38,-0.37 -0.61,-0.48 -0.22,-0.11 -0.46,-0.15 -0.7,-0.15 -0.31,0 -0.63,0.08 -0.92,0.27 -0.14,0.1 -0.28,0.22 -0.39,0.36 -0.11,0.14 -0.2,0.31 -0.26,0.47l0 0.01 -0.2 0.59 -0.63 0.01c-0.23,0.01 -0.46,0.06 -0.67,0.16 -0.15,0.07 -0.29,0.17 -0.41,0.28l0 0zm3.05 4.31l0 0 0 0.01 0 -0.01 0 0zm0.4 -2.36c0.01,-0.01 0.02,-0.03 0.03,-0.05 0.02,0.02 0.02,0.04 0.04,0.05 0.01,0.02 0.04,0.01 0.06,0.03 -0.01,0.03 -0.01,0.06 -0.02,0.1 -0.03,0 -0.05,-0.03 -0.08,-0.03 -0.02,0 -0.05,0.03 -0.08,0.03 0,-0.04 -0.01,-0.07 -0.02,-0.1 0.02,-0.02 0.05,-0.01 0.07,-0.03l0 0zm-0.01 1.05l0 0.01 0 0 0 -0.01 0 0zm0.99 -0.65l0 0zm1.12 0.77l0 0zm-0.04 -2.87l-0.01 -0.01 0 0 0.01 0.01 0 0zm-0.99 -0.72l0 0 0 0 0 0zm-2.05 0.34l0 0 0 0 0 0 0 0zm-0.03 -0.34l0 0zm-0.98 0.71l0 0 0 0.01 0 -0.01 0 0z"/>
   <polygon class="fil2" points="41.74,34.34 41.74,34.34 41.74,34.34 "/>
   <path class="fil2" d="M42.71 37.33c0.21,-0.16 0.38,-0.37 0.49,-0.6 0.12,-0.23 0.17,-0.48 0.17,-0.72 0,-0.21 -0.04,-0.41 -0.12,-0.59 -0.1,-0.29 -0.29,-0.55 -0.56,-0.75 -0.13,-0.1 -0.28,-0.18 -0.44,-0.23 -0.16,-0.06 -0.34,-0.09 -0.51,-0.1l-0.63 -0.01 -0.2 -0.59 0 -0.01c-0.06,-0.16 -0.15,-0.33 -0.26,-0.47 -0.17,-0.21 -0.38,-0.37 -0.61,-0.48 -0.23,-0.11 -0.47,-0.15 -0.7,-0.15 -0.32,0 -0.64,0.08 -0.92,0.27 -0.15,0.1 -0.28,0.22 -0.39,0.36 -0.11,0.14 -0.2,0.31 -0.26,0.47l0 0.01 -0.21 0.59 -0.63 0.01c-0.23,0.01 -0.46,0.06 -0.66,0.16 -0.16,0.07 -0.3,0.17 -0.42,0.28 -0.18,0.16 -0.31,0.36 -0.4,0.56 -0.09,0.21 -0.14,0.44 -0.14,0.67 0,0.24 0.05,0.49 0.16,0.72 0.11,0.23 0.29,0.44 0.49,0.6l0.5 0.38 -0.18 0.6 0 0.01c-0.04,0.15 -0.07,0.31 -0.07,0.47 0,0.23 0.05,0.47 0.14,0.67 0.14,0.31 0.35,0.55 0.61,0.72 0.26,0.17 0.57,0.27 0.92,0.27 0.16,0 0.33,-0.02 0.49,-0.07 0.16,-0.05 0.31,-0.13 0.45,-0.22l0 0 0.52 -0.36 0.51 0.36 0 0c0.14,0.09 0.3,0.17 0.46,0.22 0.16,0.05 0.33,0.07 0.49,0.07 0.22,0 0.44,-0.04 0.63,-0.12 0.29,-0.12 0.54,-0.32 0.73,-0.59 0.09,-0.12 0.17,-0.27 0.22,-0.43 0.05,-0.16 0.08,-0.34 0.08,-0.52 0,-0.16 -0.02,-0.33 -0.07,-0.48l-0.18 -0.6 0.5 -0.38 0 0zm-3.8 1.76l0 0 0 0.01 0 -0.01 0 0zm0.39 -1.31l-0.01 0.01 0 0 0.01 -0.01 0 0zm0.04 -0.95c-0.03,0 -0.05,0.03 -0.08,0.03 -0.01,-0.04 -0.01,-0.07 -0.02,-0.1 0.02,-0.02 0.04,-0.01 0.06,-0.03 0.02,-0.01 0.02,-0.03 0.04,-0.05 0.01,0.02 0.02,0.04 0.03,0.05 0.02,0.02 0.05,0.01 0.07,0.03 -0.01,0.03 -0.02,0.06 -0.03,0.1 -0.02,0 -0.05,-0.03 -0.07,-0.03l0 0zm-0.64 -0.85l0.01 0.01 -0.01 -0.01 0 0zm1.58 1.15l0 0 0 0 0 0zm1.08 -2.1l0 -0.01 0 0 0 0.01 0 0zm-0.98 -0.72l0 0zm-2.08 0l0 0 0 0 0 0zm-0.98 0.71l0 0 -0.01 0.01 0.01 -0.01 0 0zm-0.05 2.88l0 0 0 0 0 0 0 0zm4.14 0l0 0z"/>
   <polygon class="fil2" points="35.96,37.33 35.96,37.33 35.96,37.33 "/>
   <path class="fil2" d="M36.93 34.34l0 0c0,0 0,0 0,0l0 0 0 0z"/>
   <polygon class="fil2" points="42.39,38.31 42.39,38.31 42.39,38.31 42.39,38.31 "/>
   <polygon class="fil2" points="53.5,38.31 53.5,38.31 53.5,38.31 53.5,38.31 "/>
   <polygon class="fil2" points="48.03,34.34 48.04,34.34 48.03,34.34 "/>
   <polygon class="fil2" points="52.84,34.34 52.85,34.34 52.84,34.34 "/>
   <path class="fil2" d="M53.82 37.33c0.2,-0.16 0.38,-0.37 0.49,-0.6 0.11,-0.23 0.16,-0.48 0.16,-0.72 0,-0.21 -0.04,-0.41 -0.11,-0.59 -0.11,-0.29 -0.29,-0.55 -0.56,-0.75 -0.13,-0.1 -0.29,-0.18 -0.45,-0.23 -0.16,-0.06 -0.33,-0.09 -0.51,-0.1l-0.62 -0.01 -0.21 -0.59 0 -0.01c-0.06,-0.16 -0.15,-0.33 -0.26,-0.47 -0.16,-0.21 -0.38,-0.37 -0.61,-0.48 -0.22,-0.11 -0.46,-0.15 -0.7,-0.15 -0.31,0 -0.63,0.08 -0.92,0.27 -0.15,0.1 -0.28,0.22 -0.39,0.36 -0.11,0.14 -0.2,0.31 -0.26,0.47l0 0.01 -0.21 0.59 -0.62 0.01c-0.23,0.01 -0.46,0.06 -0.67,0.16 -0.16,0.07 -0.29,0.17 -0.41,0.28 -0.18,0.16 -0.32,0.36 -0.41,0.56 -0.09,0.21 -0.14,0.44 -0.14,0.67 0,0.24 0.05,0.49 0.17,0.72 0.11,0.23 0.28,0.44 0.49,0.6l0 0 0.49 0.38 -0.18 0.6 0 0.01c-0.04,0.15 -0.06,0.31 -0.06,0.47 0,0.23 0.05,0.47 0.14,0.67 0.13,0.31 0.35,0.55 0.61,0.72 0.25,0.17 0.57,0.27 0.91,0.27 0.16,0 0.33,-0.02 0.49,-0.07 0.16,-0.05 0.32,-0.13 0.45,-0.22l0 0 0.52 -0.36 0.52 0.36 0 0c0.14,0.09 0.29,0.17 0.45,0.22 0.16,0.05 0.33,0.07 0.49,0.07 0.23,0 0.44,-0.04 0.64,-0.12 0.29,-0.12 0.54,-0.32 0.72,-0.59 0.1,-0.12 0.17,-0.27 0.22,-0.43 0.06,-0.16 0.09,-0.34 0.09,-0.52 0,-0.16 -0.03,-0.32 -0.07,-0.48l-0.18 -0.6 0.5 -0.38 0 0zm-3.81 1.76l0 0.01 0 -0.01zm-1.28 -3.93l0 0 0 0 0 0zm1.67 2.62l0 0.01c0,0 0,0 0,0l0 -0.01zm0.04 -0.95c-0.02,0 -0.05,0.03 -0.08,0.03 -0.01,-0.04 -0.01,-0.07 -0.02,-0.1 0.02,-0.02 0.05,-0.01 0.07,-0.03 0.01,-0.01 0.02,-0.03 0.03,-0.05 0.02,0.02 0.02,0.04 0.04,0.05 0.02,0.02 0.04,0.01 0.06,0.03 -0.01,0.03 -0.01,0.06 -0.02,0.1 -0.03,0 -0.05,-0.03 -0.08,-0.03l0 0zm0.94 0.3l0 0zm1.09 -2.1l-0.01 -0.01 0 0 0.01 0.01 0 0zm-0.99 -0.72l0 0 0 0 0 0zm-2.05 0.34l0 0 0 0 0 0 0 0zm-0.03 -0.34l0 0 0 0 0 0zm-0.98 0.71l0 0 0 0.01 0 -0.01 0 0zm4.09 2.88l0 0z"/>
   <polygon class="fil2" points="63.95,34.34 63.95,34.34 63.95,34.34 "/>
   <path class="fil2" d="M58.06 34.78c-0.18,0.16 -0.31,0.36 -0.4,0.56 -0.09,0.21 -0.14,0.44 -0.14,0.67 0,0.24 0.05,0.49 0.16,0.72 0.11,0.23 0.28,0.44 0.49,0.6l0.5 0.38 -0.18 0.6 0 0.01c-0.05,0.15 -0.07,0.31 -0.07,0.47 0,0.23 0.05,0.47 0.14,0.67 0.14,0.31 0.35,0.55 0.61,0.72 0.26,0.17 0.57,0.27 0.92,0.27 0.16,0 0.33,-0.02 0.49,-0.07 0.16,-0.05 0.31,-0.13 0.45,-0.22l0 0 0.52 -0.36 0.51 0.36 0 0c0.14,0.09 0.3,0.17 0.46,0.22 0.16,0.05 0.33,0.07 0.49,0.07 0.22,0 0.44,-0.04 0.63,-0.12 0.3,-0.12 0.54,-0.32 0.73,-0.59 0.09,-0.12 0.17,-0.27 0.22,-0.43 0.05,-0.16 0.08,-0.34 0.08,-0.52 0,-0.16 -0.02,-0.33 -0.07,-0.48l0 0 -0.18 -0.6 0.5 -0.38c0.21,-0.16 0.38,-0.37 0.49,-0.6 0.11,-0.23 0.17,-0.48 0.16,-0.72 0,-0.21 -0.03,-0.41 -0.1,-0.59 -0.11,-0.29 -0.3,-0.55 -0.56,-0.75 -0.14,-0.1 -0.29,-0.18 -0.45,-0.23 -0.17,-0.06 -0.34,-0.09 -0.51,-0.1l-0.62 -0.01 -0.21 -0.59 0 -0.01c-0.06,-0.16 -0.15,-0.33 -0.26,-0.47 -0.17,-0.21 -0.39,-0.37 -0.61,-0.48 -0.23,-0.11 -0.47,-0.15 -0.7,-0.15 -0.32,0 -0.64,0.08 -0.93,0.27 -0.14,0.1 -0.27,0.22 -0.38,0.36 -0.11,0.14 -0.2,0.31 -0.26,0.47l0 0.01 -0.21 0.59 -0.63 0.01c-0.23,0.01 -0.46,0.06 -0.67,0.16 -0.15,0.07 -0.29,0.17 -0.41,0.28l0 0zm3.49 2.05c-0.03,0 -0.05,0.03 -0.08,0.03 -0.01,-0.04 -0.01,-0.07 -0.02,-0.1 0.02,-0.02 0.04,-0.01 0.06,-0.03 0.02,-0.01 0.02,-0.03 0.04,-0.05 0.01,0.02 0.01,0.04 0.03,0.05 0.02,0.02 0.05,0.01 0.07,0.03 -0.02,0.03 -0.02,0.06 -0.03,0.1 -0.02,0 -0.05,-0.03 -0.07,-0.03l0 0zm2.02 -1.8l0 -0.01 0 0 0 0.01 0 0zm-0.98 -0.72l0 0 0 0 0 0zm-0.03 0.34l0 0 0 0zm-2.05 -0.34l0 0 0 0 0 0zm-0.99 0.71l0 0 0 0.01 0 -0.01 0 0z"/>
   <polygon class="fil2" points="58.17,37.33 58.17,37.33 58.17,37.33 "/>
   <polygon class="fil2" points="59.14,34.34 59.14,34.34 59.14,34.34 "/>
   <path class="fil2" d="M55.64 26.61c0,-0.75 -0.62,-1.36 -1.37,-1.36l-18.18 0c-0.76,0 -1.37,0.61 -1.37,1.36 0,0.76 0.61,1.37 1.37,1.37l18.18 0c0.75,0 1.37,-0.61 1.37,-1.37l0 0z"/>
   <path class="fil2" d="M64.78 20.31l-39.21 0c-0.76,0 -1.37,0.61 -1.37,1.37 0,0.76 0.61,1.37 1.37,1.37l39.21 0c0.76,0 1.37,-0.61 1.37,-1.37 0,-0.76 -0.61,-1.37 -1.37,-1.37l0 0z"/>
   <path class="fil2" d="M36.09 47.83l18.18 0c0.75,0 1.37,-0.61 1.37,-1.37 0,-0.75 -0.62,-1.37 -1.37,-1.37l-18.18 0c-0.76,0 -1.37,0.62 -1.37,1.37 0,0.76 0.61,1.37 1.37,1.37l0 0z"/>
   <path class="fil2" d="M64.78 50.03l-39.21 0c-0.76,0 -1.37,0.61 -1.37,1.37 0,0.76 0.61,1.37 1.37,1.37l39.21 0c0.76,0 1.37,-0.61 1.37,-1.37 0,-0.76 -0.61,-1.37 -1.37,-1.37l0 0z"/>
   <path class="fil2" d="M18.5 39.1c-0.76,0 -1.37,0.62 -1.37,1.37l0 6.96c0,0.76 0.61,1.37 1.37,1.37 0.75,0 1.37,-0.61 1.37,-1.37l0 -6.96c0,-0.75 -0.62,-1.37 -1.37,-1.37l0 0z"/>
   <path class="fil2" d="M18.5 24.28c-0.76,0 -1.37,0.61 -1.37,1.37l0 6.95c0,0.76 0.61,1.37 1.37,1.37 0.75,0 1.37,-0.61 1.37,-1.37l0 -6.95c0,-0.76 -0.62,-1.37 -1.37,-1.37l0 0z"/>
  </g>
 </g>
</svg>
