<?xml version="1.0" encoding="UTF-8"?>
<!DOCTYPE svg PUBLIC "-//W3C//DTD SVG 1.1//EN" "http://www.w3.org/Graphics/SVG/1.1/DTD/svg11.dtd">
<!-- Creator: CorelDRAW 2019 (64-Bit) -->
<svg xmlns="http://www.w3.org/2000/svg" xml:space="preserve" width="500px" height="500px" version="1.1" style="shape-rendering:geometricPrecision; text-rendering:geometricPrecision; image-rendering:optimizeQuality; fill-rule:evenodd; clip-rule:evenodd"
viewBox="0 0 531.04 531.04"
 xmlns:xlink="http://www.w3.org/1999/xlink"
 xmlns:xodm="http://www.corel.com/coreldraw/odm/2003">
 <defs>
  <style type="text/css">
   <![CDATA[
    .fil2 {fill:none}
    .fil0 {fill:#BFE3F9;fill-rule:nonzero}
    .fil1 {fill:#344977;fill-rule:nonzero}
   ]]>
  </style>
 </defs>
 <g id="Warstwa_x0020_1">
  <metadata id="CorelCorpID_0Corel-Layer"/>
  <polygon class="fil0" points="469.6,171.46 283.35,171.46 283.35,334.14 469.6,334.14 "/>
  <path class="fil1" d="M121.51 139.64l0 -0.01c0,0 0,0 0.03,0l-0.03 0.01 0 0z"/>
  <polygon class="fil1" points="108.81,294.16 108.81,294.18 "/>
  <path class="fil1" d="M83.99 315.79l0 0c0,0 0,0 0.03,0l-0.03 0 0 0z"/>
  <polygon class="fil1" points="52.98,330.54 52.95,330.54 52.98,330.54 "/>
  <path class="fil1" d="M52.98 330.54c6.27,2.14 13.87,3.66 22.91,3.93l-0.05 0c1.12,0.04 2.03,0.18 2.72,0.37l0.02 0.01 1.76 0.49 -0.03 -0.01c2.69,0.78 5.44,1.16 8.16,1.16 6.54,0 12.8,-2.18 17.85,-6.01 5.05,-3.82 8.96,-9.37 10.71,-15.96l0 -0.04c0.41,-1.53 0.62,-3.11 0.62,-4.67 0,-3.15 -0.81,-6.21 -2.31,-8.92 -1.53,-2.7 -3.76,-5.05 -6.53,-6.73 -10.44,-6.29 -33.83,-18.26 -67.21,-22.63l-0.02 -0.01c-0.53,-0.07 -1.09,-0.1 -1.65,-0.1 -3.61,0 -6.89,1.48 -9.22,3.82 -2.34,2.32 -3.84,5.66 -3.84,9.26l0 9.27c0,8.25 2.59,16.09 7.14,22.54 4.54,6.44 11.1,11.54 18.97,14.23l0 0zm35.49 -13.86c-0.89,0 -1.79,-0.13 -2.72,-0.4l0 0 -1.76 -0.49c-2.61,-0.75 -5.15,-1.04 -7.49,-1.13l-0.05 0c-7.14,-0.2 -12.7,-1.38 -17.07,-2.87l0 0c-3.78,-1.31 -6.93,-3.73 -9.17,-6.91 -2.23,-3.16 -3.53,-7.02 -3.53,-11.11l0 -1.11c24.54,4.41 42.16,12.81 50.54,17.73 -0.68,1.68 -1.49,3.24 -2.87,4.3 -1.67,1.26 -3.75,1.99 -5.88,1.99l0 0z"/>
  <path class="fil1" d="M415.12 395.55l62.73 0c14.66,0 28.02,-5.96 37.6,-15.57 9.62,-9.59 15.59,-22.95 15.59,-37.61l0 -179.17c0,-14.65 -5.97,-28.01 -15.59,-37.6 -9.58,-9.61 -22.94,-15.58 -37.6,-15.58l-202.75 0c-8.18,0 -15.88,2.02 -22.84,5.35 -0.81,-0.22 -1.6,-0.5 -2.49,-0.5l-74.9 0c-20.52,0 -40.1,8.99 -53.36,24.76 -10.24,12.16 -22.33,28.83 -32.03,48.99l0 -0.01c-5.31,10.98 -13.46,20.2 -23.7,26.45l-26.79 16.34c-24.39,14.9 -38.99,41.3 -38.99,69.33 0,4.19 0.33,8.42 0.99,12.64l0 0.03c0.64,3.91 1.4,7.77 2.39,11.49l-0.03 -0.07c0.74,2.82 1.09,5.68 1.12,8.53 -0.03,1.17 -0.08,2.35 -0.2,3.52l-0.15 1.14 0 0.15c-0.21,1.77 -0.31,3.55 -0.31,5.35l0 2.55c0,0.36 -0.1,1.34 -0.31,2.89l0 -0.09c-0.1,0.68 -0.15,1.41 -0.15,2.2l0 12.6c0,4.67 1.93,8.99 5,12.06 3.06,3.06 7.37,4.99 12.05,4.98l8.15 0 0 12.48c0,7.66 3.12,14.69 8.15,19.7 5.01,5.01 12.04,8.15 19.69,8.15l71.65 0c7.67,0 14.67,-3.14 19.68,-8.15 5.03,-5.01 8.18,-12.04 8.15,-19.7l0 -12.48 79.07 0c0.94,0 1.78,-0.38 2.67,-0.63 9.57,9.54 22.88,15.48 37.49,15.48l60.75 0c5.48,0 9.9,-4.43 9.9,-9.9 0,-5.48 -4.42,-9.91 -9.9,-9.91l-60.75 0c-9.25,-0.01 -17.53,-3.72 -23.6,-9.77 -6.04,-6.08 -9.75,-14.36 -9.78,-23.6l0 -179.17c0.03,-9.24 3.74,-17.52 9.78,-23.59 6.07,-6.05 14.35,-9.77 23.6,-9.77l202.75 0c9.25,0 17.53,3.72 23.61,9.77 6.04,6.07 9.75,14.35 9.75,23.59l0 179.17c0,9.24 -3.71,17.52 -9.75,23.6 -6.08,6.05 -14.36,9.76 -23.61,9.77l-62.73 0c-5.49,0 -9.9,4.43 -9.9,9.91 0,5.47 4.41,9.9 9.9,9.9l0 0zm-254.2 -106.39l60.99 0 0 15.45 -60.99 0 0 -15.45zm-24.22 -136.78c9.42,-11.25 23.44,-17.7 38.17,-17.7l55.47 0c-5.26,8.25 -8.43,18.03 -8.43,28.52l0 25.38 -110 0c7.87,-14.4 16.88,-26.84 24.76,-36.18l0.03 -0.02 0 0zm-87.38 95.94l26.78 -16.35c9.77,-5.97 17.34,-14.35 23.77,-23.58l122.04 0 0 5.3c0,0.01 0,0.02 0,0.03l0 55.63 -66.57 0c-3.89,-0.02 -7.49,1.59 -10.06,4.15 -2.57,2.54 -4.19,6.17 -4.16,10.07l0 26.63c-0.03,3.92 1.59,7.52 4.16,10.06 2.54,2.55 6.15,4.16 10.06,4.16l66.57 0 0 25.88c0,3.6 0.33,7.12 0.81,10.59l-199.56 0 0 -9.64c0.15,-1.21 0.46,-2.87 0.46,-5.19l0 -2.55c0,-1.05 0.05,-2.08 0.18,-3.15l0.15 -1.15 0 -0.15c0.23,-1.9 0.33,-3.8 0.33,-5.71 0,-4.57 -0.61,-9.1 -1.75,-13.51l-0.03 -0.09c-0.73,-2.77 -1.37,-5.99 -1.93,-9.48 -0.51,-3.19 -0.76,-6.38 -0.76,-9.54 0,-21.14 11.05,-41.15 29.51,-52.41l0 0zm86.74 144.86c0,2.26 -0.89,4.21 -2.34,5.69 -1.49,1.46 -3.42,2.34 -5.68,2.35l-71.65 0c-2.24,-0.01 -4.2,-0.89 -5.67,-2.35 -1.47,-1.48 -2.36,-3.44 -2.36,-5.69l0 -12.48 87.7 0 0 12.48z"/>
  <path class="fil1" d="M349.72 315.94c7.11,0 12.88,-5.77 12.88,-12.87l0 -32.71 26.76 0c22.38,0 40.62,-18.22 40.62,-40.61 0,-22.4 -18.24,-40.63 -40.62,-40.63l-39.64 0c-7.11,0 -12.88,5.77 -12.88,12.88l0 101.07c0,7.1 5.77,12.87 12.88,12.87l0 0zm12.88 -101.06l26.76 0c8.21,0 14.87,6.66 14.87,14.87 0,8.21 -6.66,14.86 -14.87,14.86l-26.76 0 0 -29.73z"/>
  <path class="fil1" d="M476.61 341.14c1.83,-1.84 2.9,-4.4 2.9,-7l0 -162.68c0,-2.62 -1.07,-5.17 -2.9,-7.01 -1.85,-1.84 -4.39,-2.9 -7.01,-2.9l-186.27 0c-2.6,0 -5.16,1.06 -6.99,2.9 -1.86,1.84 -2.92,4.39 -2.92,7.01l0 162.68c0,2.6 1.06,5.16 2.92,7 1.83,1.85 4.39,2.9 6.99,2.9l186.27 0c2.62,0 5.16,-1.05 7.01,-2.9l0 0zm-16.91 -16.9l-166.44 0 0 -142.87 166.44 0 0 142.87z"/>
  <rect class="fil2" width="531.04" height="531.04"/>
 </g>
</svg>
