<?xml version="1.0" encoding="UTF-8"?>
<!DOCTYPE svg PUBLIC "-//W3C//DTD SVG 1.1//EN" "http://www.w3.org/Graphics/SVG/1.1/DTD/svg11.dtd">
<!-- Creator: CorelDRAW 2019 (64-Bit) -->
<svg xmlns="http://www.w3.org/2000/svg" xml:space="preserve" width="535px" height="500px" version="1.1" style="shape-rendering:geometricPrecision; text-rendering:geometricPrecision; image-rendering:optimizeQuality; fill-rule:evenodd; clip-rule:evenodd"
viewBox="0 0 65.05 60.79"
 xmlns:xlink="http://www.w3.org/1999/xlink"
 xmlns:xodm="http://www.corel.com/coreldraw/odm/2003">
 <defs>
  <style type="text/css">
   <![CDATA[
    .fil2 {fill:none}
    .fil1 {fill:#3F476C;fill-rule:nonzero}
    .fil0 {fill:#85C9F0;fill-rule:nonzero}
   ]]>
  </style>
 </defs>
 <g id="Warstwa_x0020_1">
  <metadata id="CorelCorpID_0Corel-Layer"/>
  <g id="_2958435438528">
   <path class="fil0" d="M19.82 50.13l29.64 0c0.11,0 0.21,-0.03 0.3,-0.08 0.19,-0.11 0.31,-0.31 0.31,-0.54l0 -6.79c0,-0.16 0,-0.32 0,-0.47 -0.01,-0.06 -0.01,-0.11 -0.01,-0.16 -0.01,-0.11 -0.01,-0.21 -0.02,-0.31 0,-0.07 -0.01,-0.13 -0.02,-0.19 0,-0.09 -0.01,-0.19 -0.02,-0.28 -0.01,-0.07 -0.02,-0.13 -0.02,-0.19 -0.02,-0.09 -0.03,-0.18 -0.04,-0.27 -0.01,-0.07 -0.02,-0.13 -0.03,-0.2 -0.01,-0.09 -0.03,-0.17 -0.04,-0.26 -0.01,-0.07 -0.03,-0.13 -0.04,-0.2 -0.01,-0.08 -0.03,-0.17 -0.05,-0.25 -0.02,-0.07 -0.03,-0.13 -0.04,-0.2 -0.02,-0.08 -0.04,-0.17 -0.07,-0.25 -0.01,-0.07 -0.03,-0.13 -0.04,-0.19 -0.03,-0.09 -0.05,-0.18 -0.08,-0.26 -0.01,-0.06 -0.03,-0.12 -0.05,-0.18 -0.03,-0.09 -0.06,-0.18 -0.09,-0.28 -0.01,-0.05 -0.03,-0.1 -0.05,-0.15 -0.04,-0.12 -0.08,-0.24 -0.12,-0.36 -0.01,-0.02 -0.02,-0.04 -0.03,-0.06 -0.05,-0.14 -0.11,-0.28 -0.17,-0.42 -0.01,-0.04 -0.03,-0.08 -0.05,-0.12 -0.04,-0.1 -0.08,-0.2 -0.13,-0.29 -0.02,-0.05 -0.05,-0.1 -0.07,-0.16 -0.04,-0.08 -0.08,-0.16 -0.12,-0.24 -0.03,-0.06 -0.06,-0.11 -0.09,-0.17 -0.04,-0.07 -0.08,-0.15 -0.12,-0.23 -0.03,-0.05 -0.06,-0.11 -0.09,-0.17 -0.03,-0.04 -0.05,-0.08 -0.07,-0.12 -0.01,-0.01 -0.02,-0.03 -0.02,-0.03 -0.11,-0.18 -0.22,-0.36 -0.33,-0.54 -0.06,-0.1 -0.13,-0.19 -0.19,-0.29 -2.39,-3.48 -6.4,-5.76 -10.94,-5.76l-4.36 0c-4.55,0 -8.55,2.28 -10.94,5.76l0 0c-0.07,0.09 -0.13,0.19 -0.19,0.28 -0.11,0.17 -0.22,0.35 -0.32,0.53 -0.01,0.01 -0.02,0.02 -0.02,0.03 -0.03,0.05 -0.05,0.09 -0.08,0.13 -0.03,0.06 -0.06,0.11 -0.09,0.17 -0.04,0.08 -0.08,0.15 -0.12,0.23 -0.03,0.06 -0.06,0.11 -0.09,0.17 -0.04,0.08 -0.08,0.16 -0.12,0.24 -0.02,0.06 -0.05,0.11 -0.07,0.16 -0.05,0.09 -0.09,0.19 -0.13,0.29 -0.02,0.04 -0.04,0.08 -0.06,0.12 -0.05,0.14 -0.11,0.28 -0.16,0.42 -0.01,0.02 -0.02,0.05 -0.03,0.07 -0.04,0.12 -0.09,0.23 -0.13,0.35 -0.01,0.05 -0.03,0.1 -0.05,0.16 -0.03,0.09 -0.06,0.18 -0.09,0.27 -0.01,0.06 -0.03,0.12 -0.05,0.18 -0.02,0.09 -0.05,0.17 -0.07,0.26 -0.02,0.06 -0.03,0.13 -0.05,0.19 -0.02,0.08 -0.04,0.17 -0.06,0.26 -0.02,0.06 -0.03,0.12 -0.04,0.19 -0.02,0.09 -0.04,0.17 -0.06,0.26 -0.01,0.06 -0.02,0.13 -0.03,0.19 -0.02,0.09 -0.03,0.18 -0.05,0.27 -0.01,0.06 -0.02,0.13 -0.03,0.19 -0.01,0.09 -0.02,0.18 -0.03,0.27 -0.01,0.07 -0.02,0.13 -0.02,0.2 -0.01,0.09 -0.02,0.18 -0.03,0.28 -0.01,0.06 -0.01,0.12 -0.02,0.18 0,0.11 -0.01,0.21 -0.01,0.32 -0.01,0.05 -0.01,0.1 -0.01,0.16 -0.01,0.15 -0.01,0.31 -0.01,0.47l0 6.79c0,0.23 0.13,0.43 0.31,0.54 0.09,0.05 0.2,0.08 0.31,0.08l0 0z"/>
   <path class="fil0" d="M34.64 26.09c4.26,0 7.71,-3.45 7.71,-7.71 0,-4.26 -3.45,-7.72 -7.71,-7.72 -4.26,0 -7.72,3.46 -7.72,7.72 0,4.26 3.46,7.71 7.72,7.71l0 0z"/>
   <path class="fil1" d="M19.38 36.7c0,0 0,0 0,0 0,-0.01 0,-0.01 0,-0.01l0 0.01 0 0z"/>
   <path class="fil1" d="M50.59 38.52c0,0 0,0.01 0,0.01 0,0 0,0 0,0l0 -0.01 0 0z"/>
   <path class="fil1" d="M5.03 50.97c0.28,0.19 0.62,0.3 0.98,0.3l13.49 0c0.07,0 0.13,-0.03 0.19,-0.04 0.05,0 0.08,0.04 0.13,0.04l11.02 0c0.63,0 1.14,-0.51 1.14,-1.14 0,-0.63 -0.51,-1.14 -1.14,-1.14l-10.5 0 0 -6.27c0,-0.14 0,-0.29 0.01,-0.43l0 0c0,-0.03 0,-0.08 0,-0.14l0 0c0.01,-0.11 0.01,-0.21 0.02,-0.29l0 -0.02c0,-0.02 0.01,-0.08 0.01,-0.15 0.01,-0.1 0.02,-0.19 0.03,-0.26l0 -0.01c0.01,-0.05 0.01,-0.1 0.02,-0.16l0 -0.02c0.01,-0.08 0.02,-0.16 0.03,-0.24 0.01,-0.05 0.02,-0.11 0.03,-0.17l0 -0.01c0.01,-0.07 0.02,-0.15 0.04,-0.24 0.01,-0.06 0.02,-0.11 0.03,-0.18 0.02,-0.07 0.03,-0.15 0.05,-0.24l0 0c0.01,-0.06 0.03,-0.11 0.04,-0.16l0 -0.01c0.02,-0.08 0.04,-0.15 0.06,-0.23l0 -0.01c0.01,-0.06 0.03,-0.12 0.04,-0.16l0 0c0.02,-0.08 0.04,-0.16 0.07,-0.24l0 0c0.02,-0.07 0.03,-0.13 0.04,-0.16l0 0c0.03,-0.08 0.06,-0.17 0.09,-0.26l0 -0.01c0.02,-0.05 0.03,-0.1 0.04,-0.13 0.04,-0.11 0.08,-0.21 0.12,-0.32l-0.01 0.01c0.02,-0.05 0.03,-0.07 0.03,-0.08 0.05,-0.13 0.1,-0.25 0.15,-0.38l0.01 -0.01c0,-0.01 0.02,-0.04 0.04,-0.1l0 0c0.04,-0.09 0.08,-0.18 0.12,-0.26l0 -0.01c0.01,-0.02 0.04,-0.07 0.07,-0.14 0.04,-0.08 0.08,-0.15 0.11,-0.23 0.02,-0.03 0.04,-0.08 0.08,-0.14l-0.01 0c0.05,-0.08 0.08,-0.15 0.12,-0.21l0 -0.01c0.02,-0.04 0.05,-0.09 0.08,-0.14l0 -0.01c0.04,-0.06 0.06,-0.09 0.07,-0.11l0.02 -0.03c0.1,-0.17 0.2,-0.34 0.3,-0.49l0 0c1.08,-1.66 2.56,-3.05 4.29,-4.01 1.74,-0.97 3.74,-1.51 5.88,-1.51l4.36 0c2.14,0 4.13,0.55 5.88,1.51 1.73,0.97 3.21,2.36 4.29,4.02 0.1,0.16 0.2,0.32 0.3,0.49l0.01 0.01c0.01,0.02 0.01,0.02 0.02,0.03 0.01,0.02 0.03,0.06 0.05,0.1 0.04,0.06 0.07,0.11 0.09,0.16 0.04,0.07 0.07,0.13 0.11,0.2l0 0.01c0.04,0.06 0.06,0.11 0.08,0.15 0.04,0.07 0.07,0.15 0.11,0.23l0 -0.01c0.03,0.06 0.05,0.1 0.07,0.15 0.04,0.08 0.07,0.17 0.11,0.25l0.01 0.02c0.02,0.05 0.04,0.09 0.04,0.1l0 0c0.06,0.13 0.11,0.26 0.16,0.38l0 0.01c0,0 0.01,0.03 0.02,0.05 0.04,0.12 0.08,0.22 0.11,0.33 0.02,0.03 0.03,0.08 0.05,0.13l0 0c0.03,0.1 0.06,0.18 0.08,0.26l0 0.01c0.02,0.04 0.03,0.09 0.05,0.15l0 0c0.02,0.09 0.05,0.17 0.06,0.23l0.01 0.02c0.01,0.04 0.02,0.09 0.04,0.16l0 0.01c0.02,0.07 0.04,0.15 0.06,0.23l-0.01 -0.01c0.02,0.06 0.03,0.12 0.04,0.18 0.02,0.08 0.04,0.16 0.05,0.24l0 -0.01c0.02,0.07 0.03,0.13 0.04,0.18l-0.01 0c0.02,0.09 0.03,0.17 0.04,0.24l0.01 0.01c0.01,0.07 0.02,0.12 0.02,0.16l0 0.03c0.01,0.06 0.02,0.14 0.04,0.24 0,0.07 0.01,0.13 0.01,0.17l0 -0.01c0.01,0.09 0.02,0.18 0.03,0.26l0 0.02c0.01,0.06 0.01,0.11 0.01,0.15l0 0.01c0.01,0.08 0.01,0.18 0.02,0.29l0 0c0,0.07 0.01,0.12 0.01,0.14l0 0c0,0.14 0,0.29 0,0.43l0 6.27 -10.49 0c-0.63,0 -1.14,0.51 -1.14,1.14 0,0.63 0.51,1.14 1.14,1.14l11.02 0c0.05,0 0.1,-0.03 0.15,-0.03 0.06,0 0.11,0.03 0.16,0.03l13.52 0c0.24,0 0.47,-0.05 0.68,-0.14 0.32,-0.14 0.59,-0.36 0.78,-0.64 0.18,-0.28 0.3,-0.62 0.3,-0.98l0 -4.41c0,-1.71 -0.35,-3.33 -0.97,-4.81 -0.94,-2.22 -2.51,-4.1 -4.48,-5.43 -1.97,-1.33 -4.35,-2.11 -6.9,-2.11l-2.87 0c-0.83,0 -1.64,0.09 -2.42,0.26 -1.05,-1.14 -2.25,-2.12 -3.61,-2.88 -2.07,-1.15 -4.45,-1.8 -6.98,-1.8l-4.36 0c-2.53,0 -4.91,0.65 -6.98,1.8 -1.36,0.75 -2.57,1.74 -3.61,2.87 -0.78,-0.16 -1.58,-0.25 -2.4,-0.25l-2.87 0c-1.7,0 -3.33,0.35 -4.8,0.97 -2.22,0.94 -4.1,2.5 -5.44,4.47 -1.33,1.97 -2.1,4.35 -2.1,6.91l0 4.41c0,0.24 0.04,0.47 0.13,0.68 0.14,0.32 0.36,0.59 0.64,0.78l0 0zm44.8 -15.94l2.87 0c1.39,0 2.72,0.28 3.92,0.79 1.8,0.76 3.34,2.04 4.43,3.65 1.08,1.61 1.72,3.54 1.72,5.63l0 3.89 -11.56 0 0 -6.27c0,-0.17 0,-0.34 -0.01,-0.51 0,-0.09 0,-0.14 0,-0.16l0 -0.02c-0.01,-0.1 -0.02,-0.21 -0.02,-0.32 0,-0.01 0,-0.01 0,-0.01 0,0 0,0 0,-0.01 -0.01,-0.07 -0.01,-0.13 -0.02,-0.19l0 0c-0.01,-0.1 -0.02,-0.2 -0.03,-0.31l0 0c-0.01,-0.08 -0.02,-0.15 -0.02,-0.21l0 -0.01c-0.01,-0.07 -0.02,-0.17 -0.04,-0.27 0,0 0,0 0,0 0,-0.01 0,-0.01 0,-0.02 -0.01,-0.08 -0.02,-0.15 -0.03,-0.21 -0.02,-0.1 -0.03,-0.19 -0.05,-0.28l0 0c-0.01,-0.07 -0.03,-0.15 -0.04,-0.21l0 -0.01c-0.02,-0.08 -0.04,-0.18 -0.06,-0.27l0 -0.01c-0.01,-0.07 -0.03,-0.13 -0.04,-0.2l0 0c-0.02,-0.1 -0.05,-0.19 -0.07,-0.29 -0.01,-0.05 -0.03,-0.11 -0.05,-0.19 0,0 0,0 0,-0.01 0,0 0,0 -0.01,0 -0.02,-0.11 -0.05,-0.2 -0.07,-0.28l0 0c-0.02,-0.05 -0.03,-0.12 -0.06,-0.19 -0.03,-0.11 -0.06,-0.21 -0.09,-0.3l0 0c-0.02,-0.05 -0.04,-0.1 -0.06,-0.16 -0.04,-0.14 -0.09,-0.27 -0.13,-0.39l-0.01 -0.02c0,0 -0.01,-0.03 -0.02,-0.06 0,0 -0.01,0 -0.01,0 0,-0.01 0,-0.01 0,-0.01 -0.06,-0.15 -0.12,-0.3 -0.18,-0.44l0 0c-0.02,-0.07 -0.05,-0.12 -0.06,-0.14 -0.04,-0.1 -0.08,-0.2 -0.13,-0.31l-0.01 -0.01c-0.02,-0.05 -0.05,-0.11 -0.07,-0.15l0 -0.01c-0.04,-0.08 -0.09,-0.17 -0.13,-0.26 -0.04,-0.07 -0.07,-0.13 -0.09,-0.18 0,0 0,0 -0.01,0 0,0 0,-0.01 0,-0.01 -0.04,-0.08 -0.08,-0.16 -0.13,-0.24l0 0c-0.04,-0.07 -0.07,-0.13 -0.09,-0.17l-0.01 -0.02c-0.01,-0.02 -0.04,-0.06 -0.06,-0.11 -0.01,-0.01 -0.01,-0.01 -0.02,-0.02l0 0c-0.01,-0.02 -0.01,-0.03 -0.02,-0.04 0,0 -0.01,-0.01 -0.01,-0.01l0 0c0,-0.01 0,-0.01 -0.01,-0.02 -0.06,-0.11 -0.13,-0.22 -0.2,-0.34 0.26,-0.02 0.52,-0.08 0.79,-0.08l0 0zm-43.3 10.07c0,-1.4 0.29,-2.72 0.79,-3.92 0.77,-1.81 2.05,-3.35 3.65,-4.43 1.61,-1.09 3.54,-1.72 5.63,-1.72l2.87 0c0.27,0 0.51,0.06 0.77,0.08 -0.07,0.12 -0.15,0.24 -0.22,0.35l0 0.01c0,0.01 -0.01,0.01 -0.01,0.02l-0.01 0c0,0.02 0,0.02 -0.01,0.03 0,0 0,0 0,0 -0.03,0.05 -0.06,0.1 -0.07,0.12l0 0c-0.03,0.05 -0.06,0.11 -0.1,0.17 0,0.01 0,0.01 0,0.01 0,0 0,0 0,0.01 -0.05,0.09 -0.09,0.17 -0.13,0.24l-0.01 0.01c-0.02,0.04 -0.05,0.1 -0.09,0.18l0 0c-0.04,0.09 -0.09,0.18 -0.13,0.26l0 0.01c-0.01,0.03 -0.04,0.08 -0.08,0.17 -0.05,0.11 -0.1,0.21 -0.14,0.31l0 0c0,0.01 -0.03,0.06 -0.05,0.12 0,0.01 -0.01,0.01 -0.01,0.01 0,0.01 0,0.01 0,0.01 -0.06,0.15 -0.12,0.29 -0.18,0.44l0 0.01c-0.01,0.03 -0.02,0.04 -0.02,0.05l0 0.01 -0.01 0.01c-0.04,0.13 -0.09,0.25 -0.13,0.38l-0.01 0.01c-0.02,0.06 -0.04,0.12 -0.05,0.16 -0.03,0.09 -0.06,0.19 -0.1,0.3 -0.02,0.08 -0.04,0.14 -0.05,0.19l0 0c-0.03,0.09 -0.06,0.19 -0.08,0.29 -0.02,0.08 -0.04,0.14 -0.05,0.2 0,0 -0.01,0 -0.01,0.01l0 0c-0.02,0.09 -0.04,0.18 -0.06,0.27l0 -0.01c-0.02,0.08 -0.03,0.15 -0.05,0.23l0 0c-0.02,0.08 -0.04,0.17 -0.06,0.27l0 0.01c-0.01,0.06 -0.02,0.13 -0.04,0.21 -0.01,0.08 -0.03,0.18 -0.04,0.28 -0.01,0.06 -0.02,0.13 -0.04,0.21l0 0.01c-0.01,0.09 -0.02,0.19 -0.03,0.29 -0.01,0.07 -0.02,0.13 -0.03,0.2 -0.01,0.12 -0.02,0.22 -0.03,0.31l0 0.01c0,0.04 -0.01,0.1 -0.01,0.19 0,0 0,0 0,0.01 0,0 0,0 0,0 -0.01,0.12 -0.02,0.23 -0.02,0.33l0 0.02c0,0.02 -0.01,0.07 -0.01,0.15 -0.01,0.18 -0.01,0.35 -0.01,0.52l0 6.27 -11.53 0 0 -3.89z"/>
   <path class="fil1" d="M39.59 11.04c-1.41,-0.96 -3.12,-1.52 -4.95,-1.52 -1.22,0 -2.39,0.25 -3.45,0.7 -1.59,0.67 -2.94,1.79 -3.89,3.21 -0.96,1.41 -1.52,3.12 -1.51,4.95 -0.01,1.22 0.24,2.38 0.69,3.44 0.67,1.59 1.79,2.94 3.21,3.9 1.41,0.95 3.12,1.51 4.95,1.51 1.22,0 2.38,-0.25 3.44,-0.7 1.59,-0.67 2.94,-1.79 3.9,-3.2 0.95,-1.41 1.51,-3.12 1.51,-4.95 0,-1.22 -0.25,-2.39 -0.7,-3.45 -0.67,-1.59 -1.79,-2.94 -3.2,-3.89l0 0zm1.1 9.89c-0.5,1.18 -1.33,2.19 -2.38,2.9 -1.05,0.71 -2.31,1.12 -3.67,1.12 -0.91,0 -1.78,-0.18 -2.56,-0.52 -1.18,-0.49 -2.18,-1.33 -2.89,-2.38 -0.71,-1.05 -1.13,-2.31 -1.13,-3.67 0,-0.91 0.19,-1.78 0.52,-2.56 0.5,-1.18 1.33,-2.19 2.38,-2.89 1.05,-0.71 2.31,-1.13 3.68,-1.13 0.91,0 1.77,0.19 2.55,0.52 1.18,0.5 2.19,1.33 2.9,2.38 0.71,1.05 1.12,2.31 1.12,3.68 0,0.91 -0.18,1.77 -0.52,2.55l0 0z"/>
   <path class="fil1" d="M20.52 18.42c-1.11,-0.75 -2.44,-1.18 -3.87,-1.18 -0.95,0 -1.86,0.19 -2.69,0.54 -1.24,0.53 -2.3,1.4 -3.04,2.5 -0.75,1.11 -1.18,2.44 -1.18,3.87 0,0.95 0.19,1.86 0.54,2.69 0.53,1.24 1.4,2.3 2.51,3.04 1.1,0.75 2.43,1.18 3.86,1.18 0.95,0 1.86,-0.19 2.69,-0.54 1.24,-0.53 2.3,-1.4 3.04,-2.5 0.75,-1.11 1.18,-2.44 1.18,-3.87 0,-0.95 -0.19,-1.86 -0.54,-2.69 -0.53,-1.24 -1.4,-2.3 -2.5,-3.04l0 0zm0.4 7.53c-0.35,0.83 -0.94,1.54 -1.68,2.04 -0.74,0.5 -1.62,0.79 -2.59,0.79 -0.64,0 -1.25,-0.12 -1.8,-0.36 -0.83,-0.35 -1.54,-0.94 -2.04,-1.68 -0.5,-0.74 -0.79,-1.63 -0.79,-2.59 0,-0.64 0.13,-1.25 0.36,-1.8 0.35,-0.83 0.94,-1.54 1.68,-2.04 0.74,-0.5 1.63,-0.79 2.59,-0.79 0.64,0 1.25,0.13 1.81,0.36 0.82,0.35 1.53,0.94 2.03,1.68 0.5,0.74 0.79,1.63 0.79,2.59 0,0.64 -0.12,1.25 -0.36,1.8l0 0z"/>
   <path class="fil1" d="M56.5 18.42c-1.11,-0.75 -2.44,-1.18 -3.87,-1.18 -0.95,0 -1.86,0.19 -2.69,0.54 -1.24,0.53 -2.3,1.4 -3.04,2.5 -0.75,1.11 -1.18,2.44 -1.18,3.87 0,0.95 0.19,1.86 0.54,2.69 0.53,1.24 1.4,2.3 2.5,3.04 1.11,0.75 2.44,1.18 3.87,1.18 0.95,0 1.86,-0.19 2.69,-0.54 1.24,-0.53 2.3,-1.4 3.04,-2.5 0.75,-1.11 1.18,-2.44 1.18,-3.87 0,-0.95 -0.19,-1.86 -0.54,-2.69 -0.53,-1.24 -1.4,-2.3 -2.5,-3.04l0 0zm0.4 7.53c-0.35,0.83 -0.94,1.54 -1.68,2.04 -0.74,0.5 -1.63,0.79 -2.59,0.79 -0.64,0 -1.25,-0.12 -1.8,-0.36 -0.83,-0.35 -1.54,-0.94 -2.04,-1.68 -0.5,-0.74 -0.79,-1.63 -0.79,-2.59 0,-0.64 0.12,-1.25 0.36,-1.8 0.35,-0.83 0.94,-1.54 1.68,-2.04 0.74,-0.5 1.63,-0.79 2.59,-0.79 0.64,0 1.25,0.13 1.8,0.36 0.83,0.35 1.54,0.94 2.04,1.68 0.5,0.74 0.79,1.63 0.79,2.59 0,0.64 -0.13,1.25 -0.36,1.8l0 0z"/>
  </g>
  <rect class="fil2" width="60.79" height="60.79"/>
  <rect class="fil2" x="4.26" width="60.79" height="60.79"/>
 </g>
</svg>
