<?xml version="1.0" encoding="UTF-8"?>
<!DOCTYPE svg PUBLIC "-//W3C//DTD SVG 1.1//EN" "http://www.w3.org/Graphics/SVG/1.1/DTD/svg11.dtd">
<!-- Creator: CorelDRAW 2019 (64-Bit) -->
<svg xmlns="http://www.w3.org/2000/svg" xml:space="preserve" width="500px" height="500px" version="1.1" style="shape-rendering:geometricPrecision; text-rendering:geometricPrecision; image-rendering:optimizeQuality; fill-rule:evenodd; clip-rule:evenodd"
viewBox="0 0 59.03 59.03"
 xmlns:xlink="http://www.w3.org/1999/xlink"
 xmlns:xodm="http://www.corel.com/coreldraw/odm/2003">
 <defs>
  <style type="text/css">
   <![CDATA[
    .fil0 {fill:none}
    .fil1 {fill:#BFE3F9;fill-rule:nonzero}
    .fil2 {fill:#3F476C;fill-rule:nonzero}
   ]]>
  </style>
 </defs>
 <g id="Warstwa_x0020_1">
  <metadata id="CorelCorpID_0Corel-Layer"/>
  <rect class="fil0" width="59.03" height="59.03"/>
  <g id="_2958303824352">
   <path class="fil1" d="M41.8 58.02l15.42 0c0.45,0 0.82,-0.36 0.82,-0.82l0 -45.65c0,-0.45 -0.37,-0.82 -0.82,-0.82l-13.93 0 -1.49 47.29 0 0zm5.79 -42.9c0,-0.23 0.19,-0.41 0.41,-0.41l4.07 0c0.22,0 0.41,0.18 0.41,0.41l0 7.78c0,0.23 -0.19,0.41 -0.41,0.41l-4.07 0c-0.22,0 -0.41,-0.18 -0.41,-0.41l0 -7.78zm0 12.16c0,-0.23 0.19,-0.41 0.41,-0.41l4.07 0c0.22,0 0.41,0.18 0.41,0.41l0 7.78c0,0.23 -0.19,0.41 -0.41,0.41l-4.07 0c-0.22,0 -0.41,-0.18 -0.41,-0.41l0 -7.78zm0 12.39c0,-0.23 0.19,-0.41 0.41,-0.41l4.07 0c0.22,0 0.41,0.18 0.41,0.41l0 7.78c0,0.23 -0.19,0.41 -0.41,0.41l-4.07 0c-0.22,0 -0.41,-0.18 -0.41,-0.41l0 -7.78z"/>
   <path class="fil2" d="M27.78 16.11l3.46 0c0.19,0 0.38,-0.04 0.55,-0.11 0.25,-0.1 0.46,-0.28 0.61,-0.5 0.15,-0.22 0.24,-0.5 0.24,-0.78l0 -3.47c0,-0.19 -0.04,-0.37 -0.11,-0.54 -0.1,-0.25 -0.28,-0.46 -0.5,-0.62 -0.22,-0.15 -0.5,-0.24 -0.79,-0.24l-3.46 0c-0.19,0 -0.37,0.04 -0.54,0.12 -0.25,0.1 -0.47,0.28 -0.62,0.5 -0.15,0.22 -0.24,0.5 -0.24,0.78l0 3.47c0,0.19 0.04,0.37 0.11,0.54 0.11,0.25 0.29,0.46 0.51,0.61 0.22,0.15 0.5,0.24 0.78,0.24l0 0zm2.89 -1.97l-2.32 0 0 -2.32 2.32 0 0 2.32z"/>
   <path class="fil2" d="M19.26 27.89c0.22,0.15 0.5,0.24 0.78,0.24l3.47 0c0.19,0 0.37,-0.04 0.54,-0.11 0.25,-0.11 0.46,-0.28 0.61,-0.51 0.16,-0.22 0.24,-0.49 0.24,-0.78l0 -3.46c0,-0.19 -0.04,-0.38 -0.11,-0.54 -0.1,-0.26 -0.28,-0.47 -0.5,-0.62 -0.22,-0.15 -0.5,-0.24 -0.78,-0.24l-3.47 0c-0.19,0 -0.37,0.04 -0.54,0.11 -0.25,0.11 -0.47,0.29 -0.62,0.51 -0.15,0.22 -0.24,0.49 -0.24,0.78l0 3.46c0,0.19 0.04,0.38 0.12,0.55 0.1,0.25 0.28,0.46 0.5,0.61l0 0zm3.68 -1.73l-2.33 0 0 -2.32 2.33 0 0 2.32z"/>
   <path class="fil2" d="M19.27 39.91c0.23,0.15 0.5,0.24 0.79,0.24l3.46 0c0.19,0 0.37,-0.04 0.54,-0.11 0.25,-0.11 0.46,-0.29 0.62,-0.51 0.15,-0.22 0.24,-0.5 0.24,-0.78l0 -3.46c0,-0.19 -0.04,-0.38 -0.11,-0.55 -0.11,-0.25 -0.29,-0.46 -0.51,-0.61 -0.22,-0.15 -0.5,-0.24 -0.78,-0.24l-3.46 0c-0.19,0 -0.38,0.04 -0.55,0.11 -0.25,0.11 -0.46,0.28 -0.61,0.5 -0.16,0.23 -0.24,0.5 -0.24,0.79l0 3.46c0,0.19 0.03,0.38 0.11,0.54 0.1,0.26 0.28,0.47 0.5,0.62l0 0zm3.68 -1.73l-2.33 0 0 -2.32 2.33 0 0 2.32z"/>
   <path class="fil2" d="M24.92 11.25c0,-0.19 -0.04,-0.37 -0.11,-0.54 -0.11,-0.25 -0.29,-0.46 -0.51,-0.62 -0.22,-0.15 -0.5,-0.24 -0.78,-0.24l-3.46 0c-0.19,0 -0.38,0.04 -0.55,0.12 -0.25,0.1 -0.46,0.28 -0.61,0.5 -0.16,0.22 -0.24,0.5 -0.24,0.78l0 3.47c0,0.19 0.03,0.37 0.11,0.54 0.1,0.25 0.28,0.46 0.5,0.61 0.23,0.15 0.5,0.24 0.79,0.24l3.46 0c0.19,0 0.37,-0.04 0.54,-0.11 0.25,-0.1 0.46,-0.28 0.62,-0.5 0.15,-0.22 0.24,-0.5 0.24,-0.78l0 -3.47zm-4.3 0.57l2.33 0 0 2.32 -2.33 0 0 -2.32z"/>
   <polygon class="fil2" points="20.79,1.38 20.79,1.38 20.79,1.38 "/>
   <path class="fil2" d="M26.37 26.73c0,0.19 0.04,0.38 0.11,0.55 0.11,0.25 0.29,0.46 0.51,0.61 0.22,0.15 0.49,0.24 0.78,0.24l3.46 0c0.19,0 0.38,-0.04 0.55,-0.11 0.25,-0.11 0.46,-0.28 0.61,-0.51 0.15,-0.22 0.24,-0.49 0.24,-0.78l0 -3.46c0,-0.19 -0.04,-0.38 -0.11,-0.54 -0.11,-0.26 -0.28,-0.47 -0.5,-0.62 -0.23,-0.15 -0.5,-0.24 -0.79,-0.24l-3.46 0c-0.19,0 -0.38,0.04 -0.55,0.11 -0.25,0.11 -0.46,0.29 -0.61,0.51 -0.15,0.22 -0.24,0.49 -0.24,0.78l0 3.46zm4.29 -0.57l-2.32 0 0 -2.32 2.32 0 0 2.32z"/>
   <path class="fil2" d="M34.1 26.73c0,0.19 0.04,0.38 0.11,0.55 0.11,0.25 0.28,0.46 0.51,0.61 0.22,0.15 0.49,0.24 0.78,0.24l3.46 0c0.19,0 0.38,-0.04 0.54,-0.11 0.26,-0.11 0.47,-0.28 0.62,-0.51 0.15,-0.22 0.24,-0.49 0.24,-0.78l0 -3.46c0,-0.19 -0.04,-0.38 -0.11,-0.54 -0.11,-0.26 -0.28,-0.47 -0.51,-0.62 -0.22,-0.15 -0.49,-0.24 -0.78,-0.24l-3.46 0c-0.19,0 -0.38,0.04 -0.55,0.11 -0.25,0.11 -0.46,0.29 -0.61,0.51 -0.15,0.22 -0.24,0.49 -0.24,0.78l0 3.46zm4.29 -0.57l-2.32 0 0 -2.32 2.32 0 0 2.32z"/>
   <path class="fil2" d="M27 39.91c0.22,0.15 0.5,0.24 0.78,0.24l3.46 0c0.19,0 0.38,-0.04 0.55,-0.11 0.25,-0.11 0.46,-0.29 0.61,-0.51 0.15,-0.22 0.24,-0.5 0.24,-0.78l0 -3.46c0,-0.19 -0.04,-0.38 -0.11,-0.55 -0.1,-0.25 -0.28,-0.46 -0.5,-0.61 -0.22,-0.15 -0.5,-0.24 -0.79,-0.24l-3.46 0c-0.19,0 -0.37,0.04 -0.54,0.11 -0.25,0.11 -0.47,0.28 -0.62,0.5 -0.15,0.23 -0.24,0.5 -0.24,0.79l0 3.46c0,0.19 0.04,0.38 0.11,0.54 0.11,0.26 0.29,0.47 0.51,0.62l0 0zm3.67 -1.73l-2.32 0 0 -2.32 2.32 0 0 2.32z"/>
   <polygon class="fil2" points="38.21,1.38 38.21,1.38 38.21,1.38 "/>
   <path class="fil2" d="M35.51 16.11l3.46 0c0.19,0 0.38,-0.04 0.54,-0.11 0.26,-0.1 0.47,-0.28 0.62,-0.5 0.15,-0.22 0.24,-0.5 0.24,-0.78l0 -3.47c0,-0.19 -0.04,-0.37 -0.11,-0.54 -0.11,-0.25 -0.28,-0.46 -0.51,-0.62 -0.22,-0.15 -0.49,-0.24 -0.78,-0.24l-3.46 0c-0.19,0 -0.38,0.04 -0.55,0.12 -0.25,0.1 -0.46,0.28 -0.61,0.5 -0.15,0.22 -0.24,0.5 -0.24,0.78l0 3.47c0,0.18 0.04,0.37 0.11,0.54 0.11,0.25 0.28,0.46 0.51,0.61 0.22,0.15 0.49,0.24 0.78,0.24l0 0zm2.89 -1.97l-2.32 0 0 -2.32 2.32 0 0 2.32z"/>
   <path class="fil2" d="M39.75 34.13c-0.22,-0.15 -0.49,-0.24 -0.78,-0.24l-3.46 0c-0.19,0 -0.38,0.04 -0.55,0.11 -0.25,0.11 -0.46,0.28 -0.61,0.5 -0.15,0.23 -0.24,0.5 -0.24,0.79l0 3.46c0,0.19 0.04,0.38 0.11,0.54 0.11,0.26 0.28,0.47 0.51,0.62 0.22,0.15 0.49,0.24 0.78,0.24l3.46 0c0.19,0 0.38,-0.04 0.54,-0.11 0.26,-0.11 0.47,-0.29 0.62,-0.51 0.15,-0.22 0.24,-0.5 0.24,-0.78l0 -3.46c0,-0.19 -0.04,-0.38 -0.11,-0.55 -0.11,-0.25 -0.28,-0.46 -0.51,-0.61l0 0zm-1.35 4.05l-2.32 0 0 -2.32 2.32 0 0 2.32z"/>
   <path class="fil2" d="M0.82 58.69c0.29,0.2 0.65,0.32 1.03,0.32l14.43 0c0.06,0 0.11,-0.03 0.17,-0.04 0.08,0.01 0.15,0.04 0.22,0.04l9.57 0c0.54,0 0.98,-0.44 0.98,-0.99 0,-0.54 -0.44,-0.98 -0.98,-0.98l-9.4 0 0 -52.1 4.09 0 17.14 0 3.86 0 0 52.1 -9.13 0c-0.54,0 -0.98,0.44 -0.98,0.98 0,0.55 0.44,0.99 0.98,0.99l24.42 0c0.25,0 0.49,-0.05 0.7,-0.14 0.33,-0.14 0.6,-0.37 0.8,-0.66 0.19,-0.28 0.31,-0.64 0.31,-1.01l0 -45.65c0,-0.25 -0.05,-0.49 -0.15,-0.7 -0.13,-0.33 -0.36,-0.6 -0.65,-0.8 -0.28,-0.19 -0.64,-0.3 -1.01,-0.3l-13.32 0 0 -4.97c0,-0.25 -0.05,-0.49 -0.14,-0.71 -0.14,-0.32 -0.37,-0.59 -0.65,-0.79 -0.29,-0.19 -0.64,-0.31 -1.01,-0.31l-3.33 0 -0.56 -1.59c-0.14,-0.41 -0.4,-0.75 -0.74,-0.98 -0.33,-0.24 -0.74,-0.38 -1.17,-0.38l-13.6 0c-0.43,0 -0.84,0.14 -1.17,0.38 -0.34,0.23 -0.6,0.57 -0.74,0.98l-0.56 1.59 -3.56 0c-0.24,0 -0.48,0.05 -0.7,0.15 -0.33,0.13 -0.6,0.36 -0.79,0.65 -0.2,0.28 -0.31,0.64 -0.31,1.01l0 11.01 -13.02 0c-0.25,0 -0.5,0.05 -0.72,0.15 -0.33,0.14 -0.61,0.37 -0.81,0.67 -0.2,0.3 -0.32,0.66 -0.32,1.04l0 39.5c0,0.25 0.05,0.5 0.15,0.72 0.14,0.34 0.37,0.62 0.67,0.82l0 0zm14.05 -1.65l-12.9 0 0 -39.28 12.9 0 0 39.28zm29.03 -45.33l13.16 0 0 45.33 -13.16 0 0 -45.33zm-21.25 -9.68c0,-0.01 0.01,-0.02 0.02,-0.03 0.01,-0.01 0.02,-0.01 0.03,-0.01l13.6 0c0.01,0 0.02,0 0.03,0.01 0.01,0.01 0.02,0.02 0.02,0.03l0.01 0 0.33 0.94 -14.37 0 0.33 -0.94 0 0z"/>
   <path class="fil2" d="M5.93 41.87c0.22,0.15 0.5,0.24 0.78,0.24l4.07 0c0.19,0 0.37,-0.04 0.54,-0.11 0.25,-0.11 0.46,-0.28 0.61,-0.5 0.15,-0.23 0.24,-0.5 0.24,-0.78l0 -7.79c0,-0.19 -0.04,-0.37 -0.11,-0.54 -0.1,-0.25 -0.28,-0.46 -0.5,-0.61 -0.22,-0.15 -0.5,-0.24 -0.78,-0.24l-4.07 0c-0.19,0 -0.37,0.04 -0.54,0.11 -0.25,0.11 -0.46,0.28 -0.61,0.5 -0.15,0.22 -0.24,0.5 -0.24,0.78l0 7.79c0,0.19 0.04,0.37 0.11,0.54 0.11,0.25 0.28,0.46 0.5,0.61l0 0zm4.27 -1.73l-2.91 0 0 -6.63 2.91 0 0 6.63z"/>
   <path class="fil2" d="M5.43 53.54c0.11,0.25 0.28,0.46 0.5,0.61 0.23,0.15 0.5,0.24 0.78,0.24l4.07 0c0.19,0 0.37,-0.04 0.54,-0.11 0.25,-0.1 0.46,-0.28 0.61,-0.5 0.15,-0.22 0.24,-0.5 0.24,-0.78l0 -7.78c0,-0.19 -0.04,-0.38 -0.11,-0.55 -0.1,-0.25 -0.28,-0.46 -0.5,-0.61 -0.22,-0.15 -0.5,-0.24 -0.78,-0.24l-4.07 0c-0.18,0 -0.37,0.04 -0.54,0.11 -0.25,0.11 -0.46,0.28 -0.61,0.5 -0.15,0.23 -0.24,0.5 -0.24,0.79l0 7.78c0,0.19 0.04,0.37 0.11,0.54l0 0zm4.77 -1.12l-2.91 0 0 -6.63 2.91 0 0 6.63z"/>
   <path class="fil2" d="M5.93 30.06c0.23,0.15 0.5,0.23 0.78,0.23l4.07 0c0.19,0 0.37,-0.03 0.54,-0.11 0.25,-0.1 0.46,-0.28 0.61,-0.5 0.15,-0.22 0.24,-0.5 0.24,-0.78l0 -7.78c0,-0.19 -0.04,-0.38 -0.11,-0.55 -0.1,-0.25 -0.28,-0.46 -0.5,-0.61 -0.22,-0.15 -0.5,-0.24 -0.78,-0.24l-4.07 0c-0.18,0 -0.37,0.04 -0.54,0.11 -0.25,0.11 -0.46,0.28 -0.61,0.51 -0.15,0.22 -0.24,0.49 -0.24,0.78l0 7.78c0,0.19 0.04,0.37 0.11,0.54 0.11,0.25 0.28,0.46 0.5,0.62l0 0zm4.27 -1.74l-2.91 0 0 -6.63 2.91 0 0 6.63z"/>
   <path class="fil2" d="M52.85 38.51c-0.22,-0.15 -0.5,-0.24 -0.78,-0.23l-4.07 0c-0.19,-0.01 -0.37,0.03 -0.54,0.1 -0.25,0.11 -0.46,0.29 -0.61,0.51 -0.15,0.22 -0.24,0.49 -0.24,0.78l0 7.78c0,0.19 0.04,0.38 0.11,0.55 0.11,0.25 0.28,0.46 0.5,0.61 0.23,0.15 0.5,0.24 0.78,0.24l4.07 0c0.19,0 0.37,-0.04 0.54,-0.11 0.25,-0.11 0.46,-0.29 0.61,-0.51 0.15,-0.22 0.24,-0.49 0.24,-0.78l0 -7.78c0,-0.19 -0.04,-0.38 -0.11,-0.54 -0.1,-0.26 -0.28,-0.47 -0.5,-0.62l0 0zm-1.36 8.37l-2.91 0 0 -6.64 2.91 0 0 6.64z"/>
   <path class="fil2" d="M53.35 14.58c-0.1,-0.26 -0.28,-0.47 -0.5,-0.62 -0.22,-0.15 -0.5,-0.24 -0.78,-0.23l-4.07 0c-0.19,0 -0.37,0.03 -0.54,0.11 -0.25,0.1 -0.46,0.28 -0.61,0.5 -0.15,0.22 -0.24,0.49 -0.24,0.78l0 7.78c0,0.19 0.04,0.38 0.11,0.55 0.11,0.25 0.28,0.46 0.5,0.61 0.23,0.15 0.5,0.24 0.78,0.24l4.07 0c0.19,0 0.37,-0.04 0.54,-0.11 0.25,-0.11 0.46,-0.28 0.61,-0.51 0.15,-0.22 0.24,-0.49 0.24,-0.78l0 -7.78c0,-0.19 -0.04,-0.38 -0.11,-0.54l0 0zm-4.77 1.11l2.91 0 0 6.64 -2.91 0 0 -6.64z"/>
   <path class="fil2" d="M52.85 26.12c-0.22,-0.15 -0.5,-0.24 -0.78,-0.24l-4.07 0c-0.19,0 -0.37,0.04 -0.54,0.11 -0.25,0.11 -0.46,0.29 -0.61,0.51 -0.15,0.22 -0.24,0.49 -0.24,0.78l0 7.78c0,0.19 0.04,0.38 0.11,0.55 0.11,0.25 0.28,0.46 0.5,0.61 0.23,0.15 0.5,0.24 0.78,0.24l4.07 0c0.19,0 0.37,-0.04 0.54,-0.11 0.25,-0.11 0.46,-0.29 0.61,-0.51 0.15,-0.22 0.24,-0.49 0.24,-0.78l0 -7.78c0,-0.19 -0.04,-0.38 -0.11,-0.54 -0.1,-0.26 -0.28,-0.47 -0.5,-0.62l0 0zm-4.27 1.73l2.91 0 0 6.64 -2.91 0 0 -6.64z"/>
  </g>
 </g>
</svg>
