<?xml version="1.0" encoding="UTF-8"?>
<!DOCTYPE svg PUBLIC "-//W3C//DTD SVG 1.1//EN" "http://www.w3.org/Graphics/SVG/1.1/DTD/svg11.dtd">
<!-- Creator: CorelDRAW 2019 (64-Bit) -->
<svg xmlns="http://www.w3.org/2000/svg" xml:space="preserve" width="500px" height="500px" version="1.1" style="shape-rendering:geometricPrecision; text-rendering:geometricPrecision; image-rendering:optimizeQuality; fill-rule:evenodd; clip-rule:evenodd"
viewBox="0 0 56.75 56.75"
 xmlns:xlink="http://www.w3.org/1999/xlink"
 xmlns:xodm="http://www.corel.com/coreldraw/odm/2003">
 <defs>
  <style type="text/css">
   <![CDATA[
    .fil2 {fill:none}
    .fil0 {fill:#BFE3F9;fill-rule:nonzero}
    .fil1 {fill:#3F476C;fill-rule:nonzero}
   ]]>
  </style>
 </defs>
 <g id="Warstwa_x0020_1">
  <metadata id="CorelCorpID_0Corel-Layer"/>
  <g id="_2994525493472">
   <path class="fil0" d="M44.52 40.98c-2.81,0 -5.09,2.28 -5.09,5.08 0,2.81 2.28,5.09 5.09,5.09 2.81,0 5.08,-2.28 5.08,-5.09 0,-2.8 -2.27,-5.08 -5.08,-5.08l0 0z"/>
   <path class="fil0" d="M23.53 40.98c-2.8,0 -5.08,2.28 -5.08,5.08 0,2.81 2.28,5.09 5.08,5.09 2.81,0 5.09,-2.28 5.09,-5.09 0,-2.8 -2.28,-5.08 -5.09,-5.08l0 0z"/>
   <path class="fil1" d="M55.6 12.03c-0.41,-0.27 -0.92,-0.44 -1.45,-0.43l-33.22 0c-0.53,0 -0.97,0.43 -0.97,0.97 0,0.53 0.44,0.97 0.97,0.97l33.22 0c0.1,0 0.19,0.02 0.27,0.05 0.12,0.05 0.22,0.13 0.28,0.23 0.07,0.1 0.11,0.21 0.11,0.32 0,0.03 0,0.06 -0.01,0.1l-4.47 19.69 -0.01 0.04c-0.01,0.08 -0.03,0.14 -0.07,0.2 -0.05,0.09 -0.13,0.17 -0.23,0.22 -0.1,0.06 -0.22,0.09 -0.35,0.09l-34.67 0 -4.4 -20.94 3.86 0c0.54,0 0.97,-0.44 0.97,-0.97 0,-0.54 -0.43,-0.97 -0.97,-0.97l-4.27 0 -0.95 -4.54c-0.08,-0.39 -0.38,-0.68 -0.77,-0.76l-7.32 -1.37c-0.53,-0.09 -1.03,0.25 -1.13,0.78 -0.1,0.53 0.24,1.03 0.77,1.13l0 0 6.68 1.25 6.76 32.16c0.13,0.63 0.48,1.18 0.95,1.57 0.47,0.38 1.08,0.61 1.73,0.61l2.04 0c-0.05,0.06 -0.11,0.09 -0.16,0.15 -0.36,0.48 -0.66,1.03 -0.86,1.61 -0.2,0.59 -0.31,1.22 -0.31,1.87 0,0.8 0.16,1.56 0.45,2.25 0.44,1.03 1.17,1.91 2.09,2.53 0.92,0.63 2.03,0.99 3.22,0.99 0.8,0 1.56,-0.16 2.25,-0.45 1.03,-0.44 1.91,-1.17 2.53,-2.09 0.63,-0.92 0.99,-2.04 0.99,-3.23 0,-0.65 -0.11,-1.28 -0.31,-1.87 -0.23,-0.65 -0.6,-1.23 -1.02,-1.75l12.24 0.01c-0.05,0.06 -0.12,0.1 -0.16,0.16 -0.36,0.48 -0.65,1.02 -0.85,1.6 -0.2,0.58 -0.3,1.21 -0.3,1.85 0,0.8 0.16,1.56 0.45,2.25 0.44,1.03 1.17,1.91 2.09,2.53 0.92,0.63 2.03,0.99 3.22,0.99 0.8,0 1.56,-0.16 2.25,-0.45 1.03,-0.44 1.91,-1.17 2.53,-2.09 0.63,-0.92 0.99,-2.04 0.99,-3.23 0,-0.64 -0.11,-1.26 -0.31,-1.85 -0.22,-0.65 -0.58,-1.23 -1.01,-1.75l2.39 0 0 0c0.54,0 0.97,-0.44 0.97,-0.97 0,-0.54 -0.43,-0.97 -0.97,-0.97l0 0 -5.42 -0.01 -2.83 0 -18.36 -0.02 -2.7 0 0 0 -5.13 0c-0.19,0 -0.36,-0.07 -0.5,-0.18 -0.14,-0.11 -0.24,-0.27 -0.28,-0.46l-0.72 -3.43 34.26 0c0.63,0 1.21,-0.21 1.66,-0.58 0.23,-0.19 0.43,-0.41 0.59,-0.67 0.14,-0.24 0.24,-0.52 0.3,-0.81l0.01 0 4.47 -19.73 0.01 -0.04c0.02,-0.15 0.04,-0.3 0.04,-0.45 0,-0.35 -0.08,-0.69 -0.21,-0.99 -0.2,-0.46 -0.53,-0.85 -0.94,-1.12l0 0zm-28.69 35.52c-0.29,0.69 -0.78,1.27 -1.39,1.69 -0.61,0.41 -1.34,0.65 -2.14,0.65 -0.53,0 -1.03,-0.11 -1.48,-0.3 -0.69,-0.29 -1.27,-0.78 -1.69,-1.39 -0.41,-0.61 -0.65,-1.34 -0.65,-2.14 0,-0.43 0.07,-0.85 0.21,-1.24 0.38,-1.13 1.3,-2.02 2.45,-2.39l2.33 0.01c0.75,0.24 1.41,0.69 1.88,1.31 0.25,0.33 0.44,0.69 0.57,1.07 0.14,0.39 0.21,0.81 0.21,1.24 0,0.54 -0.11,1.04 -0.3,1.49l0 0zm21.13 0c-0.29,0.69 -0.78,1.27 -1.39,1.69 -0.61,0.41 -1.34,0.65 -2.14,0.65 -0.53,0 -1.03,-0.11 -1.49,-0.3 -0.68,-0.29 -1.27,-0.78 -1.68,-1.39 -0.41,-0.61 -0.65,-1.34 -0.65,-2.14 0,-0.43 0.07,-0.84 0.2,-1.22 0.38,-1.13 1.28,-2.01 2.4,-2.39l2.44 0c0.74,0.25 1.39,0.71 1.85,1.33 0.23,0.31 0.43,0.67 0.56,1.06 0.13,0.38 0.2,0.79 0.2,1.22 0,0.54 -0.11,1.04 -0.3,1.49l0 0z"/>
   <path class="fil1" d="M21.99 24.97l23.52 0c0.54,0 0.97,-0.43 0.97,-0.97 0,-0.53 -0.43,-0.97 -0.97,-0.97l-23.52 0c-0.54,0 -0.97,0.44 -0.97,0.97 0,0.54 0.43,0.97 0.97,0.97l0 0z"/>
   <path class="fil1" d="M21.99 18.74l23.52 0c0.54,0 0.97,-0.44 0.97,-0.97 0,-0.54 -0.43,-0.97 -0.97,-0.97l-23.52 0c-0.54,0 -0.97,0.43 -0.97,0.97 0,0.53 0.43,0.97 0.97,0.97l0 0z"/>
   <path class="fil1" d="M21.99 31.21l23.52 0c0.54,0 0.97,-0.44 0.97,-0.97 0,-0.54 -0.43,-0.98 -0.97,-0.98l-23.52 0c-0.54,0 -0.97,0.44 -0.97,0.98 0,0.53 0.43,0.97 0.97,0.97l0 0z"/>
   <path class="fil1" d="M23.38 44.65c-0.78,0 -1.41,0.64 -1.41,1.41 0,0.79 0.63,1.42 1.41,1.42 0.78,0 1.42,-0.63 1.42,-1.42 0,-0.77 -0.64,-1.41 -1.42,-1.41l0 0z"/>
   <path class="fil1" d="M44.51 44.65c-0.78,0 -1.41,0.64 -1.41,1.41 0,0.79 0.63,1.42 1.41,1.42 0.78,0 1.42,-0.63 1.42,-1.42 0,-0.77 -0.64,-1.41 -1.42,-1.41l0 0z"/>
  </g>
  <rect class="fil2" width="56.75" height="56.75"/>
 </g>
</svg>
