<?xml version="1.0" encoding="UTF-8"?>
<!DOCTYPE svg PUBLIC "-//W3C//DTD SVG 1.1//EN" "http://www.w3.org/Graphics/SVG/1.1/DTD/svg11.dtd">
<!-- Creator: CorelDRAW 2019 (64-Bit) -->
<svg xmlns="http://www.w3.org/2000/svg" xml:space="preserve" width="500px" height="500px" version="1.1" style="shape-rendering:geometricPrecision; text-rendering:geometricPrecision; image-rendering:optimizeQuality; fill-rule:evenodd; clip-rule:evenodd"
viewBox="0 0 33.4 33.4"
 xmlns:xlink="http://www.w3.org/1999/xlink"
 xmlns:xodm="http://www.corel.com/coreldraw/odm/2003">
 <defs>
  <style type="text/css">
   <![CDATA[
    .fil0 {fill:none}
    .fil1 {fill:#BFE3F9;fill-rule:nonzero}
    .fil2 {fill:#344977;fill-rule:nonzero}
   ]]>
  </style>
 </defs>
 <g id="Warstwa_x0020_1">
  <metadata id="CorelCorpID_0Corel-Layer"/>
  <rect class="fil0" width="33.4" height="33.4"/>
  <g id="_2994538065872">
   <path class="fil1" d="M1.35 32.83l15.73 0c0.52,0 0.9,-0.49 0.77,-1l-0.53 -2.12c-0.09,-0.35 -0.41,-0.6 -0.78,-0.6l-14.65 0c-0.36,0 -0.68,0.25 -0.77,0.6l-0.54 2.12c-0.13,0.51 0.26,1 0.77,1l0 0z"/>
   <path class="fil1" d="M12.47 25.97l-6.5 0c-0.99,0 -1.88,0.4 -2.53,1.05 -0.52,0.53 -0.89,1.22 -1,2l13.56 0c-0.26,-1.72 -1.74,-3.05 -3.53,-3.05l0 0z"/>
   <polygon class="fil2" points="8.01,11.78 8.01,11.78 8.01,11.78 "/>
   <path class="fil2" d="M8.01 13.58l0 0 7.41 7.4c0.12,0.13 0.26,0.22 0.42,0.28 0.15,0.07 0.31,0.1 0.47,0.1 0.16,0 0.33,-0.03 0.48,-0.1 0.15,-0.06 0.3,-0.15 0.42,-0.27l0 -0.01 0.94 -0.93c0.12,-0.13 0.21,-0.27 0.28,-0.42 0.06,-0.16 0.09,-0.32 0.09,-0.48 0,-0.16 -0.03,-0.32 -0.09,-0.48 -0.07,-0.15 -0.16,-0.29 -0.28,-0.42l0 0 -0.18 -0.17 2.47 -2.47 2.64 2.87c0.21,0.23 0.57,0.24 0.79,0.03 0.23,-0.21 0.24,-0.56 0.03,-0.79l-2.68 -2.89 1.23 -1.23 8.95 8.27c0.29,0.27 0.52,0.58 0.66,0.89 0.15,0.31 0.22,0.62 0.22,0.88 0,0.16 -0.02,0.31 -0.07,0.43 -0.04,0.12 -0.11,0.23 -0.2,0.32 -0.09,0.09 -0.2,0.15 -0.32,0.2 -0.12,0.05 -0.27,0.07 -0.43,0.07 -0.26,0 -0.57,-0.07 -0.88,-0.22 -0.31,-0.15 -0.62,-0.37 -0.89,-0.66l-2.21 -2.4c-0.21,-0.23 -0.56,-0.24 -0.79,-0.03 -0.22,0.21 -0.24,0.56 -0.03,0.79l2.22 2.39c0.36,0.4 0.78,0.7 1.22,0.92 0.44,0.21 0.9,0.33 1.36,0.33 0.28,0 0.56,-0.05 0.82,-0.15 0.26,-0.09 0.51,-0.25 0.72,-0.46 0.2,-0.2 0.36,-0.45 0.46,-0.71 0.09,-0.26 0.14,-0.54 0.14,-0.82 0,-0.46 -0.12,-0.92 -0.33,-1.36 -0.21,-0.44 -0.52,-0.86 -0.91,-1.23l-8.92 -8.24 2.46 -2.46 0.17 0.18 0 0c0.13,0.12 0.27,0.21 0.42,0.27 0.16,0.07 0.32,0.1 0.48,0.1 0.16,0 0.33,-0.03 0.48,-0.1 0.15,-0.06 0.3,-0.15 0.42,-0.27l0 0 0.94 -0.94 0 0c0.12,-0.12 0.21,-0.27 0.28,-0.42 0.06,-0.15 0.09,-0.32 0.09,-0.48 0,-0.16 -0.03,-0.32 -0.09,-0.48 -0.07,-0.15 -0.16,-0.29 -0.28,-0.42l-7.41 -7.4 0 0c-0.12,-0.13 -0.27,-0.22 -0.42,-0.28 -0.15,-0.06 -0.32,-0.1 -0.48,-0.1 -0.16,0 -0.32,0.04 -0.48,0.1 -0.15,0.06 -0.29,0.15 -0.41,0.28l-0.94 0.93c-0.13,0.13 -0.22,0.27 -0.28,0.42 -0.06,0.16 -0.09,0.32 -0.09,0.48 0,0.16 0.03,0.33 0.09,0.48 0.06,0.15 0.15,0.3 0.28,0.42l0.17 0.17 -7.72 7.73 -0.18 -0.18c-0.12,-0.12 -0.27,-0.21 -0.42,-0.27 -0.15,-0.07 -0.31,-0.1 -0.48,-0.1 -0.16,0 -0.32,0.03 -0.47,0.1 -0.16,0.06 -0.3,0.15 -0.42,0.27l-0.94 0.94c-0.12,0.13 -0.22,0.27 -0.28,0.42 -0.06,0.16 -0.09,0.32 -0.09,0.48 0,0.16 0.03,0.32 0.09,0.48 0.06,0.15 0.16,0.29 0.28,0.42l0 0zm14.03 -1.14l0 0 -1.98 1.98 0 0c0,0 0,0 0,0l-2.88 2.87 -5.48 -5.48 7.73 -7.73 5.48 5.48 -2.87 2.88 0 0zm-2.82 -10.28c0.01,-0.01 0.02,-0.03 0.03,-0.05l0 0 0.94 -0.94 0 0c0.02,-0.01 0.04,-0.02 0.05,-0.03 0.02,-0.01 0.04,-0.01 0.06,-0.01 0.02,0 0.04,0 0.06,0.01 0.02,0.01 0.03,0.02 0.05,0.03l0 0 7.41 7.41c0.01,0.02 0.02,0.03 0.03,0.05 0.01,0.02 0.01,0.04 0.01,0.06 0,0.02 0,0.04 -0.01,0.06 -0.01,0.02 -0.02,0.03 -0.03,0.05l0 0 -0.94 0.94 0 0c-0.02,0.01 -0.03,0.02 -0.05,0.03 -0.02,0.01 -0.04,0.01 -0.06,0.01 -0.02,0 -0.04,0 -0.06,-0.01 -0.02,-0.01 -0.03,-0.02 -0.05,-0.03l-0.57 -0.57 0 0 -6.27 -6.27 -0.57 -0.57 0 0c-0.01,-0.02 -0.02,-0.03 -0.03,-0.05 -0.01,-0.02 -0.01,-0.04 -0.01,-0.06 0,-0.02 0,-0.04 0.01,-0.06l0 0zm-10.46 10.46c0.01,-0.02 0.02,-0.03 0.04,-0.05l0 0 0.93 -0.94c0.02,-0.01 0.04,-0.02 0.06,-0.03 0.01,-0.01 0.03,-0.01 0.05,-0.01 0.02,0 0.04,0 0.06,0.01 0.02,0.01 0.04,0.02 0.05,0.03l0.57 0.57 6.27 6.27 0 0 0.57 0.57c0.02,0.02 0.03,0.03 0.03,0.05 0.01,0.02 0.02,0.04 0.02,0.06 0,0.02 -0.01,0.04 -0.02,0.06 0,0.02 -0.01,0.03 -0.03,0.05l-0.94 0.94c-0.01,0.01 -0.03,0.02 -0.05,0.03 -0.02,0.01 -0.04,0.01 -0.06,0.01 -0.02,0 -0.04,0 -0.06,-0.01 -0.01,-0.01 -0.03,-0.02 -0.05,-0.03l-7.4 -7.41 0 0c-0.02,-0.02 -0.03,-0.03 -0.04,-0.05 -0.01,-0.02 -0.01,-0.04 -0.01,-0.06 0,-0.02 0,-0.04 0.01,-0.06l0 0z"/>
   <polygon class="fil2" points="18.47,3.12 18.47,3.12 18.47,3.12 "/>
   <polygon class="fil2" points="19.41,0.39 19.41,0.39 19.41,0.39 "/>
   <polygon class="fil2" points="18.47,1.32 18.47,1.32 18.47,1.32 "/>
   <path class="fil2" d="M0.59 33.15c0.11,0.07 0.23,0.13 0.36,0.17 0.12,0.04 0.26,0.06 0.4,0.06l15.73 0c0.19,0 0.37,-0.04 0.54,-0.11 0.24,-0.1 0.45,-0.28 0.59,-0.49 0.14,-0.22 0.23,-0.48 0.23,-0.75 0,-0.11 -0.02,-0.22 -0.05,-0.33l-0.53 -2.13c-0.08,-0.3 -0.25,-0.55 -0.48,-0.73 -0.24,-0.18 -0.53,-0.29 -0.84,-0.29l-0.08 0c-0.09,-0.35 -0.21,-0.69 -0.38,-1 -0.35,-0.64 -0.87,-1.17 -1.49,-1.55 -0.62,-0.37 -1.35,-0.58 -2.13,-0.58l-6.49 0c-0.57,0 -1.11,0.11 -1.61,0.32 -0.49,0.21 -0.94,0.51 -1.31,0.89 -0.52,0.52 -0.89,1.18 -1.07,1.92l-0.09 0c-0.31,0 -0.6,0.11 -0.83,0.29 -0.23,0.18 -0.4,0.43 -0.48,0.73l-0.54 2.13c-0.03,0.11 -0.04,0.22 -0.04,0.33 0,0.18 0.04,0.36 0.1,0.52 0.1,0.24 0.27,0.45 0.49,0.6l0 0zm3.25 -5.74c0.27,-0.27 0.6,-0.49 0.96,-0.64 0.36,-0.16 0.75,-0.24 1.17,-0.24l6.49 0c0.39,0 0.75,0.07 1.08,0.2 0.5,0.19 0.94,0.51 1.27,0.92 0.21,0.26 0.36,0.57 0.48,0.9l-12.13 0c0.15,-0.43 0.36,-0.82 0.68,-1.14l0 0zm-2.72 4.56l0.54 -2.12c0.01,-0.06 0.04,-0.1 0.09,-0.13 0.04,-0.04 0.09,-0.06 0.14,-0.06l14.65 0c0.06,0 0.11,0.02 0.15,0.06 0.04,0.03 0.07,0.07 0.09,0.13l0.53 2.12c0.01,0.02 0.01,0.04 0.01,0.06 0,0.03 0,0.06 -0.02,0.09 -0.01,0.04 -0.05,0.08 -0.08,0.11 -0.02,0.01 -0.04,0.02 -0.07,0.03 -0.02,0.01 -0.04,0.01 -0.07,0.01l-15.73 0c-0.03,0 -0.06,-0.01 -0.09,-0.02 -0.04,-0.02 -0.08,-0.05 -0.11,-0.09 -0.02,-0.04 -0.04,-0.08 -0.04,-0.13 0,-0.02 0.01,-0.04 0.01,-0.06l0 0z"/>
  </g>
 </g>
</svg>
