<?xml version="1.0" encoding="UTF-8"?>
<!DOCTYPE svg PUBLIC "-//W3C//DTD SVG 1.1//EN" "http://www.w3.org/Graphics/SVG/1.1/DTD/svg11.dtd">
<!-- Creator: CorelDRAW 2019 (64-Bit) -->
<svg xmlns="http://www.w3.org/2000/svg" xml:space="preserve" width="500px" height="500px" version="1.1" style="shape-rendering:geometricPrecision; text-rendering:geometricPrecision; image-rendering:optimizeQuality; fill-rule:evenodd; clip-rule:evenodd"
viewBox="0 0 57.07 57.07"
 xmlns:xlink="http://www.w3.org/1999/xlink"
 xmlns:xodm="http://www.corel.com/coreldraw/odm/2003">
 <defs>
  <style type="text/css">
   <![CDATA[
    .fil0 {fill:none}
    .fil1 {fill:#BFE3F9;fill-rule:nonzero}
    .fil2 {fill:#3F476C;fill-rule:nonzero}
   ]]>
  </style>
 </defs>
 <g id="Warstwa_x0020_1">
  <metadata id="CorelCorpID_0Corel-Layer"/>
  <rect class="fil0" width="57.07" height="57.07"/>
  <g id="_2994447321232">
   <path class="fil1" d="M29.84 32.6l4.31 -2.62 2.38 -1.44 18.27 -11.05c0.65,-0.4 0.65,-1.2 -0.01,-1.59l-24.96 -14.77c-0.41,-0.24 -0.96,-0.24 -1.37,0l-10.19 6.03 -6.36 3.76 -8.42 4.98c-0.65,0.39 -0.66,1.19 -0.01,1.59l24.97 15.11c0.41,0.25 0.97,0.25 1.39,0l0 0z"/>
   <path class="fil2" d="M30.97 56.57l0.34 -0.21c0.45,-0.27 0.6,-0.86 0.32,-1.31 -0.27,-0.45 -0.85,-0.59 -1.31,-0.32l-0.34 0.21c-0.24,0.14 -0.53,0.23 -0.84,0.23 -0.3,0 -0.59,-0.09 -0.83,-0.23l0 0 -2.49 -1.51c-0.45,-0.27 -1.04,-0.12 -1.31,0.33 -0.27,0.45 -0.13,1.03 0.32,1.3l0 0 2.49 1.51 0 0c0.55,0.33 1.18,0.5 1.82,0.5 0.65,0 1.28,-0.17 1.83,-0.5l0 0z"/>
   <path class="fil2" d="M2.04 29.13c0,0.32 0.09,0.64 0.26,0.92 0.16,0.28 0.4,0.51 0.69,0.68l0 0 4.21 2.56 -0.38 0.22c-0.45,0.27 -0.6,0.85 -0.33,1.31 0.27,0.45 0.85,0.6 1.3,0.33l1.27 -0.74 3.7 2.24 15.19 9.19 0 0c0.19,0.12 0.38,0.2 0.58,0.25 0.2,0.05 0.41,0.08 0.61,0.08 0.21,0 0.41,-0.03 0.61,-0.08 0.2,-0.05 0.4,-0.13 0.58,-0.25l18.9 -11.43 3.41 2.02c0.45,0.26 1.04,0.11 1.31,-0.34 0.27,-0.45 0.12,-1.04 -0.34,-1.31l0 0 -2.53 -1.49 4.22 -2.56 0 0c0.28,-0.17 0.52,-0.4 0.69,-0.68 0.16,-0.28 0.25,-0.6 0.25,-0.92 0,-0.33 -0.09,-0.65 -0.26,-0.93 -0.17,-0.28 -0.41,-0.52 -0.7,-0.69l0 0.01 -7.62 -4.6 7.64 -4.62 0 0c0.28,-0.17 0.52,-0.41 0.68,-0.69 0.17,-0.27 0.26,-0.59 0.26,-0.91 0,-0.33 -0.09,-0.65 -0.26,-0.93 -0.17,-0.28 -0.41,-0.52 -0.7,-0.69l0 0 -24.97 -14.77 0 0c-0.36,-0.21 -0.77,-0.31 -1.17,-0.31 -0.2,0 -0.4,0.02 -0.59,0.08 -0.2,0.05 -0.39,0.13 -0.58,0.23l0 0 -10.19 6.03c-0.45,0.27 -0.6,0.85 -0.33,1.31 0.26,0.45 0.85,0.6 1.3,0.33l0 0 10.19 -6.03c0.02,-0.01 0.05,-0.02 0.09,-0.03 0.03,-0.01 0.07,-0.01 0.11,-0.01 0.08,-0.01 0.16,0.02 0.2,0.04l24.93 14.75 -18.23 11.03 -2.38 1.44 0 0 -4.32 2.61 0 0c-0.02,0.01 -0.05,0.03 -0.08,0.04 -0.04,0 -0.08,0.01 -0.12,0.01 -0.04,0 -0.08,-0.01 -0.11,-0.01 -0.04,-0.01 -0.07,-0.03 -0.09,-0.04l-24.92 -15.08 8.38 -4.96c0.45,-0.27 0.6,-0.85 0.33,-1.31 -0.26,-0.45 -0.85,-0.6 -1.3,-0.33l-8.42 4.98 0 0c-0.29,0.17 -0.54,0.41 -0.71,0.69 -0.17,0.28 -0.26,0.6 -0.26,0.93 0,0.32 0.09,0.64 0.26,0.91 0.16,0.28 0.4,0.52 0.69,0.69l0 0 7.64 4.62 -7.63 4.6 0.01 -0.01c-0.29,0.17 -0.54,0.41 -0.71,0.69 -0.17,0.28 -0.26,0.6 -0.26,0.93l0 0zm25.91 4.28l0 0c0.19,0.11 0.39,0.19 0.59,0.25 0.2,0.05 0.4,0.08 0.6,0.08 0.21,0 0.41,-0.03 0.61,-0.08 0.2,-0.06 0.4,-0.14 0.58,-0.25l4.32 -2.61 0 0 2.38 -1.44 8.79 -5.32 8.45 5.09 -5.54 3.35 -19.39 11.73 0 0c-0.02,0.02 -0.05,0.03 -0.08,0.04 -0.04,0.01 -0.08,0.01 -0.12,0.01 -0.04,0 -0.08,0 -0.11,-0.01 -0.04,-0.01 -0.07,-0.02 -0.09,-0.04l0 0 -15.19 -9.19 -4.2 -2.54 -5.53 -3.35 8.45 -5.09 15.48 9.37 0 0z"/>
   <polygon class="fil2" points="30.33,45.84 30.33,45.84 "/>
   <path class="fil2" d="M47.96 45.17c-0.28,-0.45 -0.86,-0.59 -1.31,-0.32l-4.08 2.47c-0.45,0.27 -0.6,0.86 -0.33,1.31 0.28,0.45 0.86,0.59 1.31,0.32l4.08 -2.47c0.45,-0.27 0.6,-0.86 0.33,-1.31l0 0z"/>
   <path class="fil2" d="M35.39 53.89l4.08 -2.47c0.45,-0.27 0.6,-0.86 0.32,-1.31 -0.27,-0.45 -0.85,-0.59 -1.3,-0.32l-4.09 2.47c-0.44,0.27 -0.59,0.86 -0.32,1.31 0.28,0.45 0.86,0.59 1.31,0.32l0 0z"/>
   <path class="fil2" d="M20.75 52.6c0.45,0.27 1.04,0.12 1.31,-0.33 0.27,-0.45 0.13,-1.03 -0.32,-1.3l-4.08 -2.47c-0.45,-0.28 -1.04,-0.13 -1.31,0.32 -0.27,0.45 -0.13,1.03 0.32,1.31l4.08 2.47 0 0z"/>
   <path class="fil2" d="M13.9 47.33c0.28,-0.45 0.13,-1.03 -0.32,-1.3l-4.08 -2.47c-0.45,-0.27 -1.04,-0.13 -1.31,0.32 -0.27,0.45 -0.13,1.03 0.32,1.31l4.08 2.47c0.45,0.27 1.04,0.12 1.31,-0.33l0 0z"/>
   <path class="fil2" d="M1.24 37.27c-0.27,0.46 -0.42,0.99 -0.42,1.54 0,0.54 0.15,1.07 0.41,1.52 0.27,0.46 0.66,0.85 1.12,1.13l0 0 2.08 1.26c0.45,0.27 1.04,0.13 1.31,-0.32 0.27,-0.45 0.13,-1.04 -0.32,-1.31l-2.08 -1.26 0 0c-0.2,-0.12 -0.36,-0.28 -0.46,-0.46 -0.1,-0.17 -0.15,-0.36 -0.15,-0.56 0,-0.21 0.05,-0.4 0.15,-0.57 0.11,-0.18 0.26,-0.34 0.47,-0.46l0 0 0.34 -0.2c0.45,-0.27 0.6,-0.85 0.33,-1.31 -0.27,-0.45 -0.85,-0.6 -1.3,-0.33l0 0 -0.34 0.2 0 0c-0.47,0.28 -0.87,0.67 -1.14,1.13l0 0z"/>
   <path class="fil2" d="M54.81 39.91l-4.09 2.47c-0.45,0.27 -0.59,0.86 -0.31,1.31 0.27,0.45 0.85,0.6 1.3,0.32l4.08 -2.47c0.45,-0.27 0.6,-0.85 0.32,-1.3 -0.27,-0.46 -0.85,-0.6 -1.3,-0.33l0 0z"/>
   <polygon class="fil2" points="30.33,33.41 30.33,33.41 30.33,33.41 "/>
  </g>
 </g>
</svg>
