<?xml version="1.0" encoding="UTF-8"?>
<!DOCTYPE svg PUBLIC "-//W3C//DTD SVG 1.1//EN" "http://www.w3.org/Graphics/SVG/1.1/DTD/svg11.dtd">
<!-- Creator: CorelDRAW 2019 (64-Bit) -->
<svg xmlns="http://www.w3.org/2000/svg" xml:space="preserve" width="500px" height="500px" version="1.1" style="shape-rendering:geometricPrecision; text-rendering:geometricPrecision; image-rendering:optimizeQuality; fill-rule:evenodd; clip-rule:evenodd"
viewBox="0 0 31 31"
 xmlns:xlink="http://www.w3.org/1999/xlink"
 xmlns:xodm="http://www.corel.com/coreldraw/odm/2003">
 <defs>
  <style type="text/css">
   <![CDATA[
    .fil0 {fill:none}
    .fil1 {fill:#BFE3F9;fill-rule:nonzero}
    .fil2 {fill:#3F476C;fill-rule:nonzero}
   ]]>
  </style>
 </defs>
 <g id="Warstwa_x0020_1">
  <metadata id="CorelCorpID_0Corel-Layer"/>
  <rect class="fil0" width="31" height="31"/>
  <g id="_2958211530064">
   <path class="fil1" d="M24.94 26.49l-13.61 0c-1.27,0 -2.29,1.02 -2.29,2.29l0 1.7 15.9 0c1.1,0 2,-0.89 2,-2 0,-1.1 -0.9,-1.99 -2,-1.99l0 0z"/>
   <path class="fil1" d="M18.51 17.06l7.94 0c0.2,0 0.36,-0.16 0.36,-0.35l0 -2.61c0,-0.2 -0.16,-0.36 -0.36,-0.36l-7.94 0c-0.19,0 -0.35,0.16 -0.35,0.36l0 2.61c0,0.19 0.16,0.35 0.35,0.35l0 0z"/>
   <path class="fil1" d="M18.51 22.56l7.94 0c0.2,0 0.36,-0.16 0.36,-0.36l0 -2.61c0,-0.19 -0.16,-0.35 -0.36,-0.35l-7.94 0c-0.19,0 -0.35,0.16 -0.35,0.35l0 2.61c0,0.2 0.16,0.36 0.35,0.36l0 0z"/>
   <path class="fil2" d="M6.52 16.57l0 4.68c0,0.11 0.02,0.23 0.06,0.33 0.07,0.15 0.18,0.28 0.31,0.37 0.14,0.09 0.3,0.14 0.47,0.14l6.71 0c0.12,0 0.23,-0.02 0.33,-0.06 0.15,-0.07 0.28,-0.17 0.37,-0.31 0.09,-0.13 0.15,-0.3 0.15,-0.47l0 -4.68c0,-0.11 -0.03,-0.23 -0.07,-0.33 -0.06,-0.15 -0.17,-0.28 -0.31,-0.37 -0.13,-0.09 -0.3,-0.14 -0.47,-0.14l-6.71 0c-0.11,0 -0.22,0.02 -0.33,0.06 -0.15,0.07 -0.28,0.17 -0.37,0.31 -0.09,0.13 -0.14,0.3 -0.14,0.47l0 0zm7.36 4.49l-6.33 0 0 -4.3 6.33 0 0 4.3z"/>
   <path class="fil2" d="M7.35 5.14l6.55 0c0.29,0 0.52,-0.23 0.52,-0.51 0,-0.29 -0.23,-0.52 -0.52,-0.52l-6.55 0c-0.29,0 -0.52,0.23 -0.52,0.52 0,0.28 0.23,0.51 0.52,0.51l0 0z"/>
   <path class="fil2" d="M7.35 8.19l6.55 0c0.29,0 0.52,-0.23 0.52,-0.51 0,-0.29 -0.23,-0.52 -0.52,-0.52l-6.55 0c-0.29,0 -0.52,0.23 -0.52,0.52 0,0.28 0.23,0.51 0.52,0.51l0 0z"/>
   <path class="fil2" d="M7.35 11.24l6.55 0c0.29,0 0.52,-0.23 0.52,-0.52 0,-0.28 -0.23,-0.51 -0.52,-0.51l-6.55 0c-0.29,0 -0.52,0.23 -0.52,0.51 0,0.29 0.23,0.52 0.52,0.52l0 0z"/>
   <path class="fil2" d="M26.34 26.4c-0.31,-0.21 -0.69,-0.33 -1.08,-0.38l0 -2.82c0,-0.04 -0.02,-0.09 -0.03,-0.13l1.22 0c0.12,0 0.24,-0.02 0.34,-0.07 0.16,-0.06 0.29,-0.17 0.39,-0.31 0.09,-0.14 0.14,-0.31 0.14,-0.49l0 -2.61c0,-0.12 -0.02,-0.23 -0.06,-0.34 -0.07,-0.16 -0.18,-0.29 -0.32,-0.38 -0.14,-0.09 -0.31,-0.15 -0.49,-0.15l-1.19 0 0 -1.14 1.19 0c0.12,0 0.24,-0.03 0.34,-0.07 0.16,-0.07 0.29,-0.18 0.39,-0.32 0.09,-0.13 0.14,-0.3 0.14,-0.48l0 -2.61c0,-0.12 -0.02,-0.24 -0.06,-0.34 -0.07,-0.16 -0.18,-0.29 -0.32,-0.39 -0.14,-0.09 -0.31,-0.14 -0.49,-0.14l-1.19 0 0 -11.94c0,-0.16 -0.03,-0.32 -0.09,-0.46 -0.08,-0.22 -0.22,-0.4 -0.4,-0.54 -0.14,-0.12 -0.31,-0.19 -0.49,-0.24 0,0 -0.01,0 -0.02,0 -0.03,-0.01 -0.07,-0.03 -0.11,-0.04l0 0c-0.05,0 -0.11,-0.01 -0.18,-0.01l-19.3 0c-0.07,0 -0.13,0.01 -0.18,0.02 0,0 -0.01,0 -0.01,0 -0.02,0 -0.04,0.02 -0.06,0.02 -0.02,0.01 -0.05,0.01 -0.07,0.03 -0.08,0.02 -0.16,0.04 -0.24,0.08 -0.17,0.1 -0.31,0.24 -0.41,0.4 -0.1,0.17 -0.16,0.37 -0.16,0.58l0 9.59c0,0.29 0.24,0.52 0.52,0.52 0.29,0 0.52,-0.23 0.52,-0.52l0 -9.59c0,-0.01 0,-0.02 0,-0.03 0.01,-0.02 0.02,-0.03 0.03,-0.04 0.01,-0.01 0.02,-0.01 0.03,-0.02l19.38 0c0.02,0.01 0.05,0.01 0.07,0.03 0.04,0.02 0.07,0.05 0.1,0.09 0.02,0.04 0.03,0.08 0.03,0.13l0 11.94 -5.71 0c-0.12,0 -0.23,0.02 -0.34,0.06 -0.16,0.07 -0.29,0.18 -0.38,0.32 -0.09,0.14 -0.15,0.31 -0.15,0.49l0 2.61c0,0.12 0.02,0.23 0.07,0.34 0.07,0.15 0.18,0.29 0.31,0.38 0.14,0.09 0.31,0.15 0.49,0.15l5.71 0 0 1.14 -5.71 0c-0.12,0 -0.23,0.02 -0.34,0.07 -0.16,0.07 -0.29,0.17 -0.38,0.31 -0.09,0.14 -0.15,0.31 -0.15,0.49l0 2.61c0,0.12 0.02,0.24 0.07,0.34 0.07,0.16 0.18,0.29 0.31,0.38 0.14,0.1 0.31,0.15 0.49,0.15l5.74 0c-0.01,0.04 -0.03,0.09 -0.03,0.13l0 2.77 -12.89 0c-0.39,0 -0.76,0.08 -1.09,0.22 -0.51,0.22 -0.94,0.57 -1.24,1.02 -0.3,0.45 -0.48,0.99 -0.48,1.57l0 1.18 -3.85 0c-0.01,0 -0.02,0 -0.03,0 -0.02,-0.01 -0.03,-0.02 -0.05,-0.04 -0.01,-0.01 -0.01,-0.03 -0.01,-0.05l0 -15.7c0,-0.28 -0.23,-0.52 -0.52,-0.52 -0.28,0 -0.52,0.24 -0.52,0.52l0 15.7c0,0.15 0.04,0.3 0.09,0.44 0.09,0.2 0.23,0.37 0.41,0.49 0.18,0.13 0.4,0.2 0.63,0.2l4.8 0 15.47 0c0.35,0 0.68,-0.07 0.98,-0.2 0.45,-0.19 0.83,-0.51 1.1,-0.91 0.27,-0.4 0.43,-0.89 0.43,-1.41 0,-0.34 -0.07,-0.67 -0.2,-0.97 -0.19,-0.46 -0.5,-0.84 -0.91,-1.11l0 0zm-7.66 -12.14l7.61 0 0 2.28 -7.61 0 0 -2.28zm0 5.49l7.61 0 0 2.29 -7.61 0 0 -2.29zm7.62 9.31c-0.11,0.26 -0.3,0.49 -0.53,0.65 -0.24,0.16 -0.52,0.25 -0.83,0.25l-15.39 0 0 -1.18c0,-0.25 0.05,-0.48 0.14,-0.69 0.14,-0.32 0.36,-0.59 0.65,-0.78 0.28,-0.19 0.62,-0.3 0.99,-0.31l13.61 0c0.21,0 0.4,0.05 0.58,0.12 0.26,0.11 0.49,0.3 0.65,0.54 0.16,0.23 0.25,0.52 0.25,0.82 0,0.21 -0.04,0.4 -0.12,0.58l0 0z"/>
  </g>
 </g>
</svg>
