<?xml version="1.0" encoding="UTF-8"?>
<!DOCTYPE svg PUBLIC "-//W3C//DTD SVG 1.1//EN" "http://www.w3.org/Graphics/SVG/1.1/DTD/svg11.dtd">
<!-- Creator: CorelDRAW 2019 (64-Bit) -->
<svg xmlns="http://www.w3.org/2000/svg" xml:space="preserve" width="500px" height="500px" version="1.1" style="shape-rendering:geometricPrecision; text-rendering:geometricPrecision; image-rendering:optimizeQuality; fill-rule:evenodd; clip-rule:evenodd"
viewBox="0 0 33.67 33.67"
 xmlns:xlink="http://www.w3.org/1999/xlink"
 xmlns:xodm="http://www.corel.com/coreldraw/odm/2003">
 <defs>
  <style type="text/css">
   <![CDATA[
    .fil0 {fill:none}
    .fil1 {fill:#BFE3F9;fill-rule:nonzero}
    .fil2 {fill:#3F476C;fill-rule:nonzero}
   ]]>
  </style>
 </defs>
 <g id="Warstwa_x0020_1">
  <metadata id="CorelCorpID_0Corel-Layer"/>
  <rect class="fil0" width="33.67" height="33.67"/>
  <g id="_2994538036208">
   <path class="fil1" d="M13.74 13.08l2.97 5.15c0.06,0.09 0.2,0.09 0.25,0l3.41 -5.91 0.15 -0.26c0.01,-0.02 0.03,-0.04 0.04,-0.07 0.37,-0.66 0.54,-1.36 0.54,-2.05 0,-1.14 -0.48,-2.24 -1.27,-3.03 -0.75,-0.74 -1.79,-1.22 -2.99,-1.22 -2.48,0 -4.26,2.03 -4.26,4.25 0,0.69 0.17,1.39 0.54,2.05 0.01,0.03 0.02,0.05 0.04,0.07l0.58 1.02 0 0z"/>
   <path class="fil1" d="M27.21 27.71l-18.95 0c-1.25,0 -2.29,0.97 -2.38,2.2l0 0c0,0.06 0,0.12 0,0.18l0 0.62c0,1.31 1.07,2.38 2.38,2.38l18.95 0c0.32,0 0.58,-0.26 0.58,-0.58l0 -4.22c0,-0.32 -0.26,-0.58 -0.58,-0.58l0 0z"/>
   <path class="fil2" d="M16.84 8.01c-0.28,0 -0.54,0.06 -0.78,0.16 -0.36,0.15 -0.67,0.41 -0.88,0.73 -0.22,0.31 -0.35,0.7 -0.35,1.12 0,0.27 0.06,0.54 0.16,0.78 0.15,0.36 0.41,0.66 0.73,0.88 0.32,0.21 0.7,0.34 1.12,0.34 0.27,0 0.54,-0.06 0.78,-0.16 0.36,-0.15 0.66,-0.4 0.88,-0.72 0.21,-0.32 0.34,-0.71 0.34,-1.12 0,-0.28 -0.05,-0.54 -0.16,-0.78 -0.15,-0.36 -0.4,-0.67 -0.72,-0.89 -0.32,-0.21 -0.71,-0.34 -1.12,-0.34l0 0zm0.78 2.34c-0.06,0.15 -0.17,0.28 -0.31,0.37 -0.13,0.09 -0.29,0.15 -0.47,0.15 -0.12,0 -0.23,-0.03 -0.33,-0.07 -0.15,-0.06 -0.29,-0.17 -0.38,-0.31 -0.09,-0.13 -0.14,-0.3 -0.14,-0.47 0,-0.12 0.02,-0.23 0.06,-0.33 0.07,-0.16 0.18,-0.29 0.31,-0.38 0.14,-0.09 0.3,-0.14 0.48,-0.14 0.12,0 0.23,0.02 0.33,0.06 0.15,0.07 0.28,0.18 0.37,0.31 0.09,0.14 0.15,0.3 0.15,0.48 0,0.12 -0.03,0.23 -0.07,0.33l0 0z"/>
   <path class="fil2" d="M11.12 20.69c0,0.32 0.26,0.57 0.58,0.57l10.28 0c0.32,0 0.58,-0.25 0.58,-0.57 0,-0.32 -0.26,-0.58 -0.58,-0.58l-10.28 0c-0.32,0 -0.58,0.26 -0.58,0.58l0 0z"/>
   <path class="fil2" d="M28.37 28.29l0 -26.84c0,-0.2 -0.04,-0.39 -0.12,-0.56 -0.11,-0.27 -0.29,-0.48 -0.52,-0.64 -0.23,-0.16 -0.51,-0.25 -0.81,-0.25l-12.42 0c-0.32,0 -0.58,0.26 -0.58,0.58 0,0.32 0.26,0.57 0.58,0.57l12.42 0c0.04,0 0.08,0.01 0.11,0.03 0.06,0.02 0.1,0.06 0.13,0.1 0.04,0.05 0.05,0.11 0.05,0.17l0 25.68 -18.95 0c-0.39,0 -0.76,0.08 -1.1,0.22 -0.26,0.1 -0.49,0.23 -0.7,0.4l-0.01 -26.3 0 0c0,-0.04 0.01,-0.08 0.03,-0.12 0.02,-0.05 0.06,-0.09 0.11,-0.13 0.04,-0.03 0.1,-0.05 0.16,-0.05l3.91 0c0.32,0 0.57,-0.25 0.57,-0.57 0,-0.32 -0.25,-0.58 -0.57,-0.58l-3.91 0c-0.2,0 -0.39,0.04 -0.57,0.11 -0.26,0.12 -0.47,0.3 -0.63,0.53 -0.16,0.23 -0.25,0.51 -0.25,0.81l0 0 0.01 28.46 0 0c-0.01,0.06 -0.01,0.12 -0.01,0.18l0 0.62c0,0.41 0.08,0.8 0.23,1.15 0.23,0.53 0.6,0.98 1.07,1.3 0.48,0.32 1.05,0.51 1.66,0.51l18.95 0c0.16,0 0.32,-0.03 0.45,-0.09 0.21,-0.09 0.39,-0.24 0.51,-0.42 0.12,-0.18 0.2,-0.41 0.2,-0.65l0 -1.51 0 0 0 0 0 -0.6c0,0 0,0 0,0l0 0 0 -2.11 0 0 0 0zm-1.16 4.22l-18.95 0c-0.25,0 -0.49,-0.05 -0.7,-0.14 -0.32,-0.13 -0.6,-0.37 -0.8,-0.65 -0.19,-0.29 -0.31,-0.64 -0.31,-1.01l0 -0.62c0,-0.05 0.01,-0.09 0.01,-0.14l0 0c0.02,-0.23 0.08,-0.45 0.17,-0.65 0.15,-0.3 0.38,-0.55 0.66,-0.73 0.28,-0.18 0.61,-0.28 0.97,-0.28l18.95 0 0 1.53 -15.51 0c-0.32,0 -0.58,0.26 -0.58,0.58 0,0.32 0.26,0.58 0.58,0.58l15.51 0 0 1.53z"/>
   <polygon class="fil2" points="20.23,6.5 20.23,6.5 20.23,6.5 "/>
   <path class="fil2" d="M16.84 5.11c-0.7,0 -1.36,0.15 -1.95,0.4 -0.88,0.39 -1.6,1.02 -2.1,1.8 -0.5,0.77 -0.79,1.69 -0.79,2.63 0,0.78 0.2,1.58 0.61,2.33l0.01 0.01c0.01,0.02 0.02,0.04 0.04,0.07l0 0 0.59 1.02 2.97 5.15 0 0c0.06,0.11 0.16,0.21 0.27,0.27 0.11,0.06 0.23,0.09 0.35,0.09 0.12,0 0.24,-0.03 0.35,-0.09 0.11,-0.06 0.2,-0.16 0.27,-0.27l0 0 3.41 -5.91 0 0 0.15 -0.26 0 0c0.02,-0.03 0.03,-0.05 0.04,-0.07l0.01 -0.01c0.41,-0.75 0.6,-1.55 0.6,-2.33 0,-0.65 -0.13,-1.28 -0.38,-1.87 -0.25,-0.58 -0.61,-1.12 -1.06,-1.57 -0.42,-0.42 -0.93,-0.77 -1.5,-1.01 -0.58,-0.24 -1.22,-0.38 -1.89,-0.38l0 0zm-0.38 12.83l0 0 0 0 0 0zm2.96 -10.62c0.34,0.34 0.62,0.75 0.81,1.2 0.19,0.45 0.29,0.93 0.29,1.42 0,0.59 -0.15,1.19 -0.46,1.77 -0.02,0.03 -0.03,0.05 -0.04,0.06l0 0.01 -0.15 0.26 0 0 -3.03 5.25 -2.6 -4.49 -0.59 -1.02 0.01 0c-0.01,-0.02 -0.03,-0.04 -0.04,-0.07 -0.32,-0.58 -0.46,-1.18 -0.46,-1.77 0,-0.47 0.09,-0.94 0.27,-1.38 0.27,-0.65 0.72,-1.23 1.3,-1.64 0.29,-0.21 0.62,-0.37 0.97,-0.48 0.35,-0.11 0.73,-0.18 1.14,-0.18 0.52,0.01 1,0.11 1.44,0.29 0.43,0.18 0.81,0.45 1.14,0.77l0 0z"/>
  </g>
 </g>
</svg>
