<?xml version="1.0" encoding="UTF-8"?>
<!DOCTYPE svg PUBLIC "-//W3C//DTD SVG 1.1//EN" "http://www.w3.org/Graphics/SVG/1.1/DTD/svg11.dtd">
<!-- Creator: CorelDRAW 2019 (64-Bit) -->
<svg xmlns="http://www.w3.org/2000/svg" xml:space="preserve" width="500px" height="500px" version="1.1" style="shape-rendering:geometricPrecision; text-rendering:geometricPrecision; image-rendering:optimizeQuality; fill-rule:evenodd; clip-rule:evenodd"
viewBox="0 0 40.55 40.55"
 xmlns:xlink="http://www.w3.org/1999/xlink"
 xmlns:xodm="http://www.corel.com/coreldraw/odm/2003">
 <defs>
  <style type="text/css">
   <![CDATA[
    .fil0 {fill:none}
    .fil1 {fill:#BFE3F9;fill-rule:nonzero}
    .fil2 {fill:#3F476C;fill-rule:nonzero}
   ]]>
  </style>
 </defs>
 <g id="Warstwa_x0020_1">
  <metadata id="CorelCorpID_0Corel-Layer"/>
  <rect class="fil0" width="40.55" height="40.55"/>
  <g id="_2957996101168">
   <path class="fil1" d="M13.46 16.81l16.78 0 0 -0.22c0,-2.14 -1.75,-3.89 -3.88,-3.89l-6 0c-0.1,0 -1.83,0.07 -1.94,0.08l-0.2 0.16 0 -5.41c0,-0.65 -0.53,-1.18 -1.18,-1.18l-11.45 0c-0.65,0 -1.18,0.53 -1.18,1.18l0 5.93c0,0.65 0.53,1.18 1.18,1.18l10.54 0 -2.67 2.17 0 0z"/>
   <path class="fil1" d="M23.36 10.39c1.77,0 3.2,-1.44 3.2,-3.21 0,-1.76 -1.43,-3.2 -3.2,-3.2 -1.77,0 -3.2,1.44 -3.2,3.2 0,1.77 1.43,3.21 3.2,3.21l0 0z"/>
   <path class="fil2" d="M39.48 16.55c-0.39,-0.26 -0.86,-0.41 -1.36,-0.41l-7.24 0c-0.05,-0.46 -0.14,-0.91 -0.32,-1.33 -0.35,-0.81 -0.93,-1.51 -1.65,-2 -0.73,-0.49 -1.61,-0.78 -2.55,-0.78l-6 0c-0.01,0 -0.02,0 -0.03,0 -0.03,0 -0.08,0 -0.14,0 -0.23,0.01 -0.65,0.03 -1.04,0.04 -0.09,0.01 -0.16,0.01 -0.25,0.01l0 -4.55c0,-0.25 -0.05,-0.5 -0.15,-0.72 -0.14,-0.34 -0.37,-0.62 -0.67,-0.82 -0.29,-0.2 -0.66,-0.32 -1.04,-0.32l-11.45 0c-0.25,0 -0.5,0.06 -0.72,0.15 -0.34,0.14 -0.62,0.38 -0.82,0.67 -0.2,0.3 -0.32,0.66 -0.32,1.04l0 5.93c0,0.25 0.05,0.5 0.15,0.73 0.14,0.33 0.38,0.61 0.67,0.81 0.3,0.2 0.66,0.32 1.04,0.32l2.95 0 0 0.82 -6.11 0c-0.34,0 -0.66,0.07 -0.95,0.19 -0.43,0.19 -0.8,0.49 -1.06,0.88 -0.27,0.39 -0.42,0.86 -0.42,1.36l0 2.91c0,0.33 0.07,0.65 0.19,0.94 0.19,0.44 0.49,0.81 0.88,1.07 0.39,0.26 0.86,0.41 1.36,0.41l1.94 0 0 3.55c0,0.38 0.31,0.68 0.68,0.68 0.37,0 0.68,-0.3 0.68,-0.68l0 -3.55 13.18 0 0 9.68c0,0.32 -0.06,0.62 -0.18,0.9 -0.17,0.41 -0.47,0.77 -0.84,1.02 -0.37,0.25 -0.81,0.39 -1.29,0.39l-8.56 0c-0.32,0 -0.62,-0.06 -0.9,-0.18 -0.41,-0.18 -0.77,-0.47 -1.02,-0.84 -0.25,-0.37 -0.39,-0.81 -0.39,-1.29l0 -1.62c0,-0.37 -0.31,-0.68 -0.68,-0.68 -0.37,0 -0.68,0.31 -0.68,0.68l0 1.62c0,0.5 0.11,0.99 0.29,1.43 0.28,0.65 0.75,1.21 1.33,1.6 0.58,0.4 1.29,0.63 2.05,0.63l8.56 0c0.51,0 0.99,-0.1 1.43,-0.29 0.65,-0.28 1.21,-0.74 1.61,-1.32 0.39,-0.59 0.63,-1.29 0.63,-2.05l0 -9.68 9.24 0 0 11.99c0,0.19 0.04,0.37 0.11,0.53 0.1,0.24 0.27,0.45 0.48,0.59 0.22,0.15 0.48,0.23 0.76,0.23l3.04 0c0.19,0 0.37,-0.03 0.53,-0.1 0.24,-0.11 0.45,-0.28 0.59,-0.49 0.15,-0.22 0.24,-0.48 0.24,-0.76l0 -11.99 2.86 0c0.34,0 0.66,-0.06 0.95,-0.19 0.43,-0.18 0.8,-0.49 1.06,-0.88 0.26,-0.38 0.42,-0.85 0.42,-1.35l0 -2.91c0,-0.34 -0.07,-0.66 -0.19,-0.95 -0.19,-0.43 -0.5,-0.8 -0.88,-1.07l0 0zm-20.57 -3.11c0.28,-0.02 0.63,-0.03 0.92,-0.04 0.15,-0.01 0.28,-0.01 0.37,-0.02 0.05,0 0.09,0 0.12,0 0.02,0 0.03,0 0.04,0l6 0c0.44,0 0.86,0.09 1.24,0.25 0.58,0.25 1.07,0.65 1.42,1.17 0.26,0.39 0.41,0.85 0.48,1.34l-15.38 0 -0.02 -0.82 2.94 0c0.26,0 0.5,-0.05 0.73,-0.15 0.33,-0.14 0.61,-0.37 0.81,-0.67 0.2,-0.3 0.32,-0.66 0.32,-1.04l0 -0.02c0.01,0 0.01,0 0.01,0l0 0zm-13.32 0.53c-0.07,0 -0.13,-0.02 -0.19,-0.04 -0.09,-0.04 -0.17,-0.11 -0.23,-0.19 -0.06,-0.08 -0.09,-0.17 -0.09,-0.28l0 -5.93c0,-0.07 0.02,-0.13 0.04,-0.19 0.04,-0.09 0.11,-0.17 0.19,-0.23 0.08,-0.05 0.18,-0.08 0.28,-0.08l11.45 0c0.07,0 0.14,0.01 0.2,0.03 0.09,0.04 0.17,0.11 0.22,0.19 0.06,0.08 0.09,0.18 0.09,0.28l0 5.93c0,0.07 -0.02,0.14 -0.04,0.2 -0.04,0.09 -0.11,0.17 -0.19,0.22 -0.08,0.06 -0.17,0.09 -0.28,0.09l-11.45 0 0 0zm25.27 21.92l0 -11.99 3.04 0 0 11.99 -3.04 0 0 0zm8.34 -14.41c0,0.15 -0.03,0.28 -0.09,0.41 -0.08,0.19 -0.22,0.36 -0.39,0.48 -0.17,0.11 -0.38,0.18 -0.6,0.18l-35.69 0c-0.15,0 -0.29,-0.03 -0.42,-0.08 -0.19,-0.08 -0.36,-0.22 -0.47,-0.4 -0.12,-0.17 -0.19,-0.37 -0.19,-0.59l0 -2.91c0,-0.15 0.03,-0.29 0.09,-0.42 0.08,-0.19 0.22,-0.36 0.39,-0.47 0.17,-0.12 0.37,-0.19 0.6,-0.19l6.79 0c0.18,0 0.35,-0.07 0.48,-0.2 0.12,-0.12 0.2,-0.3 0.2,-0.48l0 -1.49 2.85 0 0.03 1.51c0,0.04 0.02,0.08 0.03,0.12 0.01,0.05 0.01,0.09 0.03,0.13 0.01,0.04 0.04,0.08 0.07,0.11 0.02,0.04 0.04,0.08 0.07,0.11 0.03,0.03 0.07,0.05 0.11,0.07 0.04,0.02 0.07,0.05 0.11,0.07 0.04,0.02 0.08,0.02 0.13,0.03 0.04,0 0.08,0.02 0.13,0.02l24.66 0c0.15,0 0.29,0.03 0.42,0.09 0.19,0.08 0.36,0.22 0.47,0.39 0.12,0.17 0.19,0.37 0.19,0.6l0 2.91z"/>
   <path class="fil2" d="M25.53 3.97c-0.62,-0.42 -1.37,-0.67 -2.17,-0.66 -0.53,0 -1.05,0.1 -1.51,0.3 -0.7,0.29 -1.29,0.79 -1.71,1.41 -0.41,0.61 -0.66,1.36 -0.66,2.16 0,0.54 0.11,1.05 0.31,1.52 0.29,0.69 0.78,1.28 1.4,1.7 0.62,0.42 1.37,0.66 2.17,0.66 0.53,0 1.05,-0.1 1.51,-0.3 0.7,-0.3 1.29,-0.79 1.71,-1.41 0.41,-0.62 0.66,-1.36 0.66,-2.17 0,-0.53 -0.11,-1.04 -0.31,-1.51 -0.29,-0.69 -0.78,-1.28 -1.4,-1.7l0 0zm0.16 4.2c-0.19,0.45 -0.51,0.84 -0.92,1.11 -0.4,0.27 -0.88,0.43 -1.41,0.43 -0.35,0 -0.68,-0.07 -0.98,-0.2 -0.46,-0.19 -0.84,-0.51 -1.12,-0.91 -0.27,-0.41 -0.43,-0.89 -0.43,-1.42 0,-0.35 0.07,-0.68 0.2,-0.98 0.19,-0.45 0.51,-0.84 0.92,-1.11 0.4,-0.28 0.88,-0.43 1.41,-0.43 0.35,0 0.68,0.07 0.98,0.2 0.46,0.19 0.84,0.51 1.12,0.91 0.27,0.41 0.43,0.89 0.43,1.41 0,0.36 -0.07,0.69 -0.2,0.99l0 0z"/>
  </g>
 </g>
</svg>
