<?xml version="1.0" encoding="UTF-8"?>
<!DOCTYPE svg PUBLIC "-//W3C//DTD SVG 1.1//EN" "http://www.w3.org/Graphics/SVG/1.1/DTD/svg11.dtd">
<!-- Creator: CorelDRAW 2019 (64-Bit) -->
<svg xmlns="http://www.w3.org/2000/svg" xml:space="preserve" width="500px" height="500px" version="1.1" style="shape-rendering:geometricPrecision; text-rendering:geometricPrecision; image-rendering:optimizeQuality; fill-rule:evenodd; clip-rule:evenodd"
viewBox="0 0 59.03 59.03"
 xmlns:xlink="http://www.w3.org/1999/xlink"
 xmlns:xodm="http://www.corel.com/coreldraw/odm/2003">
 <defs>
  <style type="text/css">
   <![CDATA[
    .fil0 {fill:none}
    .fil1 {fill:#BFE3F9;fill-rule:nonzero}
    .fil2 {fill:#3F476C;fill-rule:nonzero}
   ]]>
  </style>
 </defs>
 <g id="Warstwa_x0020_1">
  <metadata id="CorelCorpID_0Corel-Layer"/>
  <rect class="fil0" width="59.03" height="59.03"/>
  <g id="_2994537950784">
   <path class="fil1" d="M28.23 23.26l22.99 0c0.7,0 1.26,-0.57 1.26,-1.27l0 -4.7c0,-0.69 -0.56,-1.26 -1.26,-1.26l-22.99 0c-0.7,0 -1.26,0.57 -1.26,1.26l0 4.7c0,0.7 0.56,1.27 1.26,1.27l0 0z"/>
   <path class="fil1" d="M19.2 32.93c0,-1.76 -1.43,-3.19 -3.2,-3.19l-6.63 0c-1.77,0 -3.2,1.43 -3.2,3.19l0 7.79 13.03 0 0 -7.79z"/>
   <path class="fil1" d="M12.68 27.58c2.06,0 3.73,-1.67 3.73,-3.73 0,-2.06 -1.67,-3.73 -3.73,-3.73 -2.06,0 -3.73,1.67 -3.73,3.73 0,2.06 1.67,3.73 3.73,3.73l0 0z"/>
   <path class="fil2" d="M1.06 49.83c0.38,0.26 0.85,0.41 1.34,0.41l54.22 0c0.33,0 0.65,-0.06 0.94,-0.19 0.43,-0.18 0.8,-0.48 1.05,-0.87 0.27,-0.38 0.42,-0.84 0.42,-1.34l0 -36.65c0,-0.33 -0.07,-0.65 -0.19,-0.94 -0.18,-0.43 -0.49,-0.8 -0.87,-1.06 -0.39,-0.26 -0.85,-0.41 -1.35,-0.41l-10.84 0 -32.53 0 -10.85 0c-0.33,0 -0.64,0.07 -0.93,0.19 -0.44,0.19 -0.8,0.49 -1.06,0.87 -0.26,0.38 -0.41,0.85 -0.41,1.35l0 9.37c0,0.55 0.44,0.99 0.99,0.99 0.54,0 0.98,-0.44 0.98,-0.99l0 -9.37c0,-0.07 0.01,-0.12 0.04,-0.17 0.03,-0.08 0.08,-0.15 0.15,-0.19 0.07,-0.05 0.15,-0.08 0.24,-0.08l54.22 0c0.07,0 0.12,0.02 0.17,0.04 0.08,0.03 0.15,0.09 0.19,0.16 0.05,0.07 0.08,0.14 0.08,0.24l0 36.65c0,0.06 -0.02,0.12 -0.04,0.17 -0.03,0.07 -0.09,0.14 -0.15,0.19 -0.07,0.05 -0.15,0.07 -0.25,0.07l-54.22 0c-0.06,0 -0.11,-0.01 -0.16,-0.03 -0.08,-0.03 -0.15,-0.09 -0.2,-0.16 -0.04,-0.07 -0.07,-0.15 -0.07,-0.24l0 -20.71c0,-0.54 -0.44,-0.98 -0.98,-0.98 -0.55,0 -0.99,0.44 -0.99,0.98l0 20.71c0,0.33 0.07,0.65 0.19,0.94 0.18,0.43 0.49,0.79 0.87,1.05l0 0z"/>
   <path class="fil2" d="M53.08 23.25c0.24,-0.36 0.39,-0.8 0.39,-1.26l0 -4.7c0,-0.3 -0.07,-0.6 -0.18,-0.87 -0.17,-0.41 -0.46,-0.75 -0.81,-0.99 -0.36,-0.24 -0.8,-0.38 -1.26,-0.38l-22.99 0c-0.31,0 -0.61,0.06 -0.87,0.17 -0.41,0.17 -0.75,0.46 -0.99,0.82 -0.24,0.35 -0.39,0.79 -0.39,1.25l0 4.7c0,0.31 0.06,0.61 0.18,0.88 0.17,0.4 0.45,0.74 0.81,0.99 0.36,0.24 0.8,0.38 1.26,0.38l22.99 0c0.31,0 0.61,-0.06 0.87,-0.18 0.41,-0.17 0.75,-0.45 0.99,-0.81l0 0zm-1.59 -1.26c0,0.04 0,0.08 -0.02,0.11 -0.02,0.05 -0.05,0.09 -0.1,0.12 -0.04,0.03 -0.09,0.05 -0.15,0.05l-22.99 0c-0.04,0 -0.08,-0.01 -0.11,-0.02 -0.05,-0.02 -0.09,-0.06 -0.12,-0.1 -0.03,-0.05 -0.05,-0.1 -0.05,-0.16l0 -4.7c0,-0.04 0.01,-0.07 0.03,-0.1 0.02,-0.05 0.05,-0.1 0.1,-0.13 0.04,-0.03 0.09,-0.04 0.15,-0.04l22.99 0c0.04,0 0.07,0 0.11,0.02 0.04,0.02 0.09,0.05 0.12,0.1 0.03,0.04 0.04,0.09 0.04,0.15l0 4.7z"/>
   <path class="fil2" d="M5.9 30.59c-0.46,0.67 -0.72,1.48 -0.72,2.34l0 7.79c0,0.26 0.11,0.51 0.29,0.69 0.18,0.19 0.44,0.29 0.7,0.29l13.03 0c0.26,0 0.51,-0.1 0.7,-0.29 0.18,-0.18 0.29,-0.43 0.29,-0.69l0 -7.79c0,-0.57 -0.12,-1.12 -0.33,-1.62 -0.32,-0.76 -0.85,-1.39 -1.52,-1.84 -0.66,-0.46 -1.47,-0.72 -2.34,-0.72l-6.64 0c-0.57,0 -1.12,0.12 -1.63,0.33 -0.75,0.32 -1.38,0.85 -1.83,1.51l0 0zm3.46 0.13l6.64 0c0.31,0 0.6,0.06 0.86,0.17 0.4,0.17 0.74,0.45 0.98,0.81 0.24,0.35 0.37,0.77 0.38,1.23l0 6.8 -11.07 0 0 -6.8c0,-0.3 0.06,-0.59 0.17,-0.86 0.17,-0.39 0.46,-0.73 0.81,-0.97 0.35,-0.24 0.77,-0.38 1.23,-0.38l0 0z"/>
   <path class="fil2" d="M10.04 27.76c0.76,0.51 1.67,0.8 2.64,0.8 0.65,0 1.27,-0.13 1.84,-0.37 0.85,-0.36 1.57,-0.95 2.07,-1.71 0.51,-0.75 0.81,-1.66 0.81,-2.63 0,-0.65 -0.13,-1.27 -0.37,-1.84 -0.36,-0.85 -0.96,-1.56 -1.71,-2.07 -0.75,-0.51 -1.67,-0.81 -2.64,-0.81 -0.64,0 -1.27,0.13 -1.83,0.37 -0.85,0.36 -1.57,0.96 -2.08,1.71 -0.51,0.75 -0.8,1.66 -0.8,2.64 0,0.65 0.13,1.27 0.37,1.83 0.36,0.85 0.95,1.57 1.7,2.08l0 0zm0.11 -4.98c0.21,-0.49 0.56,-0.91 1,-1.21 0.44,-0.3 0.96,-0.47 1.53,-0.47 0.39,0 0.74,0.08 1.07,0.22 0.49,0.2 0.91,0.55 1.21,0.99 0.3,0.44 0.47,0.97 0.47,1.54 0,0.38 -0.08,0.74 -0.22,1.07 -0.2,0.49 -0.55,0.91 -0.99,1.2 -0.44,0.3 -0.96,0.47 -1.54,0.47 -0.38,0 -0.74,-0.07 -1.06,-0.21 -0.5,-0.21 -0.92,-0.56 -1.21,-1 -0.3,-0.44 -0.47,-0.96 -0.47,-1.53 0,-0.38 0.07,-0.74 0.21,-1.07l0 0z"/>
   <path class="fil2" d="M51.25 29.69l-23.05 0c-0.54,0 -0.99,0.45 -0.99,0.99 0,0.54 0.45,0.99 0.99,0.99l23.05 0c0.54,0 0.98,-0.45 0.98,-0.99 0,-0.54 -0.44,-0.99 -0.98,-0.99l0 0z"/>
   <path class="fil2" d="M51.25 37.12l-23.05 0c-0.54,0 -0.99,0.44 -0.99,0.98 0,0.55 0.45,0.99 0.99,0.99l23.05 0c0.54,0 0.98,-0.44 0.98,-0.99 0,-0.54 -0.44,-0.98 -0.98,-0.98l0 0z"/>
  </g>
 </g>
</svg>
