<?xml version="1.0" encoding="UTF-8"?>
<!DOCTYPE svg PUBLIC "-//W3C//DTD SVG 1.1//EN" "http://www.w3.org/Graphics/SVG/1.1/DTD/svg11.dtd">
<!-- Creator: CorelDRAW 2019 (64-Bit) -->
<svg xmlns="http://www.w3.org/2000/svg" xml:space="preserve" width="500px" height="500px" version="1.1" style="shape-rendering:geometricPrecision; text-rendering:geometricPrecision; image-rendering:optimizeQuality; fill-rule:evenodd; clip-rule:evenodd"
viewBox="0 0 42.19 42.19"
 xmlns:xlink="http://www.w3.org/1999/xlink"
 xmlns:xodm="http://www.corel.com/coreldraw/odm/2003">
 <defs>
  <style type="text/css">
   <![CDATA[
    .fil0 {fill:none}
    .fil1 {fill:#BFE3F9;fill-rule:nonzero}
    .fil2 {fill:#344977;fill-rule:nonzero}
   ]]>
  </style>
 </defs>
 <g id="Warstwa_x0020_1">
  <metadata id="CorelCorpID_0Corel-Layer"/>
  <rect class="fil0" width="42.19" height="42.19"/>
  <g id="_2957996503760">
   <path class="fil1" d="M38.03 8.06c0,-1.51 -1.22,-2.74 -2.73,-2.74l-6.04 0c-0.49,0 -0.9,-0.4 -0.9,-0.89l0 -0.95c0,-1.43 -1.15,-2.58 -2.57,-2.58l-9.54 0c-1.42,0 -2.57,1.15 -2.57,2.58l0 0.95c0,0.49 -0.4,0.89 -0.9,0.89l-5.89 0c-1.51,0 -2.73,1.23 -2.73,2.74l0 1.61 33.87 0 0 -1.61z"/>
   <path class="fil2" d="M38.03 10.57c0.24,0 0.47,-0.1 0.64,-0.27 0.17,-0.16 0.26,-0.39 0.26,-0.63l0 -1.61c0,-1 -0.41,-1.92 -1.06,-2.57 -0.66,-0.66 -1.57,-1.07 -2.57,-1.07l-6.04 0 0 -0.94c0.01,-0.96 -0.38,-1.84 -1.01,-2.46 -0.63,-0.63 -1.5,-1.02 -2.46,-1.02l-9.54 0c-0.95,0 -1.83,0.39 -2.45,1.02 -0.63,0.62 -1.02,1.5 -1.02,2.46l0 0.94 -5.89 0c-1,0 -1.91,0.41 -2.57,1.07 -0.65,0.65 -1.06,1.57 -1.06,2.57l0 1.61c0,0.24 0.1,0.47 0.27,0.63 0.16,0.17 0.39,0.27 0.63,0.27l1.56 0 0.97 7.75c0.06,0.49 0.51,0.84 1,0.78 0.5,-0.06 0.85,-0.51 0.78,-1l-0.93 -7.53 27.12 0 -3.55 28.51 0 0c-0.05,0.38 -0.23,0.7 -0.5,0.94 -0.26,0.23 -0.61,0.37 -0.99,0.37l-17.05 0c-0.38,0 -0.72,-0.14 -0.99,-0.37 -0.27,-0.24 -0.45,-0.56 -0.49,-0.94l0 0 -1.83 -14.69c-0.06,-0.49 -0.51,-0.84 -1.01,-0.78 -0.49,0.06 -0.84,0.51 -0.78,1.01l1.83 14.69 0 0c0.1,0.82 0.51,1.54 1.09,2.06 0.58,0.51 1.35,0.82 2.18,0.82l17.05 0c0.83,0 1.6,-0.31 2.18,-0.82 0.59,-0.52 0.99,-1.24 1.09,-2.06l0 0 3.58 -28.74 1.56 0 0 0zm-31.51 -1.8l-1.46 0 0 -0.71c0,-0.51 0.2,-0.97 0.54,-1.3 0.33,-0.34 0.79,-0.54 1.29,-0.54l5.89 0c0.5,0 0.95,-0.2 1.27,-0.52 0.33,-0.33 0.53,-0.78 0.53,-1.27l0 -0.95c0,-0.47 0.18,-0.88 0.49,-1.19 0.3,-0.3 0.72,-0.49 1.18,-0.49l9.54 0c0.47,0 0.88,0.19 1.19,0.49 0.3,0.31 0.49,0.72 0.49,1.19l0 0.95c0,0.49 0.2,0.94 0.52,1.27 0.32,0.32 0.78,0.52 1.27,0.52l6.04 0c0.51,0 0.96,0.2 1.29,0.54 0.34,0.33 0.54,0.79 0.54,1.3l0 0.71 -30.61 0 0 0z"/>
   <path class="fil2" d="M21.92 35.07l0 -20.38c0,-0.54 -0.44,-0.98 -0.97,-0.98 -0.54,0 -0.98,0.44 -0.98,0.98l0 20.38c0,0.54 0.44,0.98 0.98,0.98 0.53,0 0.97,-0.44 0.97,-0.98l0 0z"/>
   <path class="fil2" d="M15.25 35.07l0 -20.38c0,-0.54 -0.43,-0.98 -0.97,-0.98 -0.54,0 -0.98,0.44 -0.98,0.98l0 20.38c0,0.54 0.44,0.98 0.98,0.98 0.54,0 0.97,-0.44 0.97,-0.98l0 0z"/>
   <path class="fil2" d="M28.59 35.07l0 -20.38c0,-0.54 -0.44,-0.98 -0.97,-0.98 -0.54,0 -0.98,0.44 -0.98,0.98l0 20.38c0,0.54 0.44,0.98 0.98,0.98 0.53,0 0.97,-0.44 0.97,-0.98l0 0z"/>
  </g>
 </g>
</svg>
