<?xml version="1.0" encoding="UTF-8"?>
<!DOCTYPE svg PUBLIC "-//W3C//DTD SVG 1.1//EN" "http://www.w3.org/Graphics/SVG/1.1/DTD/svg11.dtd">
<!-- Creator: CorelDRAW 2019 (64-Bit) -->
<svg xmlns="http://www.w3.org/2000/svg" xml:space="preserve" width="500px" height="500px" version="1.1" style="shape-rendering:geometricPrecision; text-rendering:geometricPrecision; image-rendering:optimizeQuality; fill-rule:evenodd; clip-rule:evenodd"
viewBox="0 0 49.02 49.02"
 xmlns:xlink="http://www.w3.org/1999/xlink"
 xmlns:xodm="http://www.corel.com/coreldraw/odm/2003">
 <defs>
  <style type="text/css">
   <![CDATA[
    .fil0 {fill:none}
    .fil2 {fill:none;fill-rule:nonzero}
    .fil1 {fill:#BFE3F9;fill-rule:nonzero}
    .fil3 {fill:#3F476C;fill-rule:nonzero}
   ]]>
  </style>
 </defs>
 <g id="Warstwa_x0020_1">
  <metadata id="CorelCorpID_0Corel-Layer"/>
  <rect class="fil0" width="49.02" height="49.02"/>
  <g id="_1721937271680">
   <path class="fil1" d="M40.33 18.94l-0.83 -0.49 1.26 -0.54c1.23,-0.54 1.33,-2.1 0.16,-2.75l-18.73 -10.51c-0.56,-0.32 -1.27,-0.32 -1.82,0l-18.73 10.51c-1.17,0.65 -1.08,2.21 0.16,2.75l16.91 7.29 0.67 0.3 1.15 0.49c0.48,0.21 1.02,0.21 1.49,0l1.15 -0.49 0.68 -0.3 15.65 -6.75 0.83 0.49z"/>
   <line class="fil2" x1="25.59" y1="14.89" x2="35.52" y2= "20.66" />
   <polygon class="fil3" points="19.97,3.94 19.97,3.94 19.97,3.94 "/>
   <path class="fil3" d="M47.44 37.83l0 -14.12c0,-0.98 -0.52,-1.89 -1.38,-2.39l-4.78 -2.78c0.36,-0.2 0.68,-0.46 0.89,-0.78 0.26,-0.38 0.39,-0.83 0.39,-1.27 0,-0.4 -0.11,-0.8 -0.32,-1.16 -0.21,-0.35 -0.52,-0.66 -0.92,-0.88l0 0 -18.73 -10.51 0 0c-0.41,-0.23 -0.86,-0.34 -1.31,-0.34 -0.45,0 -0.9,0.11 -1.31,0.34l-18.73 10.51 0 0c-0.4,0.22 -0.71,0.53 -0.92,0.88 -0.22,0.36 -0.32,0.76 -0.32,1.16 0,0.44 0.13,0.89 0.38,1.27 0.26,0.38 0.64,0.7 1.1,0.9l0 0 7.59 3.28 -4.19 12.14 -0.01 0.03c-0.06,0.19 -0.09,0.39 -0.09,0.58 0,0.23 0.04,0.46 0.11,0.67 0.11,0.31 0.3,0.6 0.57,0.82 0.13,0.11 0.28,0.21 0.46,0.27 0.17,0.07 0.36,0.11 0.56,0.11l6.55 0c0.45,0 0.82,-0.37 0.82,-0.82 0,-0.45 -0.37,-0.82 -0.82,-0.82l-6.53 0c-0.01,0 -0.01,0 -0.01,-0.01 -0.02,-0.01 -0.04,-0.04 -0.05,-0.08 -0.02,-0.04 -0.03,-0.09 -0.02,-0.14 0,-0.03 0,-0.07 0.01,-0.11l4.15 -11.99 7.8 3.37 0 0 0.68 0.29 0 0 1.15 0.49 0 0c0.34,0.15 0.7,0.22 1.07,0.22 0.36,0 0.72,-0.07 1.07,-0.22l0 0 1.15 -0.49 0 0 0.67 -0.29 0 0 7.65 -3.3 4.31 11.92c0.01,0.04 0.02,0.08 0.02,0.11 0,0.05 -0.01,0.09 -0.03,0.13 -0.02,0.06 -0.05,0.09 -0.06,0.1l-17.58 0c-0.45,0 -0.82,0.37 -0.82,0.82 0,0.45 0.37,0.82 0.82,0.82l17.61 0c0.26,0 0.51,-0.07 0.72,-0.18 0.16,-0.09 0.3,-0.19 0.42,-0.31 0.18,-0.19 0.32,-0.4 0.41,-0.63 0.09,-0.23 0.14,-0.49 0.14,-0.75 0,-0.19 -0.03,-0.39 -0.09,-0.58l-0.01 -0.05 -4.36 -12.05 1.67 -0.72 6.92 4.01 0 12.58c-0.39,0.35 -0.75,0.74 -1,1.21 -0.32,0.6 -0.5,1.29 -0.5,2.02 0,0.6 0.12,1.17 0.34,1.68 0.32,0.77 0.87,1.43 1.55,1.89 0.69,0.47 1.52,0.74 2.41,0.74 0.59,0 1.16,-0.12 1.68,-0.34 0.77,-0.33 1.43,-0.87 1.89,-1.56 0.46,-0.68 0.74,-1.52 0.74,-2.41 0,-0.75 -0.19,-1.46 -0.53,-2.07 -0.27,-0.48 -0.64,-0.87 -1.05,-1.21l0 0zm-23.91 -13.38l0 0 -0.68 0.3 0 0 -1.15 0.49 0 0c-0.13,0.06 -0.28,0.09 -0.42,0.09 -0.15,0 -0.29,-0.03 -0.42,-0.09l0 0 -1.15 -0.49 -0.01 0 -0.67 -0.3 0 0 -16.9 -7.29c-0.19,-0.09 -0.31,-0.19 -0.38,-0.31 -0.08,-0.11 -0.12,-0.23 -0.12,-0.36 0,-0.11 0.03,-0.22 0.09,-0.32 0.06,-0.11 0.16,-0.21 0.32,-0.3l0 0 18.73 -10.51 0 0c0.15,-0.08 0.33,-0.13 0.51,-0.13 0.18,0 0.36,0.05 0.51,0.13l18.74 10.51 0 0c0.15,0.09 0.24,0.19 0.31,0.29 0.06,0.11 0.08,0.22 0.08,0.33 0,0.12 -0.03,0.25 -0.11,0.36 -0.07,0.12 -0.19,0.23 -0.38,0.31l-1.26 0.54 -4.07 1.76 -9.1 -5.27c-0.39,-0.23 -0.89,-0.1 -1.11,0.29 -0.23,0.39 -0.1,0.89 0.29,1.12l8.05 4.67 -9.7 4.18 0 0zm23.64 17.7c-0.2,0.48 -0.54,0.89 -0.97,1.18 -0.42,0.29 -0.93,0.46 -1.49,0.46 -0.37,0 -0.72,-0.08 -1.04,-0.21 -0.48,-0.21 -0.89,-0.55 -1.17,-0.97 -0.29,-0.43 -0.46,-0.94 -0.46,-1.5 0,-0.45 0.11,-0.88 0.32,-1.25 0.2,-0.38 0.48,-0.7 0.83,-0.94 0.22,-0.16 0.36,-0.41 0.36,-0.68l0 -13.4c0,-0.3 -0.16,-0.57 -0.41,-0.71l-6.28 -3.65 2.58 -1.11 5.8 3.36c0.35,0.21 0.57,0.58 0.57,0.98l0 14.49c0,0.27 0.14,0.53 0.36,0.68 0.37,0.24 0.67,0.57 0.88,0.95 0.21,0.38 0.33,0.81 0.33,1.28 0,0.38 -0.07,0.72 -0.21,1.04l0 0z"/>
  </g>
 </g>
</svg>
