<?xml version="1.0" encoding="UTF-8"?>
<!DOCTYPE svg PUBLIC "-//W3C//DTD SVG 1.1//EN" "http://www.w3.org/Graphics/SVG/1.1/DTD/svg11.dtd">
<!-- Creator: CorelDRAW 2019 (64-Bit) -->
<svg xmlns="http://www.w3.org/2000/svg" xml:space="preserve" width="500px" height="500px" version="1.1" style="shape-rendering:geometricPrecision; text-rendering:geometricPrecision; image-rendering:optimizeQuality; fill-rule:evenodd; clip-rule:evenodd"
viewBox="0 0 42.59 42.59"
 xmlns:xlink="http://www.w3.org/1999/xlink"
 xmlns:xodm="http://www.corel.com/coreldraw/odm/2003">
 <defs>
  <style type="text/css">
   <![CDATA[
    .fil0 {fill:none}
    .fil1 {fill:#BFE3F9;fill-rule:nonzero}
    .fil2 {fill:#3F476C;fill-rule:nonzero}
   ]]>
  </style>
 </defs>
 <g id="Warstwa_x0020_1">
  <metadata id="CorelCorpID_0Corel-Layer"/>
  <rect class="fil0" width="42.59" height="42.59"/>
  <g id="_2957747194736">
   <path class="fil1" d="M40.81 34.65c0,-3.99 -3.24,-7.22 -7.23,-7.22 -0.17,0 -0.34,0.01 -0.51,0.02 -0.51,0.04 -1.01,0.13 -1.49,0.26 -3.01,0.87 -5.22,3.65 -5.22,6.94 0,0.94 0.18,1.84 0.5,2.66 0.21,0.52 0.48,1.02 0.8,1.48 1.31,1.87 3.47,3.09 5.92,3.09 3.99,0 7.23,-3.24 7.23,-7.23l0 0z"/>
   <path class="fil2" d="M13.77 24.84l9.09 0c0.39,0 0.71,-0.32 0.71,-0.71 0,-0.39 -0.32,-0.71 -0.71,-0.71l-9.09 0c-0.39,0 -0.71,0.32 -0.71,0.71 0,0.39 0.32,0.71 0.71,0.71l0 0z"/>
   <path class="fil2" d="M13.77 21.52l19.66 0c0.39,0 0.71,-0.31 0.71,-0.71 0,-0.39 -0.32,-0.71 -0.71,-0.71l-19.66 0c-0.39,0 -0.71,0.32 -0.71,0.71 0,0.4 0.32,0.71 0.71,0.71l0 0z"/>
   <path class="fil2" d="M19.49 42.59l14.09 0c1.1,0 2.14,-0.22 3.09,-0.63 1.43,-0.6 2.64,-1.6 3.49,-2.87 0.86,-1.27 1.36,-2.8 1.36,-4.44 0,-1.09 -0.22,-2.14 -0.63,-3.08 -0.6,-1.43 -1.6,-2.64 -2.87,-3.49 -0.36,-0.25 -0.75,-0.46 -1.16,-0.64l0 -16.03c0,-0.3 -0.06,-0.58 -0.16,-0.84 -0.16,-0.38 -0.43,-0.7 -0.77,-0.93 -0.35,-0.23 -0.76,-0.37 -1.2,-0.37l-0.96 0 0 -0.95c0.01,-0.3 -0.06,-0.58 -0.16,-0.84 -0.17,-0.38 -0.44,-0.7 -0.78,-0.93 -0.34,-0.23 -0.75,-0.37 -1.19,-0.37l-0.96 0 0 -0.95c0,-0.3 -0.05,-0.58 -0.16,-0.84 -0.17,-0.38 -0.44,-0.7 -0.78,-0.93 -0.34,-0.24 -0.75,-0.37 -1.19,-0.37l-0.95 0 0 -0.95c0,-0.3 -0.07,-0.58 -0.17,-0.84 -0.17,-0.38 -0.44,-0.7 -0.78,-0.93 -0.34,-0.23 -0.75,-0.37 -1.19,-0.37l-22.26 0c-0.29,0 -0.57,0.06 -0.83,0.17 -0.38,0.16 -0.71,0.43 -0.94,0.77 -0.23,0.34 -0.36,0.76 -0.36,1.2l0 29.04c0,0.29 0.06,0.58 0.17,0.83 0.16,0.39 0.43,0.71 0.77,0.94 0.34,0.23 0.75,0.37 1.19,0.37l0.96 0 0 0.95c0,0.29 0.06,0.58 0.17,0.83 0.16,0.39 0.43,0.71 0.77,0.94 0.34,0.23 0.75,0.37 1.19,0.37l0.96 0 0 0.95c0,0.29 0.06,0.58 0.17,0.83 0.16,0.39 0.43,0.71 0.77,0.94 0.34,0.23 0.75,0.37 1.19,0.37l0.96 0 0 0.95c0,0.29 0.06,0.58 0.17,0.83 0.16,0.39 0.43,0.71 0.77,0.94 0.34,0.23 0.75,0.37 1.19,0.37l2.29 0c0.39,0 0.71,-0.32 0.71,-0.71 0,-0.4 -0.32,-0.71 -0.71,-0.71l-2.29 0c-0.1,0 -0.19,-0.02 -0.27,-0.06 -0.13,-0.05 -0.24,-0.14 -0.32,-0.26 -0.08,-0.11 -0.12,-0.25 -0.12,-0.4l0 -22.44 6.71 0c0.19,0 0.37,-0.08 0.5,-0.21 0.13,-0.13 0.21,-0.31 0.21,-0.5l0 -6.6c0.02,0 0.04,-0.01 0.06,-0.01l15.49 0c0.1,0 0.19,0.02 0.28,0.06 0.12,0.05 0.23,0.14 0.31,0.26 0.08,0.11 0.12,0.25 0.12,0.4l0 15.55c-0.59,-0.14 -1.21,-0.24 -1.86,-0.24 -0.19,0 -0.38,0.01 -0.57,0.02l0.01 0c-0.56,0.04 -1.11,0.14 -1.63,0.29l0 0c-1.66,0.48 -3.09,1.48 -4.11,2.81 -0.51,0.67 -0.92,1.42 -1.2,2.23 -0.28,0.81 -0.43,1.68 -0.43,2.58 0,1.03 0.2,2.01 0.55,2.92 0.23,0.58 0.53,1.12 0.88,1.62 0.55,0.79 1.28,1.43 2.07,1.98l-9.66 0c-0.39,0 -0.71,0.31 -0.71,0.71 0,0.39 0.32,0.71 0.71,0.71l0 0zm-16.29 -10.69c-0.1,0 -0.19,-0.02 -0.27,-0.06 -0.13,-0.05 -0.24,-0.15 -0.32,-0.26 -0.08,-0.11 -0.12,-0.25 -0.12,-0.4l0 -29.04c0,-0.11 0.02,-0.2 0.05,-0.28 0.06,-0.13 0.15,-0.24 0.27,-0.32 0.11,-0.08 0.24,-0.12 0.39,-0.12l22.26 0c0.1,0 0.19,0.02 0.28,0.06 0.12,0.05 0.24,0.14 0.31,0.26 0.08,0.11 0.12,0.25 0.12,0.4l0 0.95 -19.88 0c-0.29,0 -0.57,0.06 -0.83,0.17 -0.38,0.16 -0.71,0.43 -0.94,0.77 -0.23,0.34 -0.36,0.76 -0.36,1.2l0 26.67 -0.96 0 0 0zm3.09 3.09c-0.1,0 -0.19,-0.02 -0.28,-0.06 -0.12,-0.05 -0.23,-0.15 -0.31,-0.26 -0.08,-0.11 -0.12,-0.25 -0.12,-0.4l0 -29.04c0,-0.11 0.02,-0.2 0.05,-0.28 0.06,-0.13 0.15,-0.24 0.26,-0.32 0.12,-0.07 0.25,-0.12 0.4,-0.12l22.26 0c0.1,0 0.19,0.02 0.28,0.06 0.13,0.05 0.23,0.14 0.31,0.26 0.08,0.11 0.12,0.24 0.12,0.4l0 0.95 -19.88 0c-0.29,0 -0.57,0.06 -0.83,0.17 -0.38,0.16 -0.71,0.43 -0.94,0.77 -0.23,0.34 -0.36,0.76 -0.36,1.2l0 26.67 -0.96 0 0 0zm5.96 -18.4l5.51 -4.93 0 4.93 -5.51 0 0 0zm5.33 -6.69l0 0 -6.41 5.75 0 0c-0.42,0.37 -0.69,0.88 -0.79,1.43 -0.02,0.07 -0.04,0.14 -0.04,0.22 0,0.02 0.01,0.04 0.01,0.07 0,0.04 -0.01,0.08 -0.01,0.13l0 20.58 -0.96 0c-0.1,0 -0.19,-0.02 -0.27,-0.06 -0.13,-0.05 -0.24,-0.15 -0.32,-0.26 -0.08,-0.11 -0.12,-0.25 -0.12,-0.4l0 -29.04c0,-0.11 0.02,-0.2 0.05,-0.28 0.06,-0.13 0.15,-0.24 0.26,-0.32 0.12,-0.07 0.25,-0.12 0.4,-0.12l22.26 0c0.1,0 0.19,0.02 0.28,0.06 0.12,0.05 0.24,0.14 0.31,0.26 0.08,0.11 0.12,0.24 0.12,0.4l0 0.95 -13.11 0c-0.61,0 -1.2,0.23 -1.66,0.63l0 0zm12.95 30.51c-0.91,-0.49 -1.7,-1.19 -2.29,-2.03l0 0c-0.29,-0.41 -0.53,-0.86 -0.72,-1.33l0 0c-0.29,-0.74 -0.45,-1.55 -0.45,-2.4 0,-0.74 0.13,-1.45 0.36,-2.12 0.68,-1.99 2.31,-3.55 4.35,-4.14l0 0c0.43,-0.12 0.87,-0.2 1.33,-0.23l0 0c0.16,-0.01 0.32,-0.02 0.47,-0.02 0.91,0 1.76,0.18 2.54,0.51 1.17,0.5 2.16,1.32 2.87,2.36 0.7,1.04 1.11,2.29 1.11,3.64 0,0.9 -0.18,1.76 -0.51,2.54 -0.5,1.17 -1.32,2.16 -2.36,2.86 -1.04,0.71 -2.29,1.12 -3.65,1.12 -1.1,0 -2.14,-0.28 -3.05,-0.76l0 0z"/>
   <polygon class="fil2" points="26.2,37.57 26.2,37.57 26.2,37.57 "/>
   <path class="fil2" d="M27.08 39.19c0,0 0,0 0,0l0 0z"/>
   <path class="fil2" d="M33.58 29.7c-0.39,0 -0.7,0.32 -0.7,0.71l0 2.76c0,0.39 0.31,0.71 0.7,0.71 0.4,0 0.71,-0.32 0.71,-0.71l0 -2.76c0,-0.39 -0.31,-0.71 -0.71,-0.71l0 0z"/>
   <path class="fil2" d="M33.58 35.43c-0.39,0 -0.7,0.32 -0.7,0.71l0 2.76c0,0.39 0.31,0.71 0.7,0.71 0.4,0 0.71,-0.32 0.71,-0.71l0 -2.76c0,-0.39 -0.31,-0.71 -0.71,-0.71l0 0z"/>
   <path class="fil2" d="M38.54 34.65c0,-0.39 -0.32,-0.71 -0.71,-0.71l-2.76 0c-0.39,0 -0.71,0.32 -0.71,0.71 0,0.4 0.32,0.71 0.71,0.71l2.76 0c0.39,0 0.71,-0.31 0.71,-0.71l0 0z"/>
   <path class="fil2" d="M32.1 33.94l-2.76 0c-0.39,0 -0.71,0.32 -0.71,0.71 0,0.4 0.32,0.71 0.71,0.71l2.76 0c0.39,0 0.71,-0.31 0.71,-0.71 0,-0.39 -0.32,-0.71 -0.71,-0.71l0 0z"/>
  </g>
 </g>
</svg>
