<?xml version="1.0" encoding="UTF-8"?>
<!DOCTYPE svg PUBLIC "-//W3C//DTD SVG 1.1//EN" "http://www.w3.org/Graphics/SVG/1.1/DTD/svg11.dtd">
<!-- Creator: CorelDRAW 2019 (64-Bit) -->
<svg xmlns="http://www.w3.org/2000/svg" xml:space="preserve" width="500px" height="500px" version="1.1" style="shape-rendering:geometricPrecision; text-rendering:geometricPrecision; image-rendering:optimizeQuality; fill-rule:evenodd; clip-rule:evenodd"
viewBox="0 0 19.43 19.43"
 xmlns:xlink="http://www.w3.org/1999/xlink"
 xmlns:xodm="http://www.corel.com/coreldraw/odm/2003">
 <defs>
  <style type="text/css">
   <![CDATA[
    .fil0 {fill:none}
    .fil1 {fill:#BFE3F9;fill-rule:nonzero}
    .fil2 {fill:#3F476B;fill-rule:nonzero}
   ]]>
  </style>
 </defs>
 <g id="Warstwa_x0020_1">
  <metadata id="CorelCorpID_0Corel-Layer"/>
  <rect class="fil0" width="19.43" height="19.43"/>
  <g id="_2240865013904">
   <path class="fil1" d="M14.25 11.5c0.99,0.04 1.82,-0.72 1.86,-1.7 0.04,-0.99 -0.72,-1.82 -1.71,-1.86 -0.98,-0.04 -1.81,0.73 -1.85,1.71 -0.04,0.98 0.72,1.81 1.7,1.85l0 0z"/>
   <path class="fil2" d="M0.35 14.74c0.35,0 0.61,0.05 0.82,0.1 0.21,0.06 0.37,0.13 0.55,0.22 0.15,0.07 0.32,0.14 0.53,0.2 0.2,0.05 0.45,0.09 0.76,0.09 0,0 0,0 0,0l0 0c0,0 0,0 0,0 0,0 0.02,0 0.03,0l0 0c0.29,-0.01 0.53,-0.04 0.72,-0.09 0.21,-0.06 0.38,-0.13 0.53,-0.2 0.18,-0.09 0.34,-0.16 0.55,-0.22 0.21,-0.05 0.47,-0.1 0.82,-0.1l0 0c0.36,0 0.61,0.05 0.82,0.1 0.21,0.06 0.38,0.13 0.55,0.22 0.16,0.07 0.32,0.14 0.53,0.2 0.21,0.05 0.45,0.09 0.76,0.09 0.01,0 0.02,0 0.04,0l0 0c0.28,-0.01 0.52,-0.04 0.72,-0.09 0.2,-0.06 0.37,-0.13 0.52,-0.2 0.18,-0.09 0.34,-0.16 0.55,-0.22 0.21,-0.05 0.47,-0.1 0.82,-0.1l0 0c0.36,0 0.61,0.05 0.82,0.1 0.21,0.06 0.38,0.13 0.55,0.22 0.16,0.07 0.32,0.14 0.53,0.2 0.21,0.06 0.45,0.09 0.76,0.09 0.01,0 0.02,0 0.04,0l0 0c0.29,-0.01 0.52,-0.04 0.72,-0.09 0.21,-0.06 0.37,-0.13 0.52,-0.2 0.18,-0.08 0.35,-0.16 0.56,-0.22 0.21,-0.05 0.46,-0.1 0.82,-0.1l0 0c0.35,0 0.61,0.05 0.82,0.1 0.21,0.06 0.37,0.14 0.55,0.22 0.15,0.07 0.32,0.14 0.52,0.2 0.21,0.06 0.46,0.09 0.76,0.09 0.2,0 0.35,-0.16 0.35,-0.35 0,-0.19 -0.15,-0.35 -0.35,-0.35 -0.26,0 -0.43,-0.03 -0.57,-0.07 -0.15,-0.03 -0.27,-0.09 -0.42,-0.16 -0.18,-0.08 -0.39,-0.18 -0.66,-0.25 -0.26,-0.07 -0.59,-0.12 -0.98,-0.12l0 0c0,0 -0.01,0 -0.02,0l0 0 0 0c-0.41,0 -0.74,0.04 -1.01,0.12 -0.27,0.07 -0.48,0.17 -0.65,0.25 -0.16,0.07 -0.28,0.12 -0.43,0.16 -0.14,0.04 -0.31,0.07 -0.57,0.07l0 0c-0.26,0 -0.43,-0.03 -0.57,-0.07 -0.15,-0.04 -0.27,-0.09 -0.43,-0.16 -0.17,-0.08 -0.38,-0.18 -0.65,-0.25 -0.27,-0.07 -0.59,-0.12 -0.99,-0.12l0 0c0,0 0,0 -0.02,0l0 0 0 0c-0.41,-0.01 -0.73,0.04 -1,0.12 -0.27,0.07 -0.48,0.17 -0.66,0.25 -0.15,0.07 -0.27,0.12 -0.42,0.16 -0.14,0.04 -0.31,0.07 -0.57,0.07l0 0c0,0 0,0 0,0 -0.26,0 -0.43,-0.03 -0.58,-0.07 -0.14,-0.04 -0.26,-0.09 -0.42,-0.16 -0.17,-0.08 -0.39,-0.18 -0.65,-0.25 -0.27,-0.08 -0.59,-0.12 -1,-0.12l0 -0.01c0,0 0,0 -0.01,0l0 0c0,0 0,0 0,0 -0.41,0 -0.73,0.05 -1,0.13 -0.27,0.07 -0.48,0.17 -0.66,0.25l0 0c-0.15,0.07 -0.28,0.12 -0.42,0.16 -0.14,0.04 -0.32,0.07 -0.57,0.07l0 0 0 0c-0.26,0 -0.44,-0.03 -0.58,-0.07 -0.14,-0.04 -0.26,-0.09 -0.42,-0.16 -0.18,-0.08 -0.39,-0.18 -0.66,-0.25 -0.27,-0.08 -0.59,-0.13 -1,-0.13 -0.19,0 -0.35,0.16 -0.35,0.35 0,0.2 0.16,0.35 0.35,0.35l0 0z"/>
   <polygon class="fil2" points="15.26,6.2 15.27,6.2 15.27,6.2 15.26,6.2 "/>
   <path class="fil2" d="M17.22 8.51c0,0 0,0 0,0 0,0 0,0 0,0l0 0 0 0z"/>
   <path class="fil2" d="M10.83 9.58c0,0 0,0 0,0 0,0 0,0 0,0l0 0z"/>
   <path class="fil2" d="M16.17 4.9l0 0c0,0 0,0 0,0l0 0 0 0z"/>
   <path class="fil2" d="M11.54 8.37c0,0 0,0 0,0l0 0 0 0 0 0z"/>
   <path class="fil2" d="M16.78 7.4c0,0 0,0 0,0 0,0 0,0 0,0l0 0 0 0z"/>
   <path class="fil2" d="M0.49 12.27c0.35,0 0.61,0.04 0.82,0.1 0.21,0.06 0.37,0.13 0.55,0.21l0 0c0.15,0.07 0.32,0.15 0.53,0.21 0.2,0.05 0.45,0.09 0.75,0.09l0.01 0c0,0 0,0 0,0 0,0 0.02,0 0.03,-0.01l0 0c0.29,0 0.52,-0.03 0.72,-0.08 0.21,-0.06 0.38,-0.14 0.53,-0.21l0 0c0.18,-0.08 0.34,-0.15 0.55,-0.21 0.21,-0.06 0.47,-0.1 0.82,-0.1l0 0c0.35,0 0.61,0.04 0.82,0.1 0.21,0.06 0.38,0.13 0.55,0.21l0 0c0.16,0.07 0.32,0.15 0.53,0.21 0.21,0.05 0.45,0.09 0.76,0.09l0 0c0,0 0,0 0,0 0.01,0 0.02,0 0.04,-0.01l0 0c0.28,0 0.52,-0.03 0.72,-0.08 0.2,-0.06 0.37,-0.14 0.52,-0.21l0 0c0.18,-0.08 0.34,-0.15 0.55,-0.21 0.21,-0.06 0.47,-0.1 0.82,-0.1l0 0c0.36,0 0.61,0.04 0.82,0.1 0.21,0.06 0.38,0.13 0.55,0.21l0 0c0.16,0.07 0.32,0.15 0.53,0.21 0.21,0.05 0.45,0.09 0.76,0.09 0.16,0 0.31,-0.01 0.44,-0.03l0 0c0.11,0 0.22,-0.01 0.34,-0.01 0.09,0.01 0.17,0.02 0.26,0.03l0.01 0c0.04,0 0.08,0 0.13,0l0 0c0,0 0,0 0.01,0 0,0 0,0 0,0l0 0c0.01,0 0.01,0 0.02,0 0.02,0 0.03,0 0.06,-0.01 0,0 0,0 0,0 0.13,-0.01 0.27,-0.02 0.41,-0.05 0.24,-0.06 0.48,-0.14 0.71,-0.22 0.22,-0.09 0.41,-0.17 0.55,-0.24 0.06,-0.03 0.13,-0.04 0.19,-0.04 0.02,0 0.05,0 0.07,0 0.35,0.06 0.58,0.16 0.83,0.27l0 0c0.15,0.07 0.32,0.15 0.52,0.21 0.21,0.05 0.46,0.09 0.76,0.09 0.2,0 0.35,-0.16 0.35,-0.35 0,-0.19 -0.15,-0.35 -0.35,-0.35 -0.26,0 -0.43,-0.03 -0.57,-0.07 -0.15,-0.04 -0.27,-0.09 -0.42,-0.16l0 0c-0.25,-0.11 -0.57,-0.26 -1.01,-0.33 -0.06,-0.01 -0.12,-0.01 -0.18,-0.01 -0.17,0 -0.33,0.04 -0.49,0.11 -0.17,0.08 -0.43,0.19 -0.71,0.29 -0.14,0.05 -0.28,0.09 -0.41,0.12 -0.13,0.02 -0.24,0.04 -0.33,0.04l0 0 0 0c-0.04,0 -0.08,0 -0.12,0 -0.08,-0.01 -0.16,-0.01 -0.24,-0.02 -0.01,0 -0.03,-0.01 -0.05,-0.01 -0.12,0.01 -0.23,0.01 -0.35,0.01 -0.02,0 -0.03,0 -0.05,0 -0.1,0.02 -0.23,0.03 -0.38,0.03 -0.26,0 -0.43,-0.03 -0.58,-0.07 -0.14,-0.04 -0.26,-0.09 -0.42,-0.16l0 0c-0.17,-0.08 -0.38,-0.18 -0.65,-0.25 -0.03,-0.01 -0.06,-0.01 -0.09,-0.02 0.08,-0.12 0.08,-0.27 0,-0.39 -0.02,-0.03 -0.04,-0.05 -0.05,-0.07l-0.01 -0.01c-0.01,-0.01 -0.01,-0.02 -0.02,-0.04l-0.01 -0.01 -0.01 -0.02c-0.01,0 -0.01,-0.01 -0.02,-0.02l0 -0.01c-0.01,-0.02 -0.02,-0.04 -0.03,-0.06l-0.01 -0.01c0,0 -0.01,-0.02 -0.02,-0.04 -0.02,-0.04 -0.04,-0.08 -0.06,-0.12l0 0c-0.02,-0.04 -0.04,-0.07 -0.05,-0.1l0 -0.02c-0.01,-0.01 -0.01,-0.02 -0.02,-0.04l-0.01 -0.01c0,-0.02 -0.01,-0.03 -0.02,-0.05l0 0c0,-0.01 0,-0.02 0,-0.02l0 0 0 0 -0.01 -0.02c-0.01,-0.02 -0.01,-0.04 -0.02,-0.06 0,-0.01 0,-0.01 0,-0.02l0 0 -0.01 0 0 -0.01c-0.01,-0.02 -0.01,-0.05 -0.02,-0.08l0 -0.01c-0.01,-0.01 -0.01,-0.03 -0.02,-0.06l0 -0.01c-0.01,-0.02 -0.01,-0.05 -0.02,-0.07l0 -0.02c0,-0.01 -0.01,-0.02 -0.01,-0.05l0 0 0 -0.01 0 0 0 0c-0.01,0 -0.01,-0.01 -0.01,-0.01 0,-0.02 0,-0.04 -0.01,-0.06l0 0 0 -0.01 0 -0.01c0,-0.02 0,-0.03 -0.01,-0.04 0,-0.01 0,-0.02 0,-0.03l0 -0.02 0 -0.01 0 0 0 -0.02c-0.01,-0.02 -0.01,-0.03 -0.01,-0.05l0 -0.01c0,-0.03 -0.01,-0.06 -0.01,-0.1l0 0 0 -0.04c0,-0.03 0,-0.06 0,-0.08 0,-0.04 0,-0.08 0,-0.12l0 0c0.01,-0.06 0.01,-0.12 0.02,-0.17l0 0c0,-0.02 0,-0.04 0,-0.05 0,-0.02 0.01,-0.04 0.01,-0.05l0 0c0,-0.08 -0.03,-0.16 -0.08,-0.22 -0.14,-0.17 -0.29,-0.35 -0.46,-0.53 0.07,-0.03 0.13,-0.05 0.21,-0.08 0.1,-0.05 0.21,-0.09 0.31,-0.14 0.29,-0.12 0.53,-0.3 0.73,-0.52l0 0c0.29,-0.3 0.64,-0.53 1.03,-0.68 0.01,-0.01 0.02,-0.01 0.03,-0.01 0.07,-0.04 0.14,-0.07 0.2,-0.11 0.02,0 0.03,-0.01 0.04,-0.02 0.21,-0.13 0.46,-0.29 0.69,-0.42l0 0c0.06,-0.04 0.13,-0.06 0.2,-0.06 0.11,0 0.22,0.04 0.29,0.13l0 0 0.2 0.21c0.02,0.01 0.03,0.03 0.05,0.04 0.13,0.1 0.27,0.21 0.41,0.31 0.02,0.02 0.04,0.03 0.06,0.04 0.29,0.14 0.56,0.35 0.79,0.6l0 0c0.14,0.15 0.26,0.31 0.36,0.49 0.03,0.04 0.07,0.08 0.11,0.11l0 0c0.06,0.04 0.12,0.06 0.18,0.06 0.02,0 0.04,0 0.05,0 0.09,0 0.17,0 0.26,-0.03 0.25,-0.06 0.46,-0.2 0.61,-0.39 0.14,-0.19 0.22,-0.42 0.22,-0.66 0,-0.12 -0.02,-0.25 -0.07,-0.37 -0.04,-0.12 -0.11,-0.23 -0.2,-0.33l0 0 -1.61 -1.86c-0.46,-0.53 -1.12,-0.82 -1.79,-0.82 -0.39,0 -0.79,0.1 -1.16,0.31l0 0c-0.72,0.41 -1.64,0.94 -2.56,1.49 -0.93,0.55 -1.86,1.13 -2.61,1.65 -0.16,0.1 -0.21,0.32 -0.1,0.48 0.11,0.16 0.33,0.2 0.49,0.09 0.74,-0.5 1.66,-1.07 2.58,-1.62 0.91,-0.55 1.83,-1.07 2.55,-1.48l0 0c0.25,-0.15 0.53,-0.22 0.81,-0.22 0.24,0 0.47,0.05 0.69,0.15 0.21,0.09 0.41,0.24 0.57,0.43l0 0 1.61 1.85 0 0c0.04,0.04 0.06,0.08 0.08,0.12 0.01,0.04 0.02,0.09 0.02,0.13 0,0.08 -0.03,0.17 -0.08,0.24 -0.05,0.05 -0.11,0.09 -0.19,0.12 -0.09,-0.14 -0.18,-0.29 -0.3,-0.42 -0.28,-0.29 -0.6,-0.53 -0.95,-0.71 -0.13,-0.1 -0.26,-0.2 -0.39,-0.3l-0.17 -0.19c-0.22,-0.23 -0.51,-0.35 -0.81,-0.35 -0.19,0 -0.38,0.05 -0.56,0.16l0 0c-0.22,0.13 -0.47,0.28 -0.69,0.43 -0.06,0.03 -0.13,0.06 -0.19,0.09l0 0c-0.48,0.18 -0.91,0.47 -1.26,0.84l0 0c-0.14,0.16 -0.31,0.28 -0.5,0.36l0 0c-0.1,0.05 -0.2,0.09 -0.29,0.13 -0.1,0.04 -0.18,0.07 -0.23,0.09 -0.14,0.05 -0.26,0.14 -0.33,0.25 -0.08,0.11 -0.12,0.24 -0.12,0.37 0,0.08 0.02,0.16 0.05,0.24 0.03,0.08 0.07,0.15 0.13,0.21l0 0c0.14,0.15 0.26,0.29 0.37,0.43 0,0.04 0,0.09 -0.01,0.13 0,0.05 0,0.1 0,0.15 0,0.04 0,0.07 0,0.1l0 0.01 0.01 0.04 0 0c0,0.05 0,0.09 0,0.13l0 0c0,0 0,0 0,0 0,0 0,0 0,0.01l0 0c0.01,0.01 0.01,0.03 0.01,0.05l0 0c0,0 0,0 0,0 0,0.01 0,0.02 0,0.02l0 0c0,0.02 0,0.03 0.01,0.04l0 0c0,0 0,0.01 0,0.01l0 0c0,0.04 0.01,0.07 0.01,0.1l0 0 0 0.02 0 -0.01c0.01,0.03 0.01,0.07 0.02,0.1l0 0c0,0 0,0.01 0,0.01l0 0c0,0 0,0 0,0l0 0 0 0c0.01,0.02 0.01,0.05 0.02,0.07l0 0c0,0 0,0.01 0,0.01 0,0 0,0 0,0.01l0 0c0.01,0.03 0.01,0.06 0.02,0.09l0 0c0,0 0,0.01 0,0.01 0,0 0,0 0,0l0 0c0.01,0.02 0.02,0.05 0.02,0.08l0 0c0,0.01 0.01,0.01 0.01,0.01 0,0 0,0 0,0l0 0c0,0.03 0.01,0.06 0.03,0.1l0 0 0 0c0,0 0,0.01 0,0.01l0 0c0,0 0,0.01 0,0.01l0 0c0.01,0.04 0.02,0.07 0.03,0.1l0 0c0.01,0.01 0.02,0.03 0.02,0.03l0 0c0,0.02 0.01,0.05 0.02,0.07l0 0c0,0 0,0.01 0.01,0.01 0,0 0,0 0,0.01l0 0c0,0.01 0.01,0.03 0.02,0.06l0 0c0,0 0,0 0.01,0 0,0.01 0,0.01 0,0.01l0 0c0.02,0.04 0.03,0.08 0.05,0.12l0 0c0,0 0,0.01 0,0.01 0.01,0 0.01,0 0.01,0l0 0c0.02,0.05 0.05,0.11 0.07,0.15l0 0c0.01,0.02 0.02,0.04 0.04,0.07l0 0c0.01,0.02 0.02,0.04 0.04,0.07l0 0c0.01,0.01 0.02,0.03 0.03,0.05l0 0 0.01 0.02 0 0c0.01,0.01 0.02,0.03 0.04,0.05 -0.09,-0.01 -0.16,-0.01 -0.26,-0.02l0 0c0,0 0,0 -0.02,0 0,0 0,0 0,0l0 0c-0.41,0 -0.73,0.05 -1,0.13 -0.27,0.07 -0.48,0.17 -0.66,0.25l0 0c-0.15,0.07 -0.27,0.12 -0.42,0.16 -0.14,0.04 -0.31,0.07 -0.57,0.07l0 0c-0.26,0 -0.43,-0.03 -0.58,-0.07 -0.14,-0.04 -0.26,-0.09 -0.42,-0.16l0 0c-0.17,-0.08 -0.39,-0.18 -0.65,-0.25 -0.27,-0.08 -0.6,-0.13 -1,-0.13l0 0c0,0 0,0 -0.01,0l0 0c0,0 0,0 0,0 -0.41,0 -0.73,0.05 -1,0.13 -0.27,0.07 -0.48,0.17 -0.66,0.25l0 0c-0.15,0.07 -0.28,0.12 -0.42,0.16 -0.14,0.04 -0.32,0.07 -0.57,0.07l-0.01 0 0 0c-0.25,0 -0.43,-0.03 -0.57,-0.07 -0.12,-0.03 -0.23,-0.08 -0.35,-0.14l3.41 -2.1c0.16,-0.1 0.21,-0.32 0.11,-0.48 -0.1,-0.16 -0.31,-0.22 -0.48,-0.11l-3.59 2.21c-0.08,0.05 -0.13,0.13 -0.16,0.21 0,0 -0.01,0 -0.02,0 -0.27,-0.08 -0.59,-0.13 -1,-0.13 -0.19,0 -0.35,0.16 -0.35,0.35 0,0.2 0.16,0.35 0.35,0.35l0 0zm14.55 0.59l-0.01 -0.01 0 0 0.01 0.01 0 0zm-3.38 -2.32l0 0 0 0 0 0 0 0z"/>
   <path class="fil2" d="M14.33 11.85c0.57,0 1.09,-0.22 1.47,-0.59 0.38,-0.36 0.63,-0.88 0.66,-1.45 0,-0.03 0,-0.06 0,-0.09 0,-0.57 -0.23,-1.09 -0.59,-1.47 -0.37,-0.38 -0.88,-0.63 -1.45,-0.66 -0.03,0 -0.06,0 -0.09,0 -0.57,0 -1.09,0.23 -1.48,0.59 -0.38,0.37 -0.63,0.88 -0.65,1.45 0,0.03 0,0.06 0,0.09 0,0.57 0.22,1.09 0.59,1.48 0.36,0.38 0.88,0.63 1.45,0.65l0.01 -0.35 -0.01 0.35c0.03,0 0.06,0 0.09,0l0 0zm-1.04 -1.14c-0.24,-0.26 -0.39,-0.6 -0.39,-0.99 0,-0.02 0,-0.04 0,-0.06 0.01,-0.38 0.18,-0.72 0.44,-0.97 0.26,-0.25 0.6,-0.4 0.99,-0.4 0.02,0 0.04,0 0.06,0 0.38,0.02 0.72,0.18 0.97,0.44 0.25,0.26 0.4,0.61 0.4,0.99 0,0.02 0,0.04 0,0.06 -0.02,0.39 -0.18,0.73 -0.44,0.98 -0.26,0.25 -0.61,0.4 -0.99,0.4 -0.02,0 -0.04,0 -0.06,-0.01 -0.39,-0.01 -0.73,-0.18 -0.98,-0.44l0 0z"/>
  </g>
 </g>
</svg>
